SplineFontDB: 3.0
FontName: LinguaFranca-BoldItalic
FullName: Lingua Franca Bold Italic
FamilyName: Lingua Franca
Weight: Bold
Copyright: Copyright (c) 1989, 1991 Adobe Systems Incorporated. All Rights Reserved.\nUtopia (R)\nUtopia is either a registered trademark or trademark of Adobe Systems\nIncorporated in the United States and/or other countries. Used under license.\n\nFor details of the license, cf. http://tug.org/fonts/utopia/LICENSE-utopia.txt.\n\nCopyright (c) 2003-2004 the GUTenberg project for the Greek glyphs, which are\nlicensed under the Latex Public Project License (LPPL).\n\nCopyright (c) 2006 Han The Thanh, for the modifications released under the name\n"Vntopia".\n\nCopyright (c) 2008-2014 Andrey V. Panov, for the modifications released under\nthe name "Heuristica".\n\nCopyright (c) 2014 Michael Sharpe for the open-box glyphs, which are licensed\nunder the SIL Open Font License (OFL).\n\nCopyright (c) 2016 Andreas Nolda, for the modifications released under the\ncurrent name.\n\nThis Font Software is licensed under the SIL Open Font License (OFL),\nVersion 1.1; see http://scripts.sil.org/ofl.
Version: 1.12
ItalicAngle: -13
UnderlinePosition: -100
UnderlineWidth: 50
Ascent: 750
Descent: 250
LayerCount: 2
Layer: 0 0 "Back"  1
Layer: 1 0 "Fore"  0
XUID: [1021 113 1689094547 7705353]
FSType: 8
OS2Version: 4
OS2_WeightWidthSlopeOnly: 0
OS2_UseTypoMetrics: 1
CreationTime: 1164221255
ModificationTime: 1475917656
PfmFamily: 17
TTFWeight: 700
TTFWidth: 5
LineGap: 0
VLineGap: 0
Panose: 2 2 7 3 6 7 5 2 2 4
OS2TypoAscent: 750
OS2TypoAOffset: 0
OS2TypoDescent: -250
OS2TypoDOffset: 0
OS2TypoLinegap: 200
OS2WinAscent: 950
OS2WinAOffset: 0
OS2WinDescent: 250
OS2WinDOffset: 0
HheadAscent: 950
HheadAOffset: 0
HheadDescent: -250
HheadDOffset: 0
OS2SubXSize: 650
OS2SubYSize: 700
OS2SubXOff: 31
OS2SubYOff: 140
OS2SupXSize: 650
OS2SupYSize: 700
OS2SupXOff: -107
OS2SupYOff: 480
OS2StrikeYSize: 49
OS2StrikeYPos: 258
OS2Vendor: 'PfEd'
OS2CodePages: 00000017.00000000

StartChar: .notdef
Encoding: 0 -1 0
AltUni2: 000000.ffffffff.0
Width: 608
Flags: MW
HStem: 0 43<233 535 233 598> 649 43<233 233 233 534>
VStem: 170 43<93 93 93 600> 555 43<93 600 600 600>
LayerCount: 2
Fore
SplineSet
170 0 m 1
 170 692 l 1
 598 692 l 1
 598 0 l 1
 170 0 l 1
213 93 m 1
 360 346 l 1
 213 600 l 1
 213 93 l 1
233 43 m 1
 535 43 l 1
 384 304 l 1
 233 43 l 1
233 649 m 1
 384 389 l 1
 534 649 l 1
 233 649 l 1
408 346 m 1
 555 93 l 1
 555 600 l 1
 408 346 l 1
EndSplineSet
EndChar

StartChar: exclam
Encoding: 33 33 2
Width: 280
GlyphClass: 2
Flags: HMW
HStem: -12 178<136.5 179.5> 687 20G<255 337.5>
VStem: 67 180<57.5 97.5>
LayerCount: 2
Fore
SplineSet
157 217 m 1
 193 603 l 2
 200 673 214 707 296 707 c 0
 379 707 379 673 353 603 c 2
 212 217 l 1
 157 217 l 1
67 67 m 0
 67 128 110 166 163 166 c 0
 221 166 247 129 247 88 c 0
 247 27 205 -12 154 -12 c 0
 94 -12 67 24 67 67 c 0
EndSplineSet
EndChar

StartChar: quotedbl
Encoding: 34 34 3
Width: 455
GlyphClass: 2
Flags: MW
HStem: 687 20G<237 299 440 502>
VStem: 181 147 384 147
LayerCount: 2
Fore
SplineSet
177 407 m 1
 185 630 l 2
 186 682 206 707 268 707 c 0
 330 707 340 683 318 630 c 2
 223 407 l 1
 177 407 l 1
380 407 m 1
 388 630 l 2
 389 682 409 707 471 707 c 0
 533 707 543 683 521 630 c 2
 426 407 l 1
 380 407 l 1
EndSplineSet
EndChar

StartChar: numbersign
Encoding: 35 35 4
Width: 560
GlyphClass: 2
Flags: MW
HStem: 0 21G<102 179 102 102 291 367 291 291> 219 72<72 204 98 179 98 256 281 368 469 552> 398 72<161 242 135 267 161 319 344 431 532 615> 648 20G<337 413 413 413 526 601 601 601>
VStem: 72 569<219 470>
LayerCount: 2
Fore
SplineSet
72 219 m 1
 98 291 l 1
 204 291 l 1
 242 398 l 1
 135 398 l 1
 161 470 l 1
 267 470 l 1
 337 668 l 1
 413 668 l 1
 344 470 l 1
 456 470 l 1
 526 668 l 1
 601 668 l 1
 532 470 l 1
 641 470 l 1
 615 398 l 1
 507 398 l 1
 469 291 l 1
 578 291 l 1
 552 219 l 1
 444 219 l 1
 367 0 l 1
 291 0 l 1
 368 219 l 1
 256 219 l 1
 179 0 l 1
 102 0 l 1
 179 219 l 1
 72 219 l 1
281 291 m 1
 393 291 l 1
 431 398 l 1
 319 398 l 1
 281 291 l 1
EndSplineSet
EndChar

StartChar: dollar
Encoding: 36 36 5
Width: 560
GlyphClass: 2
Flags: MW
HStem: 2 47<250 260> 499 21G<540.5 570> 619 47<445 456>
VStem: 67 117 158 123 440 129 513 110
LayerCount: 2
Fore
SplineSet
67 120 m 0xf4
 68 164 103 190 140 190 c 0
 168 190 179 174 184 157 c 0xf4
 207 77 236 50 260 49 c 1
 315 291 l 1
 191 347 157 412 158 473 c 0
 160 590 259 668 402 668 c 1
 421 748 l 1
 475 748 l 1
 456 666 l 1
 528 661 624 621 623 551 c 0
 622 522 588 499 552 499 c 0
 529 499 517 521 513 534 c 0xea
 497 585 473 615 445 619 c 1
 396 405 l 1
 495 362 571 311 569 198 c 0
 568 108 504 -1 305 0 c 1
 282 -104 l 1
 227 -104 l 1
 250 2 l 1
 143 8 66 59 67 120 c 0xf4
281 522 m 0xe8
 281 481 301 453 347 431 c 1
 391 622 l 1
 339 622 282 586 281 522 c 0xe8
314 46 m 1
 369 41 438 70 440 155 c 0xe4
 441 207 418 242 364 267 c 1
 314 46 l 1
EndSplineSet
EndChar

StartChar: percent
Encoding: 37 37 6
Width: 896
GlyphClass: 2
Flags: MW
HStem: -12 40<667 725.5> 308 40<277.5 335> 320 40<720 761.5> 588 45<545 667 667 686 545 692> 640 40<330 371.5> 682 20G<785 785>
VStem: 141 109<411 434.5 399 466> 396 109<522.5 585.5> 531 109<91 114.5 79 146> 787 109<228 254.5 202.5 265.5>
LayerCount: 2
Fore
SplineSet
141 447 m 0xdfc0
 141 485 154 569 213 626 c 0
 253 665 303 680 357 680 c 0
 395 680 435 667 467 647 c 0
 480 639 498 633 545 633 c 2
 667 633 l 2
 705 633 735 643 764 677 c 2
 785 702 l 1
 828 666 l 1
 255 -31 l 1
 214 7 l 1
 692 588 l 1
 499 588 l 1
 503 567 505 549 505 539 c 0
 505 506 499 456 467 402 c 0
 434 346 383 308 287 308 c 0
 175 308 141 375 141 447 c 0xdfc0
250 417 m 0
 250 381 260 348 295 348 c 0
 377 348 396 528 396 568 c 0
 396 603 390 640 353 640 c 0
 273 640 250 452 250 417 c 0
531 127 m 0xa0c0
 531 165 544 249 603 306 c 0
 643 345 693 360 747 360 c 0
 869 360 896 290 896 219 c 0
 896 186 890 136 859 82 c 0
 826 26 774 -12 677 -12 c 0
 565 -12 531 55 531 127 c 0xa0c0
640 97 m 0
 640 61 648 28 686 28 c 0
 767 28 787 208 787 248 c 0
 787 283 780 320 743 320 c 0
 663 320 640 132 640 97 c 0
EndSplineSet
EndChar

StartChar: ampersand
Encoding: 38 38 7
Width: 752
GlyphClass: 2
Flags: MW
HStem: -12 69<340.5 345> -7 33<746 751> 634 46<425 460.5>
VStem: 97 139<156.5 234.5> 244 123<500 541> 497 106<529.5 585.5 491.5 586> 648 107
LayerCount: 2
Fore
SplineSet
97 171 m 0xbe
 97 298 205 344 271 374 c 1
 256 404 244 445 244 480 c 0
 244 602 332 680 439 680 c 0
 532 680 603 628 603 543 c 0
 603 440 508 401 423 373 c 1
 459 314 518 234 575 173 c 1
 626 233 642 340 648 417 c 1
 681 441 732 448 761 444 c 1
 779 412 772 361 755 330 c 0
 721 266 684 206 608 138 c 1
 655 88 698 49 751 26 c 1
 746 -7 l 1x7e
 719 -6 l 2
 621 -3 566 19 518 57 c 1
 465 12 381 -12 309 -12 c 0
 169 -12 97 75 97 171 c 0xbe
236 199 m 0
 236 114 299 57 382 57 c 0xbe
 418 57 462 71 481 89 c 1
 395 160 326 266 293 328 c 1
 277 318 236 275 236 199 c 0
367 520 m 0
 367 480 384 441 401 414 c 1
 450 435 497 491 497 568 c 0
 497 604 476 634 445 634 c 0
 405 634 367 593 367 520 c 0
EndSplineSet
EndChar

StartChar: quotesingle
Encoding: 39 39 8
Width: 246
GlyphClass: 2
Flags: MW
HStem: 687 20G<230 292>
VStem: 174 146
LayerCount: 2
Fore
SplineSet
169 376 m 1
 180 630 l 2
 182 682 199 707 261 707 c 0
 323 707 331 683 311 630 c 2
 215 376 l 1
 169 376 l 1
EndSplineSet
EndChar

StartChar: parenleft
Encoding: 40 40 9
Width: 350
GlyphClass: 2
Flags: MW
HStem: 665 34<472 473>
VStem: 122 99
LayerCount: 2
Fore
SplineSet
128 37 m 0
 114 123 128 225 145 301 c 0
 161 371 186 471 236 554 c 1
 293 645 371 704 473 699 c 1
 472 665 l 1
 339 642 266 385 244 282 c 1
 220 179 191 -65 292 -101 c 1
 280 -135 l 1
 192 -125 144 -59 128 37 c 0
EndSplineSet
EndChar

StartChar: parenright
Encoding: 41 41 10
Width: 350
GlyphClass: 2
Flags: MW
HStem: -135 34<3 4> 679 20G<196 196>
VStem: 255 99
LayerCount: 2
Fore
SplineSet
3 -135 m 1
 4 -101 l 1
 137 -78 210 179 232 282 c 1
 256 385 285 629 184 665 c 1
 196 699 l 1
 284 689 332 623 348 527 c 0
 362 441 348 339 331 263 c 0
 315 193 290 93 240 10 c 1
 183 -81 105 -140 3 -135 c 1
EndSplineSet
EndChar

StartChar: asterisk
Encoding: 42 42 11
Width: 500
GlyphClass: 2
Flags: MW
HStem: 687 20G<378.5 418>
LayerCount: 2
Fore
SplineSet
164 413 m 0
 150 441 154 468 183 475 c 2
 299 503 l 2
 323 509 324 525 298 532 c 2
 219 553 l 2
 189 561 190 596 206 618 c 0
 225 644 255 650 270 633 c 2
 325 569 l 2
 341 551 355 562 352 585 c 2
 344 665 l 2
 342 693 359 707 398 707 c 0
 438 707 455 689 440 662 c 2
 395 580 l 2
 384 559 400 549 419 566 c 2
 494 631 l 2
 515 648 541 640 555 614 c 0
 571 584 563 556 537 550 c 2
 425 528 l 2
 400 523 395 506 417 500 c 2
 498 475 l 2
 532 465 530 433 509 405 c 0
 491 381 468 377 445 404 c 2
 393 466 l 2
 380 482 367 472 369 447 c 2
 376 357 l 2
 379 324 356 315 327 315 c 0
 285 315 266 336 282 366 c 2
 327 452 l 2
 338 472 322 483 303 465 c 2
 234 398 l 2
 206 372 179 383 164 413 c 0
EndSplineSet
EndChar

StartChar: plus
Encoding: 43 43 12
Width: 600
GlyphClass: 2
Flags: MW
HStem: 0 21G<312 408 312 312> 210 80<118 312 118 312 408 602> 470 20G<312 408 408 408>
VStem: 312 96<0 210 0 210 290 490>
LayerCount: 2
Fore
SplineSet
118 210 m 1
 118 290 l 1
 312 290 l 1
 312 490 l 1
 408 490 l 1
 408 290 l 1
 602 290 l 1
 602 210 l 1
 408 210 l 1
 408 0 l 1
 312 0 l 1
 312 210 l 1
 118 210 l 1
EndSplineSet
EndChar

StartChar: comma
Encoding: 44 44 13
Width: 280
GlyphClass: 2
Flags: MW
HStem: -167 347<52 162>
VStem: 80 162<89 115 36 122>
LayerCount: 2
Fore
SplineSet
26 -138 m 1
 65 -100 105 -51 105 1 c 0
 105 20 98 39 93 50 c 0
 85 67 80 79 80 99 c 0
 80 145 116 180 162 180 c 0
 216 181 242 139 242 91 c 0
 242 -19 132 -109 52 -167 c 1
 26 -138 l 1
EndSplineSet
EndChar

StartChar: hyphen
Encoding: 45 45 14
Width: 392
GlyphClass: 2
Flags: MW
HStem: 203 95<106 389 126 369>
VStem: 106 283<203 298>
LayerCount: 2
Fore
SplineSet
106 203 m 1
 126 298 l 1
 389 298 l 1
 369 203 l 1
 106 203 l 1
EndSplineSet
EndChar

StartChar: period
Encoding: 46 46 15
Width: 280
GlyphClass: 2
Flags: MW
HStem: -12 178<136.5 179.5>
VStem: 67 180<57.5 97.5>
LayerCount: 2
Fore
SplineSet
67 67 m 0
 67 128 110 166 163 166 c 0
 221 166 247 129 247 88 c 0
 247 27 205 -12 154 -12 c 0
 94 -12 67 24 67 67 c 0
EndSplineSet
EndChar

StartChar: slash
Encoding: 47 47 16
Width: 260
GlyphClass: 2
Flags: MW
HStem: -15 21G<19 19 19 119> 687 20G<305 405 405 405>
VStem: 19 386
LayerCount: 2
Fore
SplineSet
19 -15 m 1
 305 707 l 1
 405 707 l 1
 119 -15 l 1
 19 -15 l 1
EndSplineSet
Substitution2: "'ss01' Style Set 1 lookup 9 subtable" slash.alt
EndChar

StartChar: zero
Encoding: 48 48 17
Width: 560
GlyphClass: 2
Flags: MW
HStem: -12 46<277.5 328.5 277.5 376.5> 634 46<393 440>
VStem: 92 140<161 190.5 100 260> 478 140<422 564.5>
LayerCount: 2
Fore
SplineSet
92 218 m 0
 92 302 109 401 149 488 c 0
 201 599 283 680 407 680 c 0
 590 680 618 543 618 456 c 0
 618 388 607 294 565 193 c 0
 516 78 447 -12 306 -12 c 0
 142 -12 92 104 92 218 c 0
232 133 m 0
 232 67 258 34 297 34 c 0
 360 34 398 135 430 251 c 0
 463 368 478 491 478 538 c 0
 478 591 463 634 417 634 c 0
 369 634 329 568 296 474 c 0
 263 379 232 248 232 133 c 0
EndSplineSet
Substitution2: "'pnum' Proportional Numbers lookup 5 subtable" zero.pnum
Substitution2: "'onum' Oldstyle Figures lookup 4 subtable" zero.oldstyle
Substitution2: "'sups' Superscript lookup 3 subtable" zerosuperior
EndChar

StartChar: one
Encoding: 49 49 18
Width: 560
GlyphClass: 2
Flags: MW
HStem: 0 40 653 20G<505 505> 660 20G<497 497>
VStem: 107 398
LayerCount: 2
Fore
SplineSet
107 0 m 1xb0
 115 38 l 1
 187 43 l 2
 210 45 222 52 228 81 c 2
 334 556 l 2
 340 586 335 593 318 596 c 2
 242 609 l 1
 250 642 l 1
 497 680 l 1
 505 673 l 1xd0
 374 81 l 2
 368 52 378 44 402 43 c 2
 475 38 l 1
 467 0 l 1
 107 0 l 1xb0
EndSplineSet
Substitution2: "'pnum' Proportional Numbers lookup 5 subtable" one.pnum
Substitution2: "'onum' Oldstyle Figures lookup 4 subtable" one.oldstyle
Substitution2: "'sups' Superscript lookup 3 subtable" onesuperior
EndChar

StartChar: two
Encoding: 50 50 19
Width: 560
GlyphClass: 2
Flags: MW
HStem: 0 116<205 439 439 461.5 205 506> 634 46<373 418>
VStem: 457 156<497.5 558.5 447.5 577.5>
LayerCount: 2
Fore
SplineSet
39 16 m 1
 58 116 145 191 268 277 c 0
 378 354 457 440 457 555 c 0
 457 600 440 634 396 634 c 0
 350 634 318 591 284 509 c 0
 273 481 261 459 229 459 c 0
 194 459 156 485 156 530 c 0
 156 602 245 680 391 680 c 0
 535 680 613 613 613 504 c 0
 613 391 535 326 411 274 c 0
 353 250 220 175 205 116 c 1
 439 116 l 2
 484 116 496 126 526 173 c 1
 566 169 l 1
 506 0 l 1
 52 0 l 1
 39 16 l 1
EndSplineSet
Substitution2: "'pnum' Proportional Numbers lookup 5 subtable" two.pnum
Substitution2: "'onum' Oldstyle Figures lookup 4 subtable" two.oldstyle
Substitution2: "'sups' Superscript lookup 3 subtable" twosuperior
EndChar

StartChar: three
Encoding: 51 51 20
Width: 560
GlyphClass: 2
Flags: MW
HStem: -12 46<262.5 316.5 262.5 322.5> 321 82<220 233.5> 335 53<305.5 345> 634 46<366 407.5>
VStem: 56 126 161 119 402 160<164 238 164 260.5> 451 151<517.5 565.5 471.5 580>
LayerCount: 2
Fore
SplineSet
56 118 m 0xba
 54 165 100 195 133 195 c 0
 165 195 176 170 182 149 c 0
 207 60 239 34 286 34 c 0
 347 34 402 100 402 216 c 0
 402 305 367 335 323 335 c 0xba
 278 335 243 321 224 321 c 0
 205 321 199 334 199 352 c 0
 199 377 210 403 230 403 c 0xda
 251 403 284 388 327 388 c 0
 402 388 451 477 451 558 c 0
 451 602 427 634 388 634 c 0
 344 634 312 597 280 525 c 0
 271 505 261 488 233 488 c 0
 198 488 163 512 161 550 c 0
 159 601 233 680 383 680 c 0
 526 680 602 614 602 517 c 0xb5
 602 426 531 377 427 367 c 1
 427 363 l 1
 519 340 562 276 562 200 c 0
 562 128 528 72 477 37 c 0
 426 2 357 -12 288 -12 c 0
 135 -12 58 56 56 118 c 0xba
EndSplineSet
Substitution2: "'pnum' Proportional Numbers lookup 5 subtable" three.pnum
Substitution2: "'onum' Oldstyle Figures lookup 4 subtable" three.oldstyle
Substitution2: "'sups' Superscript lookup 3 subtable" threesuperior
EndChar

StartChar: four
Encoding: 52 52 21
Width: 560
GlyphClass: 2
Flags: MW
HStem: 0 40 174 65<175 341 497 575> 648 20G<474 592 592 592>
VStem: 63 529<205 668>
LayerCount: 2
Fore
SplineSet
63 205 m 1
 189 367 322 520 474 668 c 1
 592 668 l 1
 497 239 l 1
 590 239 l 1
 575 174 l 1
 483 174 l 1
 460 72 l 2
 455 51 463 43 479 42 c 2
 527 38 l 1
 518 0 l 1
 212 0 l 1
 221 38 l 1
 286 43 l 2
 303 44 314 51 319 72 c 2
 341 174 l 1
 77 174 l 1
 63 205 l 1
175 239 m 1
 355 239 l 1
 426 543 l 1
 424 543 l 1
 336 445 252 342 175 239 c 1
EndSplineSet
Substitution2: "'pnum' Proportional Numbers lookup 5 subtable" four.pnum
Substitution2: "'onum' Oldstyle Figures lookup 4 subtable" four.oldstyle
Substitution2: "'sups' Superscript lookup 3 subtable" foursuperior
EndChar

StartChar: five
Encoding: 53 53 22
Width: 560
GlyphClass: 2
Flags: MW
HStem: -12 46<262.5 316 262.5 357.5> 368 63<332.5 336> 552 116<281 292 292 567>
VStem: 58 127 406 159<176 279>
LayerCount: 2
Fore
SplineSet
58 118 m 0
 56 162 98 195 139 195 c 0
 168 195 177 174 185 146 c 0
 210 58 240 34 285 34 c 0
 347 34 406 110 406 242 c 0
 406 316 369 368 303 368 c 0
 256 368 219 348 182 304 c 1
 146 329 l 1
 213 657 l 1
 228 668 l 1
 621 668 l 1
 628 656 l 1
 567 552 l 1
 292 552 l 2
 270 552 263 548 254 521 c 2
 209 382 l 1
 211 380 l 1
 250 407 301 431 364 431 c 0
 502 431 565 350 565 238 c 0
 565 70 433 -12 282 -12 c 0
 128 -12 60 57 58 118 c 0
EndSplineSet
Substitution2: "'pnum' Proportional Numbers lookup 5 subtable" five.pnum
Substitution2: "'onum' Oldstyle Figures lookup 4 subtable" five.oldstyle
Substitution2: "'sups' Superscript lookup 3 subtable" fivesuperior
EndChar

StartChar: six
Encoding: 54 54 23
Width: 560
GlyphClass: 2
Flags: MW
HStem: -12 46<290 353.5 290 407.5> 353 77<333 462> 634 46<393 446>
VStem: 91 145<161 192 127 291.5> 434 153<187.5 281>
LayerCount: 2
Fore
SplineSet
91 222 m 0
 91 361 143 529 240 612 c 0
 286 652 347 680 429 680 c 0
 571 680 621 596 621 558 c 0
 621 511 578 493 548 493 c 0
 522 493 510 512 506 534 c 0
 493 599 466 634 426 634 c 0
 360 634 295 516 259 360 c 1
 261 360 l 1
 295 399 354 430 401 430 c 0
 523 430 587 354 587 239 c 0
 587 104 492 -12 323 -12 c 0
 145 -12 91 100 91 222 c 0
236 162 m 0
 236 92 260 34 320 34 c 0
 387 34 434 129 434 246 c 0
 434 316 400 353 351 353 c 0
 315 353 285 332 264 300 c 0
 244 269 236 222 236 162 c 0
EndSplineSet
Substitution2: "'pnum' Proportional Numbers lookup 5 subtable" six.pnum
Substitution2: "'onum' Oldstyle Figures lookup 4 subtable" six.oldstyle
Substitution2: "'sups' Superscript lookup 3 subtable" sixsuperior
EndChar

StartChar: seven
Encoding: 55 55 24
Width: 560
GlyphClass: 2
Flags: MW
HStem: -12 21G<231 282> 496 21G<182 182> 552 116<250.5 275 275 527>
VStem: 176 158<47 47>
LayerCount: 2
Fore
SplineSet
147 507 m 1
 205 668 l 1
 657 668 l 1
 667 656 l 1
 643 569 560 469 462 358 c 0
 386 272 351 177 334 47 c 0
 329 7 307 -12 257 -12 c 0
 205 -12 176 9 176 47 c 0
 176 147 280 251 390 364 c 0
 468 444 519 529 527 552 c 1
 275 552 l 2
 226 552 208 538 194 515 c 2
 182 496 l 1
 147 507 l 1
EndSplineSet
Substitution2: "'pnum' Proportional Numbers lookup 5 subtable" seven.pnum
Substitution2: "'onum' Oldstyle Figures lookup 4 subtable" seven.oldstyle
Substitution2: "'sups' Superscript lookup 3 subtable" sevensuperior
EndChar

StartChar: eight
Encoding: 56 56 25
Width: 560
GlyphClass: 2
Flags: MW
HStem: -12 46<280 340 280 356> 333 46<353 375> 634 46<380.5 436.5>
VStem: 72 155<123 191.5 103 222.5> 164 146<457 496 430.5 518.5> 424 155<181 250.5 179 265.5> 473 146<512.5 558 469 582>
LayerCount: 2
Fore
SplineSet
72 171 m 0xf4
 72 274 147 358 254 366 c 1
 254 369 l 1
 213 381 164 421 164 493 c 0
 164 544 183 589 220 623 c 0
 261 661 319 680 403 680 c 0
 572 680 619 596 619 520 c 0xea
 619 418 540 375 470 363 c 1
 470 359 l 1
 529 343 579 290 579 211 c 0
 579 147 558 92 514 52 c 0
 469 12 403 -12 309 -12 c 0
 139 -12 72 75 72 171 c 0xf4
227 133 m 0xf4
 227 73 255 34 305 34 c 0
 375 34 424 126 424 236 c 0
 424 295 402 333 348 333 c 0
 287 333 227 250 227 133 c 0xf4
310 459 m 0xea
 310 402 335 379 371 379 c 0
 426 379 473 458 473 567 c 0
 473 597 458 634 415 634 c 0
 346 634 310 533 310 459 c 0xea
EndSplineSet
Substitution2: "'pnum' Proportional Numbers lookup 5 subtable" eight.pnum
Substitution2: "'onum' Oldstyle Figures lookup 4 subtable" eight.oldstyle
Substitution2: "'sups' Superscript lookup 3 subtable" eightsuperior
EndChar

StartChar: nine
Encoding: 57 57 26
Width: 560
GlyphClass: 2
Flags: MW
HStem: -12 48<267.5 307.5 267.5 354.5> 256 72<334.5 339.5> 638 42<357.5 418>
VStem: 130 146<407 462.5> 467 138<492.5 507 394.5 554>
LayerCount: 2
Fore
SplineSet
83 112 m 0
 82 151 119 181 159 181 c 0
 187 181 198 159 205 133 c 0
 223 60 249 36 286 36 c 0
 329 36 369 83 399 154 c 0
 423 210 438 285 448 321 c 1
 446 322 l 1
 412 285 369 256 310 256 c 0
 211 256 130 324 130 430 c 0
 130 495 152 560 196 606 c 1
 239 649 298 680 381 680 c 0
 545 680 605 580 605 434 c 0
 605 355 585 237 535 139 c 0
 487 44 419 -12 290 -12 c 0
 163 -12 85 52 83 112 c 0
276 438 m 0
 276 376 306 328 363 328 c 0
 399 328 425 348 442 377 c 0
 458 404 467 464 467 521 c 0
 467 587 445 638 391 638 c 0
 324 638 276 544 276 438 c 0
EndSplineSet
Substitution2: "'pnum' Proportional Numbers lookup 5 subtable" nine.pnum
Substitution2: "'onum' Oldstyle Figures lookup 4 subtable" nine.oldstyle
Substitution2: "'sups' Superscript lookup 3 subtable" ninesuperior
EndChar

StartChar: colon
Encoding: 58 58 27
Width: 280
GlyphClass: 2
Flags: MW
HStem: -12 178<136.5 179.5> 312 178<204.5 247.5>
VStem: 67 180<57.5 97.5> 135 180<381.5 421.5>
LayerCount: 2
Fore
SplineSet
67 67 m 0xa0
 67 128 110 166 163 166 c 0
 221 166 247 129 247 88 c 0
 247 27 205 -12 154 -12 c 0
 94 -12 67 24 67 67 c 0xa0
135 391 m 0x50
 135 452 178 490 231 490 c 0
 289 490 315 453 315 412 c 0
 315 351 273 312 222 312 c 0
 162 312 135 348 135 391 c 0x50
EndSplineSet
EndChar

StartChar: semicolon
Encoding: 59 59 28
Width: 280
GlyphClass: 2
Flags: MW
HStem: -167 347<52 162> 312 178<204.5 247.5>
VStem: 80 162<89 115 36 122> 135 180<381.5 421.5>
LayerCount: 2
Fore
SplineSet
135 391 m 0x50
 135 452 178 490 231 490 c 0
 289 490 315 453 315 412 c 0
 315 351 273 312 222 312 c 0
 162 312 135 348 135 391 c 0x50
26 -138 m 1xa0
 65 -100 105 -51 105 1 c 0
 105 20 98 39 93 50 c 0
 85 67 80 79 80 99 c 0
 80 145 116 180 162 180 c 0
 216 181 242 139 242 91 c 0
 242 -19 132 -109 52 -167 c 1
 26 -138 l 1xa0
EndSplineSet
EndChar

StartChar: less
Encoding: 60 60 29
Width: 600
GlyphClass: 2
Flags: MW
HStem: 475 20G<579 579>
VStem: 101 478<5 291 5 291>
LayerCount: 2
Fore
SplineSet
101 209 m 1
 101 291 l 1
 579 495 l 1
 579 404 l 1
 198 250 l 1
 579 96 l 1
 579 5 l 1
 101 209 l 1
EndSplineSet
EndChar

StartChar: equal
Encoding: 61 61 30
Width: 600
GlyphClass: 2
Flags: MW
HStem: 103 80<118 602 118 602> 317 80<118 602 118 602>
VStem: 118 484<103 183 103 183 317 397 103 397>
LayerCount: 2
Fore
SplineSet
118 103 m 1
 118 183 l 1
 602 183 l 1
 602 103 l 1
 118 103 l 1
118 317 m 1
 118 397 l 1
 602 397 l 1
 602 317 l 1
 118 317 l 1
EndSplineSet
EndChar

StartChar: greater
Encoding: 62 62 31
Width: 600
GlyphClass: 2
Flags: MW
HStem: 475 20G<121 121>
VStem: 121 478<5 291 96 291 209 495 209 495>
LayerCount: 2
Fore
SplineSet
121 5 m 1
 121 96 l 1
 502 250 l 1
 121 404 l 1
 121 495 l 1
 599 291 l 1
 599 209 l 1
 121 5 l 1
EndSplineSet
EndChar

StartChar: question
Encoding: 63 63 32
Width: 454
GlyphClass: 2
Flags: MW
HStem: -12 178<219.5 262.5> 218 64<244 398> 661 46<352.5 379>
VStem: 150 180<57.5 97.5> 153 125 162 144<314 338.5> 401 149<578 614 534.5 627>
LayerCount: 2
Fore
SplineSet
153 585 m 0xea
 153 634 215 707 355 707 c 0
 487 707 550 655 550 573 c 0
 550 496 489 455 412 425 c 0
 351 402 306 373 306 329 c 0xe6
 306 299 334 284 355 282 c 0
 373 280 386 280 398 282 c 1
 405 253 l 1
 371 230 318 218 278 218 c 0xea
 210 218 162 256 162 313 c 0xe6
 162 364 202 401 269 437 c 0
 353 482 401 541 401 615 c 0
 401 639 391 661 367 661 c 0
 338 661 309 627 278 556 c 0
 269 535 255 522 229 522 c 0
 200 522 153 539 153 585 c 0xea
150 67 m 0x90
 150 128 193 166 246 166 c 0
 304 166 330 129 330 88 c 0
 330 27 288 -12 237 -12 c 0
 177 -12 150 24 150 67 c 0x90
EndSplineSet
EndChar

StartChar: at
Encoding: 64 64 33
Width: 828
GlyphClass: 2
Flags: MW
HStem: -15 54<403.5 524.5> 161 52<358 468 672.5 723.5> 507 37<536 580 470.5 584> 647 60<456.5 614.5>
VStem: 125 109<252.5 397 252.5 432> 304 122<238.5 285.5 238.5 289> 556 103 802 75<375.5 487.5>
LayerCount: 2
Fore
SplineSet
125 307 m 0
 125 557 328 707 552 707 c 0
 753 707 877 574 877 414 c 0
 877 302 803 161 644 161 c 0
 558 161 548 211 559 255 c 1
 571 309 l 1
 568 311 l 1
 522 214 464 161 384 161 c 0
 332 161 304 199 304 251 c 0
 304 327 370 544 571 544 c 0
 589 544 606 540 618 534 c 1
 621 540 l 1
 731 540 l 1
 705 446 680 353 659 259 c 0
 654 237 655 213 690 213 c 0
 761 213 802 342 802 409 c 0
 802 566 685 647 544 647 c 0
 369 647 234 487 234 307 c 0
 234 198 297 39 510 39 c 0
 579 39 645 54 692 74 c 1
 703 39 l 1
 650 1 554 -15 495 -15 c 0
 295 -15 125 87 125 307 c 0
426 253 m 0
 426 224 435 213 449 213 c 0
 487 213 551 336 572 400 c 1
 608 498 l 1
 600 504 589 507 579 507 c 0
 493 507 426 318 426 253 c 0
EndSplineSet
EndChar

StartChar: A
Encoding: 65 65 34
Width: 634
GlyphClass: 2
Flags: MW
HStem: 0 40 246 48<260 429 260 434 234 429> 672 20G<420 538 538 538>
VStem: -24 698<0 38>
AnchorPoint: "Anchor-3" 482 707 basechar 0
AnchorPoint: "Anchor-2" 320 0 basechar 0
AnchorPoint: "Anchor-1" 543 0 basechar 0
LayerCount: 2
Fore
SplineSet
-24 0 m 1
 -17 38 l 1
 10 41 l 2
 40 44 55 54 75 87 c 0
 103 133 166 243 226 349 c 2
 420 692 l 1
 538 692 l 1
 572 375 l 2
 580 302 594 159 602 86 c 0
 606 58 610 43 633 41 c 2
 674 38 l 1
 666 0 l 1
 366 0 l 1
 374 38 l 1
 426 42 l 2
 446 43 451 55 449 79 c 2
 434 246 l 1
 234 246 l 1
 202 188 176 132 148 79 c 0
 138 59 139 43 161 42 c 2
 217 38 l 1
 210 0 l 1
 -24 0 l 1
260 294 m 1
 429 294 l 1
 405 555 l 1
 403 555 l 1
 386 528 273 319 260 294 c 1
EndSplineSet
EndChar

StartChar: B
Encoding: 66 66 35
Width: 680
GlyphClass: 2
Flags: MW
HStem: 0 38<40 49 49 49 49 373> 0 46<321 373> 343 46<357 388 347 401> 646 46<439 456 189 493> 654 38<179 456>
VStem: 520 165<173 250 165 259.5> 569 155<495 556 491.5 580.5>
AnchorPoint: "Anchor-3" 486 707 basechar 0
AnchorPoint: "Anchor-2" 322 0 basechar 0
LayerCount: 2
Fore
SplineSet
40 0 m 1xa4
 49 38 l 1
 94 42 l 2
 123 44 130 62 138 98 c 2
 249 594 l 2
 257 630 258 647 230 649 c 2
 179 654 l 1
 189 692 l 1xac
 456 692 l 1
 566 693 632 677 670 647 c 0
 707 619 724 579 724 533 c 0x32
 724 450 665 379 534 365 c 1
 534 363 l 1
 603 351 685 304 685 196 c 0
 685 134 655 79 605 46 c 0
 551 11 470 0 373 0 c 2x74
 40 0 l 1xa4
295 111 m 2
 286 71 291 46 351 46 c 0x64
 469 46 520 126 520 220 c 0
 520 299 473 343 388 343 c 2
 347 343 l 1
 295 111 l 2
357 389 m 1
 401 389 l 2
 499 389 569 446 569 544 c 0
 569 617 525 646 461 646 c 0x32
 417 646 413 639 406 609 c 2
 357 389 l 1
EndSplineSet
EndChar

StartChar: C
Encoding: 67 67 36
Width: 672
GlyphClass: 2
Flags: MW
HStem: -15 46<389 468.5> 661 46<458.5 583 458.5 615.5>
VStem: 111 169<229 310> 700 38<480 480>
AnchorPoint: "Anchor-3" 555 707 basechar 0
AnchorPoint: "Anchor-2" 437 0 basechar 0
LayerCount: 2
Fore
SplineSet
111 275 m 0
 111 345 128 444 180 524 c 0
 250 631 362 707 555 707 c 0
 611 707 717 696 777 659 c 1
 738 480 l 1
 700 480 l 1
 699 571 674 661 557 661 c 0
 354 661 280 412 280 235 c 0
 280 96 344 31 434 31 c 0
 546 31 601 116 665 220 c 1
 703 220 l 1
 648 26 l 1
 584 -7 503 -15 434 -15 c 0
 142 -15 111 183 111 275 c 0
EndSplineSet
EndChar

StartChar: D
Encoding: 68 68 37
Width: 774
GlyphClass: 2
Flags: MW
HStem: 0 38<40 49 49 49 49 361> 0 46<336 361> 646 46<458 464 189 561.5> 654 38<179 464>
VStem: 656 163<395 456.5 382.5 501.5>
AnchorPoint: "Anchor-3" 531 707 basechar 0
AnchorPoint: "Anchor-2" 368 0 basechar 0
LayerCount: 2
Fore
SplineSet
40 0 m 1x88
 49 38 l 1
 94 42 l 2
 123 44 130 62 138 98 c 2
 249 594 l 2
 257 630 258 647 230 649 c 2
 179 654 l 1
 189 692 l 1x98
 464 692 l 1
 583 691 668 672 727 627 c 0
 786 582 819 510 819 403 c 0
 819 362 807 266 753 182 c 0
 684 73 579 0 361 0 c 2x68
 40 0 l 1x88
292 97 m 2
 282 54 312 46 360 46 c 0
 592 46 656 336 656 454 c 0
 656 549 633 646 490 646 c 0x68
 426 646 412 639 405 606 c 2
 292 97 l 2
EndSplineSet
EndChar

StartChar: E
Encoding: 69 69 38
Width: 622
GlyphClass: 2
Flags: MW
HStem: 0 46<355.5 440.5 355.5 590> 339 48<357 440 346 451> 646 46<438.5 456 456 525>
AnchorPoint: "Anchor-3" 478 707 basechar 0
AnchorPoint: "Anchor-2" 314 0 basechar 0
AnchorPoint: "Anchor-1" 314 0 basechar 0
LayerCount: 2
Fore
SplineSet
40 0 m 1
 49 38 l 1
 94 42 l 2
 123 44 130 62 138 98 c 2
 249 594 l 2
 257 630 258 647 230 649 c 2
 179 654 l 1
 190 692 l 1
 722 692 l 1
 682 507 l 1
 644 507 l 1
 639 562 l 2
 635 609 613 646 525 646 c 2
 456 646 l 2
 421 646 414 642 407 613 c 2
 357 387 l 1
 451 387 l 2
 514 387 530 404 562 477 c 1
 600 477 l 1
 550 249 l 1
 512 249 l 1
 515 311 504 339 440 339 c 2
 346 339 l 1
 293 103 l 2
 280 48 310 46 401 46 c 0
 480 46 528 67 579 154 c 2
 611 208 l 1
 649 208 l 1
 590 0 l 1
 40 0 l 1
EndSplineSet
EndChar

StartChar: F
Encoding: 70 70 39
Width: 585
GlyphClass: 2
Flags: MW
HStem: 0 38<40 49 49 49 49 366> 320 48<353 456 341 466> 646 46<434.5 447 447 521> 654 38<179 718>
VStem: 528 38<229 229> 578 38<459 459> 640 38<509 509>
AnchorPoint: "Anchor-3" 457 707 basechar 0
AnchorPoint: "Anchor-2" 294 0 basechar 0
LayerCount: 2
Fore
SplineSet
40 0 m 1xee
 49 38 l 1
 94 42 l 2
 123 44 130 62 138 98 c 2
 249 594 l 2
 257 630 258 647 230 649 c 2
 179 654 l 1
 189 692 l 1
 718 692 l 1xde
 678 509 l 1
 640 509 l 1
 635 562 l 2
 631 612 609 646 521 646 c 2
 447 646 l 2
 422 646 413 639 408 617 c 2
 353 368 l 1
 466 368 l 2
 529 368 546 386 578 459 c 1
 616 459 l 1
 566 229 l 1
 528 229 l 1
 531 292 520 320 456 320 c 2
 341 320 l 1
 290 95 l 2
 282 59 287 45 319 42 c 2
 374 38 l 1
 366 0 l 1
 40 0 l 1xee
EndSplineSet
EndChar

StartChar: G
Encoding: 71 71 40
Width: 726
GlyphClass: 2
Flags: MW
HStem: -15 46<381.5 464.5> 276 38<471 791 782 782> 661 46<466.5 584 466.5 601>
VStem: 111 169<178.5 328.5 173 329> 702 38<480 480>
AnchorPoint: "Anchor-3" 551 707 basechar 0
AnchorPoint: "Anchor-2" 430 0 basechar 0
LayerCount: 2
Fore
SplineSet
111 284 m 0
 111 374 138 473 203 558 c 0
 267 642 382 707 551 707 c 0
 617 707 714 697 775 655 c 1
 740 480 l 1
 702 480 l 1
 693 582 653 661 549 661 c 0
 355 661 280 416 280 241 c 0
 280 105 326 31 437 31 c 0
 497 31 509 43 518 82 c 2
 551 216 l 2
 560 251 555 269 535 271 c 2
 471 276 l 1
 479 314 l 1
 791 314 l 1
 782 276 l 1
 741 270 l 2
 717 267 713 249 705 216 c 2
 663 38 l 1
 591 -3 502 -15 427 -15 c 0
 237 -15 111 73 111 284 c 0
EndSplineSet
EndChar

StartChar: H
Encoding: 72 72 41
Width: 800
GlyphClass: 2
Flags: MW
HStem: 0 40 339 48<357 606 346 617> 652 40
VStem: 40 875<0 692>
AnchorPoint: "Anchor-3" 560 707 basechar 0
AnchorPoint: "Anchor-2" 397 0 basechar 0
LayerCount: 2
Fore
SplineSet
40 0 m 1
 49 38 l 1
 94 42 l 2
 123 44 130 62 138 98 c 2
 249 594 l 2
 257 630 258 647 230 649 c 2
 179 654 l 1
 189 692 l 1
 501 692 l 1
 491 654 l 1
 447 650 l 2
 418 648 411 630 403 594 c 2
 357 387 l 1
 617 387 l 1
 663 594 l 2
 671 630 672 647 644 649 c 2
 593 654 l 1
 603 692 l 1
 915 692 l 1
 905 654 l 1
 861 650 l 2
 832 648 825 630 817 594 c 2
 706 98 l 2
 698 62 697 45 725 42 c 2
 775 38 l 1
 766 0 l 1
 454 0 l 1
 463 38 l 1
 508 42 l 2
 537 44 544 62 552 98 c 2
 606 339 l 1
 346 339 l 1
 292 98 l 2
 284 62 283 45 311 42 c 2
 361 38 l 1
 352 0 l 1
 40 0 l 1
EndSplineSet
EndChar

StartChar: I
Encoding: 73 73 42
Width: 386
GlyphClass: 2
Flags: MW
HStem: 0 38<40 49 49 49 49 352> 654 38<179 501 491 491>
AnchorPoint: "Anchor-3" 353 707 basechar 0
AnchorPoint: "Anchor-2" 190 0 basechar 0
AnchorPoint: "Anchor-1" 190 0 basechar 0
LayerCount: 2
Fore
SplineSet
40 0 m 1
 49 38 l 1
 94 42 l 2
 123 44 130 62 138 98 c 2
 249 594 l 2
 257 630 258 647 230 649 c 2
 179 654 l 1
 189 692 l 1
 501 692 l 1
 491 654 l 1
 447 650 l 2
 418 648 411 630 403 594 c 2
 292 98 l 2
 284 62 283 45 311 42 c 2
 361 38 l 1
 352 0 l 1
 40 0 l 1
EndSplineSet
EndChar

StartChar: J
Encoding: 74 74 43
Width: 388
GlyphClass: 2
Flags: MW
HStem: -114 35 652 40
VStem: -15 527
AnchorPoint: "Anchor-3" 363 707 basechar 0
AnchorPoint: "Anchor-2" 178 0 basechar 0
LayerCount: 2
Fore
SplineSet
-15 -79 m 1
 23 -73 61 -58 84 -31 c 0
 114 3 138 57 161 158 c 2
 260 594 l 2
 268 630 269 647 241 649 c 2
 190 654 l 1
 200 692 l 1
 512 692 l 1
 502 654 l 1
 458 650 l 2
 429 648 422 630 414 594 c 2
 303 106 l 2
 287 36 263 -19 224 -54 c 0
 169 -104 88 -114 28 -114 c 0
 14 -114 1 -115 -13 -112 c 1
 -15 -79 l 1
EndSplineSet
EndChar

StartChar: K
Encoding: 75 75 44
Width: 688
GlyphClass: 2
Flags: MW
HStem: 0 38<40 49 49 49 49 352> 654 38<179 501 491 491 851 851>
AnchorPoint: "Anchor-3" 534 707 basechar 0
AnchorPoint: "Anchor-2" 371 0 basechar 0
LayerCount: 2
Fore
SplineSet
40 0 m 1
 49 38 l 1
 94 42 l 2
 123 44 130 62 138 98 c 2
 249 594 l 2
 257 630 258 647 230 649 c 2
 179 654 l 1
 189 692 l 1
 501 692 l 1
 491 654 l 1
 447 650 l 2
 418 648 411 630 403 594 c 2
 351 362 l 1
 353 360 l 1
 478 481 l 2
 534 534 582 586 612 614 c 0
 635 636 638 647 607 651 c 2
 582 654 l 1
 589 692 l 1
 858 692 l 1
 851 654 l 1
 790 648 772 646 725 614 c 0
 663 572 587 507 514 439 c 1
 474 403 l 1
 485 377 l 1
 516 300 579 173 636 96 c 0
 662 60 685 42 707 34 c 2
 719 30 l 1
 713 -6 l 1
 671 -5 l 2
 532 -2 491 31 445 115 c 0
 405 187 377 253 347 336 c 1
 345 336 l 1
 292 98 l 2
 284 62 283 45 311 42 c 2
 361 38 l 1
 352 0 l 1
 40 0 l 1
EndSplineSet
EndChar

StartChar: L
Encoding: 76 76 45
Width: 586
GlyphClass: 2
Flags: MW
HStem: 0 38<40 49 49 49 49 568> 0 46<347 421 347 568> 654 38<179 501 491 491>
AnchorPoint: "Anchor-3" 467 707 basechar 0
AnchorPoint: "Anchor-2" 304 0 basechar 0
LayerCount: 2
Fore
SplineSet
40 0 m 1xa0
 49 38 l 1xa0
 94 42 l 2
 123 45 130 62 138 98 c 2
 249 594 l 2
 257 630 258 648 230 650 c 2
 179 654 l 1
 189 692 l 1
 501 692 l 1
 491 654 l 1
 447 650 l 2
 418 647 411 630 403 594 c 2
 293 101 l 2
 282 52 310 46 384 46 c 0x60
 458 46 506 70 558 153 c 2
 588 201 l 1
 626 201 l 1
 568 0 l 1
 40 0 l 1xa0
EndSplineSet
EndChar

StartChar: M
Encoding: 77 77 46
Width: 921
GlyphClass: 2
Flags: W
HStem: 0 38<42 79 233 278 592 636 844 885> 654 38<179 220 979 1023>
AnchorPoint: "Anchor-3" 616 707 basechar 0
AnchorPoint: "Anchor-2" 453 0 basechar 0
LayerCount: 2
Fore
SplineSet
35 0 m 1
 42 38 l 1
 79 41 l 2
 102 43 118 57 128 91 c 0
 138 125 148 164 163 239 c 1
 239 594 l 2
 247 630 248 647 220 649 c 2
 169 654 l 1
 179 692 l 1
 422 692 l 1
 434 615 448 538 462 461 c 2
 507 206 l 1
 510 206 l 1
 655 461 l 2
 699 538 744 615 782 692 c 1
 1033 692 l 1
 1023 654 l 1
 979 650 l 2
 950 648 943 630 935 594 c 2
 825 98 l 2
 817 62 816 45 844 42 c 2
 894 38 l 1
 885 0 l 1
 583 0 l 1
 592 38 l 1
 636 42 l 2
 665 44 672 62 680 98 c 2
 789 585 l 1
 786 585 l 1
 458 12 l 1
 393 12 l 1
 299 585 l 1
 296 585 l 1
 224 239 l 2
 208 165 201 126 198 91 c 0
 195 58 204 43 233 41 c 2
 286 38 l 1
 278 0 l 1
 35 0 l 1
EndSplineSet
EndChar

StartChar: N
Encoding: 78 78 47
Width: 741
GlyphClass: 2
Flags: MW
HStem: 0 38<30 38 38 38 38 276> 654 38<172 404 865 865>
AnchorPoint: "Anchor-3" 534 707 basechar 0
AnchorPoint: "Anchor-2" 371 0 basechar 0
LayerCount: 2
Fore
SplineSet
30 0 m 1
 38 38 l 1
 75 41 l 2
 99 43 114 57 125 91 c 0
 136 125 146 164 163 239 c 2
 241 594 l 2
 249 630 250 647 222 649 c 2
 172 654 l 1
 182 692 l 1
 404 692 l 1
 474 522 545 353 617 183 c 1
 620 183 l 1
 679 453 l 2
 695 527 704 566 707 601 c 0
 710 634 702 649 673 651 c 2
 619 654 l 1
 627 692 l 1
 873 692 l 1
 865 654 l 1
 828 651 l 2
 804 649 789 635 778 601 c 0
 767 567 757 528 740 453 c 2
 640 0 l 1
 536 0 l 1
 458 187 379 374 299 561 c 1
 295 561 l 1
 223 239 l 1
 208 165 200 126 196 91 c 0
 193 58 202 43 230 41 c 2
 284 38 l 1
 276 0 l 1
 30 0 l 1
EndSplineSet
EndChar

StartChar: O
Encoding: 79 79 48
Width: 761
GlyphClass: 2
Flags: MW
HStem: -15 46<361 477 361 510> 661 46<439.5 566.5>
VStem: 113 165<179.5 269.5 139 290> 638 165<409 520 392.5 550>
AnchorPoint: "Anchor-3" 507 707 basechar 0
AnchorPoint: "Anchor-2" 423 0 basechar 0
AnchorPoint: "Anchor-1" 423 0 basechar 0
LayerCount: 2
Fore
SplineSet
113 264 m 0
 113 316 117 406 170 508 c 0
 224 611 326 707 507 707 c 0
 675 707 803 621 803 419 c 0
 803 366 795 274 744 176 c 0
 691 74 600 -15 420 -15 c 0
 219 -15 113 95 113 264 c 0
278 190 m 0
 278 88 319 31 403 31 c 0
 551 31 638 312 638 506 c 0
 638 594 611 661 522 661 c 0
 357 661 278 349 278 190 c 0
EndSplineSet
EndChar

StartChar: P
Encoding: 80 80 49
Width: 660
GlyphClass: 2
Flags: MW
HStem: 0 38<40 49 49 49 49 370> 264 46<367.5 393 330 451> 646 46<442 484.5 190 498.5> 654 38<180 442>
VStem: 570 159<480 538 463.5 569>
AnchorPoint: "Anchor-3" 474 707 basechar 0
AnchorPoint: "Anchor-2" 310 0 basechar 0
LayerCount: 2
Fore
SplineSet
40 0 m 1xd8
 49 38 l 1
 94 42 l 2
 123 44 130 62 138 98 c 2
 250 594 l 2
 258 630 259 647 231 649 c 2
 180 654 l 1
 190 692 l 1xd8
 442 692 l 2xe8
 527 692 596 684 647 654 c 0
 695 626 729 576 729 500 c 0
 729 427 695 364 642 325 c 0
 580 279 480 264 393 264 c 2
 330 264 l 1
 292 98 l 2
 284 64 283 45 313 43 c 2
 378 38 l 1
 370 0 l 1
 40 0 l 1xd8
348 343 m 2
 343 323 344 310 391 310 c 0
 511 310 570 429 570 531 c 0
 570 607 533 646 464 646 c 0xe8
 420 646 414 637 407 608 c 2
 348 343 l 2
EndSplineSet
EndChar

StartChar: Q
Encoding: 81 81 50
Width: 761
GlyphClass: 2
Flags: MW
HStem: -193 43 -4 21G 661 46<439.5 566.5>
VStem: 113 165<191 269.5 139 290> 638 165<409 520 392.5 550>
AnchorPoint: "Anchor-3" 507 707 basechar 0
AnchorPoint: "Anchor-2" 322 -242 basechar 0
LayerCount: 2
Fore
SplineSet
113 264 m 0
 113 316 117 406 170 508 c 0
 224 611 326 707 507 707 c 0
 675 707 803 621 803 419 c 0
 803 366 795 274 744 176 c 0
 701 93 632 19 515 -4 c 1
 529 -31 547 -55 569 -79 c 0
 622 -136 665 -150 686 -150 c 2
 698 -150 l 1
 703 -174 l 1
 681 -186 645 -193 610 -193 c 0
 460 -193 370 -87 342 -8 c 1
 192 16 113 118 113 264 c 0
278 190 m 0
 278 88 319 31 403 31 c 0
 551 31 638 312 638 506 c 0
 638 594 611 661 522 661 c 0
 357 661 278 349 278 190 c 0
EndSplineSet
EndChar

StartChar: R
Encoding: 82 82 51
Width: 681
GlyphClass: 2
Flags: MW
HStem: 0 40 317 46<351 399 341 414> 646 46<444 471 471 501.5> 652 40
VStem: 254 153 572 159<485.5 557 475 578>
AnchorPoint: "Anchor-3" 474 707 basechar 0
AnchorPoint: "Anchor-2" 310 0 basechar 0
LayerCount: 2
Fore
SplineSet
40 0 m 1xec
 49 38 l 1
 94 42 l 2
 123 44 130 62 138 98 c 2
 249 594 l 2
 257 630 258 647 230 649 c 2
 179 654 l 1
 189 692 l 1xdc
 471 692 l 2
 550 692 620 681 661 657 c 0
 706 630 731 587 731 527 c 0
 731 423 644 351 519 343 c 1
 519 341 l 1
 621 317 624 254 621 174 c 1
 618 122 626 90 640 66 c 0
 651 48 675 41 701 38 c 1
 692 0 l 1
 596 0 l 2
 529 0 486 27 475 83 c 1
 463 151 478 229 471 264 c 0
 463 302 448 317 399 317 c 2
 341 317 l 1
 292 98 l 2
 284 62 283 45 311 42 c 2
 361 38 l 1
 352 0 l 1
 40 0 l 1xec
351 363 m 1
 414 363 l 2
 493 363 572 428 572 543 c 0
 572 613 535 646 468 646 c 0xec
 420 646 413 635 407 610 c 2
 351 363 l 1
EndSplineSet
EndChar

StartChar: S
Encoding: 83 83 52
Width: 551
GlyphClass: 2
Flags: MW
HStem: -15 46<260.5 300> 492 21G<533 571 533 533> 661 46<371.5 439.5 312 443.5>
VStem: 89 37<247 247> 157 140<523.5 540> 418 145<147.5 184.5> 533 38<492 492>
AnchorPoint: "Anchor-3" 412 707 basechar 0
AnchorPoint: "Anchor-2" 303 0 basechar 0
LayerCount: 2
Fore
SplineSet
66 70 m 1xfc
 89 247 l 1
 126 247 l 1
 140 105 221 31 298 31 c 0
 378 31 418 85 418 151 c 0xfc
 418 218 374 265 315 299 c 0
 225 351 157 406 157 497 c 0
 157 583 212 707 412 707 c 0
 467 707 552 695 605 653 c 1
 571 492 l 1
 533 492 l 1xfa
 530 608 479 661 408 661 c 0
 335 661 297 606 297 553 c 0
 297 494 351 455 412 420 c 0
 512 364 563 302 563 210 c 0
 563 85 481 -13 300 -15 c 0
 221 -15 118 8 66 70 c 1xfc
EndSplineSet
EndChar

StartChar: T
Encoding: 84 84 53
Width: 616
GlyphClass: 2
Flags: MW
HStem: 0 40 646 46<293 326 326 378 532 580 532 532>
VStem: 126 631<501 692>
AnchorPoint: "Anchor-3" 470 707 basechar 0
AnchorPoint: "Anchor-2" 307 0 basechar 0
LayerCount: 2
Fore
SplineSet
126 501 m 1
 169 692 l 1
 757 692 l 1
 714 501 l 1
 676 501 l 1
 673 562 l 2
 670 614 646 646 580 646 c 2
 532 646 l 1
 408 98 l 2
 400 62 399 45 427 43 c 2
 491 38 l 1
 482 0 l 1
 142 0 l 1
 151 38 l 1
 210 42 l 2
 239 44 246 62 254 98 c 2
 378 646 l 1
 326 646 l 2
 260 646 222 615 195 562 c 2
 164 501 l 1
 126 501 l 1
EndSplineSet
EndChar

StartChar: U
Encoding: 85 85 54
Width: 776
GlyphClass: 2
Flags: MW
HStem: -15 46<367.5 441.5> 652 40
VStem: 150 152
AnchorPoint: "Anchor-3" 548 707 basechar 0
AnchorPoint: "Anchor-2" 405 0 basechar 0
AnchorPoint: "Anchor-1" 405 0 basechar 0
LayerCount: 2
Fore
SplineSet
159 241 m 2
 238 594 l 2
 246 630 247 647 219 649 c 2
 168 654 l 1
 178 692 l 1
 490 692 l 1
 480 654 l 1
 436 650 l 2
 407 648 400 630 392 594 c 2
 312 233 l 2
 279 82 328 31 407 31 c 0
 495 31 541 104 575 258 c 2
 650 594 l 2
 658 630 659 647 631 649 c 2
 580 654 l 1
 590 692 l 1
 902 692 l 1
 892 654 l 1
 848 650 l 2
 819 648 812 630 804 594 c 2
 726 253 l 2
 701 142 662 74 612 38 c 0
 557 -1 481 -15 402 -15 c 0
 306 -15 227 9 185 55 c 0
 148 97 141 161 159 241 c 2
EndSplineSet
EndChar

StartChar: V
Encoding: 86 86 55
Width: 630
GlyphClass: 2
Flags: MW
HStem: 0 21G<259 379 259 259> 652 40
VStem: 127 691<654 692>
AnchorPoint: "Anchor-3" 479 707 basechar 0
AnchorPoint: "Anchor-2" 319 0 basechar 0
LayerCount: 2
Fore
SplineSet
127 654 m 1
 134 692 l 1
 426 692 l 1
 419 654 l 1
 359 648 l 2
 340 646 338 633 340 617 c 0
 342 597 362 399 364 377 c 2
 390 136 l 1
 392 136 l 1
 424 190 487 309 515 361 c 0
 571 467 618 557 645 616 c 0
 654 636 651 648 632 650 c 2
 576 654 l 1
 584 692 l 1
 818 692 l 1
 811 654 l 1
 774 650 l 2
 751 647 737 628 717 598 c 0
 677 538 622 439 563 333 c 2
 379 0 l 1
 259 0 l 1
 226 310 l 2
 213 438 199 539 191 604 c 0
 187 634 180 647 161 650 c 2
 127 654 l 1
EndSplineSet
EndChar

StartChar: W
Encoding: 87 87 56
Width: 920
GlyphClass: 2
Flags: MW
HStem: 0 21G<212 335 212 212 590 713 590 590> 0 146<212 345 212 345> 652 40 656 20G<576 688 688 688>
VStem: 201 133
AnchorPoint: "Anchor-3" 617 707 basechar 0
AnchorPoint: "Anchor-2" 454 0 basechar 0
LayerCount: 2
Fore
SplineSet
115 654 m 1xa8
 122 692 l 1
 410 692 l 1xa8
 403 654 l 1
 348 649 l 2
 329 647 327 634 328 615 c 2
 340 146 l 1
 345 146 l 1
 576 676 l 1
 688 676 l 1
 719 146 l 1
 724 146 l 1x58
 751 204 805 325 827 374 c 0
 867 463 899 539 924 605 c 0
 934 632 934 647 912 649 c 2
 859 654 l 1
 866 692 l 1
 1097 692 l 1
 1090 654 l 1
 1062 651 l 2
 1031 648 1017 634 994 588 c 0
 960 517 910 419 862 316 c 2
 713 0 l 1
 590 0 l 1
 562 497 l 1
 557 497 l 1
 335 0 l 1
 212 0 l 1
 190 398 l 2
 187 456 181 561 177 610 c 0
 175 638 171 648 155 650 c 2
 115 654 l 1xa8
EndSplineSet
EndChar

StartChar: X
Encoding: 88 88 57
Width: 630
GlyphClass: 2
Flags: MW
HStem: 0 40 652 40<740 740>
VStem: -21 800<0 692>
AnchorPoint: "Anchor-3" 486 707 basechar 0
AnchorPoint: "Anchor-2" 323 0 basechar 0
LayerCount: 2
Fore
SplineSet
-21 0 m 1
 -14 38 l 1
 21 42 l 2
 50 45 78 59 104 86 c 0
 159 141 253 249 324 334 c 1
 286 426 248 527 209 614 c 0
 198 638 184 648 167 650 c 2
 124 654 l 1
 134 692 l 1
 441 692 l 1
 434 654 l 1
 383 647 l 2
 364 645 362 634 370 614 c 2
 434 450 l 1
 437 450 l 1
 485 508 539 571 576 620 c 0
 588 636 587 648 571 650 c 2
 524 654 l 1
 533 692 l 1
 779 692 l 1
 770 654 l 1
 740 652 l 2
 708 650 686 636 664 615 c 0
 607 564 520 473 457 399 c 1
 502 297 543 184 584 91 c 0
 598 60 613 45 641 42 c 2
 679 38 l 1
 672 0 l 1
 344 0 l 1
 352 38 l 1
 406 44 l 2
 426 46 435 58 428 76 c 2
 348 277 l 1
 346 277 l 1
 291 209 232 134 189 74 c 0
 177 56 178 44 193 43 c 2
 255 38 l 1
 247 0 l 1
 -21 0 l 1
EndSplineSet
EndChar

StartChar: Y
Encoding: 89 89 58
Width: 622
GlyphClass: 2
Flags: MW
HStem: 0 38<152 152 152 482 143 152> 654 38<428 428 793 793>
AnchorPoint: "Anchor-3" 467 707 basechar 0
AnchorPoint: "Anchor-2" 304 0 basechar 0
LayerCount: 2
Fore
SplineSet
127 656 m 1
 135 692 l 1
 436 692 l 1
 428 654 l 1
 373 648 l 2
 353 646 352 636 356 619 c 2
 426 347 l 1
 428 347 l 1
 492 438 576 565 606 615 c 0
 618 635 615 647 593 649 c 2
 540 654 l 1
 548 692 l 1
 800 692 l 1
 793 654 l 1
 764 651 l 2
 727 647 715 633 688 603 c 0
 638 547 543 420 477 323 c 0
 459 297 449 278 443 251 c 2
 408 98 l 2
 400 62 399 45 427 43 c 2
 491 38 l 1
 482 0 l 1
 143 0 l 1
 152 38 l 1
 211 42 l 2
 240 44 247 62 255 98 c 2
 287 246 l 2
 293 273 290 292 285 311 c 0
 260 414 231 516 202 609 c 0
 192 642 183 651 161 653 c 2
 127 656 l 1
EndSplineSet
EndChar

StartChar: Z
Encoding: 90 90 59
Width: 618
GlyphClass: 2
Flags: MW
HStem: 0 46<211 409 409 447.5 211 596> 646 46<355 399 399 540> 673 19<207 749>
VStem: 5 744<20 673>
AnchorPoint: "Anchor-3" 467 707 basechar 0
AnchorPoint: "Anchor-2" 304 0 basechar 0
LayerCount: 2
Fore
SplineSet
5 20 m 1xb0
 185 228 363 436 540 646 c 1
 399 646 l 2xd0
 311 646 260 625 227 552 c 2
 206 505 l 1
 168 505 l 1
 207 692 l 1
 741 692 l 1
 749 673 l 1
 568 465 389 256 211 46 c 1
 409 46 l 2
 486 46 534 69 585 154 c 2
 617 208 l 1
 655 208 l 1
 596 0 l 1
 12 0 l 1
 5 20 l 1xb0
EndSplineSet
EndChar

StartChar: bracketleft
Encoding: 91 91 60
Width: 350
GlyphClass: 2
Flags: MW
HStem: -128 38 654 38
VStem: 91 372
LayerCount: 2
Fore
SplineSet
91 -128 m 1
 277 692 l 1
 463 692 l 1
 455 658 l 1
 393 651 l 2
 365 648 359 633 352 604 c 2
 207 -40 l 2
 200 -69 202 -84 227 -87 c 2
 285 -94 l 1
 277 -128 l 1
 91 -128 l 1
EndSplineSet
EndChar

StartChar: backslash
Encoding: 92 92 61
Width: 460
GlyphClass: 2
Flags: MW
HStem: -15 21G<360 460 360 360> 687 20G<149 249 249 249>
VStem: 149 311
LayerCount: 2
Fore
SplineSet
149 707 m 1
 249 707 l 1
 460 -15 l 1
 360 -15 l 1
 149 707 l 1
EndSplineSet
Substitution2: "'ss01' Style Set 1 lookup 9 subtable" backslash.alt
EndChar

StartChar: bracketright
Encoding: 93 93 62
Width: 350
GlyphClass: 2
Flags: MW
HStem: -128 38 654 38
VStem: 13 372
LayerCount: 2
Fore
SplineSet
13 -128 m 1
 21 -94 l 1
 83 -87 l 2
 111 -84 117 -69 124 -40 c 2
 269 604 l 2
 276 633 274 648 249 651 c 2
 191 658 l 1
 199 692 l 1
 385 692 l 1
 199 -128 l 1
 13 -128 l 1
EndSplineSet
EndChar

StartChar: asciicircum
Encoding: 94 94 63
Width: 600
GlyphClass: 2
Flags: MW
HStem: 648 20G<311 410 410 410>
LayerCount: 2
Fore
SplineSet
114 215 m 1
 311 668 l 1
 410 668 l 1
 602 215 l 1
 498 215 l 1
 360 556 l 1
 218 215 l 1
 114 215 l 1
EndSplineSet
EndChar

StartChar: underscore
Encoding: 95 95 64
Width: 500
GlyphClass: 2
Flags: MW
HStem: -125 50<0 500 0 500>
VStem: 0 500<-125 -75 -125 -75>
LayerCount: 2
Fore
SplineSet
0 -75 m 1
 500 -75 l 1
 500 -125 l 1
 0 -125 l 1
 0 -75 l 1
EndSplineSet
EndChar

StartChar: grave
Encoding: 96 96 65
Width: 400
GlyphClass: 2
Flags: MW
HStem: 511 229<185 395>
VStem: 144 272<541 692.5>
LayerCount: 2
Fore
SplineSet
144 680 m 0
 144 705 173 740 197 740 c 0
 217 740 234 728 271 690 c 2
 416 541 l 1
 395 511 l 1
 212 614 l 2
 176 634 144 654 144 680 c 0
EndSplineSet
EndChar

StartChar: a
Encoding: 97 97 66
Width: 596
GlyphClass: 2
Flags: MW
HStem: -12 80<123.5 260> 456 46<361.5 422.5 290 427.5> 474 20G<484 621 621 621>
VStem: 61 154<101 167.5 101 173.5>
AnchorPoint: "Anchor-3" 409 502 basechar 0
AnchorPoint: "Anchor-2" 293 0 basechar 0
AnchorPoint: "Anchor-1" 451 0 basechar 0
LayerCount: 2
Fore
SplineSet
61 108 m 0xb0
 61 239 171 502 409 502 c 0xd0
 436 502 462 496 480 485 c 1
 484 494 l 1
 621 494 l 1
 520 115 l 2
 513 88 513 68 531 68 c 0
 555 68 593 121 618 165 c 1
 647 149 l 1
 605 65 543 -12 448 -12 c 0
 385 -12 362 29 386 114 c 2
 411 202 l 1
 405 202 l 1
 352 111 278 -12 159 -12 c 0
 88 -12 61 47 61 108 c 0xb0
215 115 m 0
 215 87 221 68 244 68 c 0
 276 68 315 116 364 194 c 1
 413 274 449 371 467 442 c 1
 454 451 437 456 418 456 c 0
 305 456 215 220 215 115 c 0
EndSplineSet
EndChar

StartChar: b
Encoding: 98 98 67
Width: 586
GlyphClass: 2
Flags: MW
HStem: -12 46<280.5 357.5 280.5 365.5> 0 21G<117 117> 422 80<413.5 554> 722 20G<373 373>
VStem: 473 154<354.5 383.5>
AnchorPoint: "Anchor-3" 477 742 basechar 0
AnchorPoint: "Anchor-2" 306 0 basechar 0
LayerCount: 2
Fore
SplineSet
69 5 m 1x78
 210 626 l 2
 218 662 214 674 195 676 c 2
 145 683 l 1
 150 715 l 1
 373 742 l 1
 379 736 l 1
 267 304 l 1
 272 304 l 1
 341 430 425 502 515 502 c 0
 593 502 627 449 627 375 c 0
 627 334 611 242 562 154 c 0
 513 66 434 -12 297 -12 c 0
 229 -12 181 12 154 44 c 1xb8
 117 0 l 1
 69 5 l 1x78
243 109 m 0
 243 65 259 34 302 34 c 0
 413 34 473 284 473 363 c 0
 473 404 462 422 437 422 c 0
 390 422 339 361 297 284 c 0
 266 226 243 152 243 109 c 0
EndSplineSet
EndChar

StartChar: c
Encoding: 99 99 68
Width: 456
GlyphClass: 2
Flags: MW
HStem: -12 66<270.5 271.5> 456 46<329.5 371>
VStem: 73 153<131.5 230 131.5 232.5>
AnchorPoint: "Anchor-3" 384 502 basechar 0
AnchorPoint: "Anchor-2" 237 0 basechar 0
LayerCount: 2
Fore
SplineSet
73 155 m 0
 73 310 179 502 384 502 c 0
 476 502 533 462 533 405 c 0
 533 369 481 342 446 342 c 0
 419 342 411 364 405 389 c 0
 392 442 381 456 361 456 c 0
 298 456 226 298 226 162 c 0
 226 101 244 54 297 54 c 0
 363 54 410 119 448 180 c 1
 478 159 l 1
 406 16 309 -12 234 -12 c 0
 146 -12 73 34 73 155 c 0
EndSplineSet
EndChar

StartChar: d
Encoding: 100 100 69
Width: 609
GlyphClass: 2
Flags: MW
HStem: -13 81 456 46<361.5 419.5 284.5 432> 684 31<454 461> 722 20G<679 679>
VStem: 64 154<108 173 108 179>
AnchorPoint: "Anchor-3" 444 742 basechar 0
AnchorPoint: "Anchor-2" 330 0 basechar 0
LayerCount: 2
Fore
SplineSet
64 120 m 0
 64 238 166 502 403 502 c 0
 436 502 464 496 483 485 c 1
 485 486 l 1
 520 635 l 2
 526 662 523 674 505 677 c 2
 454 684 l 1
 461 715 l 1
 679 742 l 1
 686 736 l 1
 540 115 l 2
 533 88 533 68 552 68 c 0
 574 68 612 121 637 166 c 1
 666 152 l 1
 626 65 562 -13 470 -13 c 0
 406 -13 378 21 400 103 c 2
 430 211 l 1
 426 212 l 1
 369 111 298 -12 171 -12 c 0
 87 -12 64 55 64 120 c 0
218 126 m 0
 218 90 230 68 256 68 c 0
 323 68 434 256 474 440 c 1
 462 450 443 456 421 456 c 0
 302 456 218 220 218 126 c 0
EndSplineSet
EndChar

StartChar: e
Encoding: 101 101 70
Width: 476
GlyphClass: 2
Flags: MW
HStem: -12 66<270.5 279.5> 456 46<337.5 379>
VStem: 73 149<136 163 163 187 136 199.5> 404 128<373 421.5 370.5 426>
AnchorPoint: "Anchor-3" 384 502 basechar 0
AnchorPoint: "Anchor-2" 239 0 basechar 0
AnchorPoint: "Anchor-1" 239 0 basechar 0
LayerCount: 2
Fore
SplineSet
73 161 m 0
 73 238 100 320 154 388 c 0
 208 456 285 502 384 502 c 0
 469 502 532 457 532 386 c 0
 532 355 525 322 486 286 c 1
 443 248 372 216 222 187 c 1
 222 163 l 2
 222 109 241 54 300 54 c 0
 360 54 407 100 460 176 c 1
 490 152 l 1
 417 20 323 -12 236 -12 c 0
 164 -12 73 23 73 161 c 0
226 232 m 1
 342 255 404 334 404 412 c 0
 404 440 391 456 367 456 c 0
 308 456 240 347 226 232 c 1
EndSplineSet
EndChar

StartChar: f
Encoding: 102 102 71
Width: 348
GlyphClass: 2
Flags: MW
HStem: -242 46<47 56 47 84.5> 442 48<119 194 105 205 351 467> 696 46<414 429.5>
VStem: -94 682
AnchorPoint: "Anchor-3" 435 742 basechar 0
AnchorPoint: "Anchor-2" 40 -242 basechar 0
LayerCount: 2
Fore
SplineSet
-94 -168 m 0
 -94 -137 -66 -109 -34 -109 c 0
 -12 -109 -4 -125 5 -140 c 0
 29 -182 42 -196 52 -196 c 0
 60 -196 67 -187 71 -169 c 2
 194 442 l 1
 105 442 l 1
 119 490 l 1
 205 490 l 1
 212 516 l 2
 243 631 299 742 445 742 c 0
 531 742 588 700 588 654 c 0
 588 618 550 594 519 594 c 0
 495 594 485 608 477 624 c 0
 450 682 437 696 422 696 c 0
 406 696 396 678 386 636 c 2
 351 490 l 1
 479 490 l 1
 467 442 l 1
 342 442 l 1
 245 28 l 2
 203 -151 143 -242 26 -242 c 0
 -51 -242 -94 -210 -94 -168 c 0
EndSplineSet
EndChar

StartChar: g
Encoding: 103 103 72
Width: 522
GlyphClass: 2
Flags: MW
HStem: -242 46<252 310.5 252 340.5> 177 46<305 315> 456 46<326.5 372>
VStem: 21 137<-93 -64.5> 106 152 398 127 418 136<297.5 395>
AnchorPoint: "Anchor-3" 378 502 basechar 0
AnchorPoint: "Anchor-2" 260 -242 basechar 0
LayerCount: 2
Fore
SplineSet
21 -105 m 1xf4
 21 -24 110 9 179 18 c 1
 179 20 l 1
 122 38 88 68 88 100 c 0
 88 134 121 157 162 174 c 0
 172 178 191 185 202 189 c 1
 202 191 l 1
 160 204 107 243 106 313 c 0
 104 390 160 502 355 502 c 0
 406 502 461 489 494 472 c 1
 638 512 l 1
 644 503 l 1
 613 428 l 1
 537 416 l 1
 547 401 554 379 554 352 c 0xea
 554 243 456 178 315 177 c 0
 295 177 280 177 255 179 c 1
 238 173 223 164 223 147 c 0
 224 124 251 116 345 94 c 0
 448 70 525 23 525 -70 c 0
 525 -186 421 -242 260 -242 c 0
 116 -242 23 -186 21 -105 c 1xf4
158 -93 m 0xf4
 159 -162 220 -196 284 -196 c 0
 337 -196 399 -169 398 -105 c 0
 396 -27 292 -9 233 0 c 1
 210 -4 158 -29 158 -93 c 0xf4
258 291 m 0xea
 258 252 276 223 316 223 c 0
 344 223 369 240 387 271 c 0
 406 304 418 349 418 395 c 1
 416 443 385 456 359 456 c 0
 294 456 258 361 258 291 c 0xea
EndSplineSet
EndChar

StartChar: h
Encoding: 104 104 73
Width: 629
GlyphClass: 2
Flags: MW
HStem: -12 80<438 562.5> 422 80<428.5 575.5> 722 20G<385 385>
VStem: 391 144 478 145
AnchorPoint: "Anchor-3" 473 742 basechar 0
AnchorPoint: "Anchor-2" 302 0 basechar 0
LayerCount: 2
Fore
SplineSet
79 -12 m 1xe0
 222 633 l 2
 229 662 225 674 206 676 c 2
 148 683 l 1
 156 715 l 1
 385 742 l 1
 390 737 l 1
 283 295 l 1
 288 295 l 1
 342 397 431 502 536 502 c 0
 615 502 641 439 612 347 c 2
 540 115 l 2
 532 87 532 68 551 68 c 0
 574 68 612 121 637 167 c 1
 666 152 l 1
 626 65 565 -12 470 -12 c 0
 406 -12 375 30 399 113 c 2
 473 364 l 1
 485 401 475 422 453 422 c 0
 404 422 322 314 283 213 c 0
 260 156 245 102 218 0 c 1
 79 -12 l 1xe0
EndSplineSet
EndChar

StartChar: i
Encoding: 105 105 74
Width: 339
GlyphClass: 2
Flags: MW
HStem: -12 80<144.5 273.5> 440 33<110 118> 482 20<348 348> 559 161<282.5 331.5>
VStem: 225 167<619.5 653.5>
AnchorPoint: "Anchor-3" 320 700 basechar 0
AnchorPoint: "Anchor-2" 159 0 basechar 0
AnchorPoint: "Anchor-1" 181 0 basechar 0
LayerCount: 2
Fore
SplineSet
225 632 m 0
 225 675 253 720 312 720 c 0
 356 720 392 696 392 647 c 0
 392 592 357 559 306 559 c 0
 258 559 225 587 225 632 c 0
108 107 m 2
 185 392 l 2
 192 419 188 432 168 434 c 2
 110 440 l 1
 118 473 l 1
 348 502 l 1
 354 496 l 1
 251 115 l 2
 244 89 243 68 262 68 c 0
 285 68 323 121 348 166 c 1
 378 149 l 1
 336 65 275 -12 178 -12 c 0
 111 -12 87 30 108 107 c 2
EndSplineSet
EndChar

StartChar: j
Encoding: 106 106 75
Width: 333
GlyphClass: 2
Flags: MW
HStem: -242 46<54.5 63 54.5 64> 440 33<121 128> 482 20<360 360> 559 161<289.5 338.5>
VStem: 232 167<619.5 653.5>
AnchorPoint: "Anchor-2" 62 -242 basechar 0
LayerCount: 2
Fore
SplineSet
232 632 m 0
 232 675 260 720 319 720 c 0
 363 720 399 696 399 647 c 0
 399 592 364 559 313 559 c 0
 265 559 232 587 232 632 c 0
-85 -174 m 0
 -85 -147 -54 -114 -25 -114 c 0
 -6 -114 4 -132 14 -147 c 0
 39 -185 50 -196 59 -196 c 0
 67 -196 72 -189 78 -162 c 2
 200 391 l 2
 206 418 204 432 185 434 c 2
 121 440 l 1
 128 473 l 1
 360 502 l 1
 367 497 l 1
 252 -5 l 2
 230 -99 204 -163 161 -201 c 0
 129 -228 87 -242 41 -242 c 0
 -45 -242 -85 -210 -85 -174 c 0
EndSplineSet
EndChar

StartChar: k
Encoding: 107 107 76
Width: 570
GlyphClass: 2
Flags: MW
HStem: -12 80<417 518.5> 404 98<478.5 597.5> 683 32<148 159> 722 20G<383 383>
AnchorPoint: "Anchor-3" 457 742 basechar 0
AnchorPoint: "Anchor-2" 286 0 basechar 0
LayerCount: 2
Fore
SplineSet
74 -12 m 1
 222 633 l 2
 229 662 225 674 206 676 c 2
 148 683 l 1
 159 715 l 1
 383 742 l 1
 388 737 l 1
 216 0 l 1
 74 -12 l 1
285 254 m 1
 300 278 318 299 335 318 c 0
 407 400 499 502 577 502 c 0
 618 502 639 473 639 443 c 0
 639 401 615 365 578 365 c 0
 560 365 547 373 533 383 c 0
 512 399 501 404 489 404 c 0
 468 404 432 370 399 332 c 1
 416 264 446 173 468 117 c 0
 480 86 493 68 509 68 c 0
 528 68 552 102 582 153 c 1
 613 137 l 1
 574 45 521 -12 445 -12 c 0
 389 -12 358 22 337 79 c 0
 316 134 296 207 285 254 c 1
EndSplineSet
EndChar

StartChar: l
Encoding: 108 108 77
Width: 327
GlyphClass: 2
Flags: MW
HStem: -12 80<142 266> 722 20G<389 389>
VStem: 97 144
AnchorPoint: "Anchor-3" 320 742 basechar 0
AnchorPoint: "Anchor-2" 149 0 basechar 0
LayerCount: 2
Fore
SplineSet
104 115 m 2
 229 633 l 2
 236 662 232 674 213 676 c 2
 155 683 l 1
 162 715 l 1
 389 742 l 1
 395 737 l 1
 244 115 l 2
 238 88 237 68 255 68 c 0
 277 68 316 118 342 166 c 1
 373 148 l 1
 332 65 271 -12 176 -12 c 0
 108 -12 84 32 104 115 c 2
EndSplineSet
EndChar

StartChar: m
Encoding: 109 109 78
Width: 914
GlyphClass: 2
Flags: MW
HStem: -12 80<724.5 850> 422 80 440 33<109 116>
AnchorPoint: "Anchor-3" 565 502 basechar 0
AnchorPoint: "Anchor-2" 450 0 basechar 0
LayerCount: 2
Fore
SplineSet
81 -12 m 1xc0
 182 391 l 2
 189 418 186 432 167 434 c 2
 109 440 l 1
 116 473 l 1xa0
 344 502 l 1
 349 496 l 1
 285 283 l 1
 290 283 l 1
 352 401 446 502 535 502 c 0
 614 502 621 439 596 356 c 2
 575 284 l 1
 580 283 l 1
 642 402 731 502 830 502 c 0
 909 502 925 435 901 357 c 2
 828 115 l 1
 819 89 819 68 838 68 c 0
 862 68 900 121 925 166 c 1
 952 148 l 1
 912 65 852 -12 754 -12 c 0
 695 -12 666 29 687 107 c 1
 763 364 l 2
 773 398 772 422 745 422 c 0
 698 422 609 289 578 214 c 0
 555 156 536 102 508 0 c 1
 370 -12 l 1
 475 374 l 2
 484 409 479 422 455 422 c 0
 408 422 318 287 288 212 c 0
 266 156 248 102 219 0 c 1
 81 -12 l 1xc0
EndSplineSet
EndChar

StartChar: n
Encoding: 110 110 79
Width: 635
GlyphClass: 2
Flags: MW
HStem: -12 80<442.5 571> 422 80 440 33<108 116>
AnchorPoint: "Anchor-3" 426 502 basechar 0
AnchorPoint: "Anchor-2" 311 0 basechar 0
LayerCount: 2
Fore
SplineSet
80 -12 m 1xc0
 183 391 l 1
 191 418 187 432 168 434 c 2
 108 440 l 1
 116 473 l 1xa0
 349 502 l 1
 354 497 l 1
 286 280 l 1
 292 280 l 1
 354 396 445 502 548 502 c 0
 632 502 646 436 623 357 c 1
 548 115 l 2
 540 89 541 68 559 68 c 0
 583 68 621 121 645 166 c 1
 674 148 l 1
 633 64 573 -12 473 -12 c 0
 412 -12 383 30 405 107 c 2
 481 363 l 2
 490 393 492 422 461 422 c 0
 413 422 323 288 293 213 c 0
 270 155 250 102 221 0 c 1
 80 -12 l 1xc0
EndSplineSet
EndChar

StartChar: o
Encoding: 111 111 80
Width: 562
GlyphClass: 2
Flags: MW
HStem: -12 46<263.5 334.5 263.5 347> 456 46<365.5 412.5>
VStem: 77 145<120 140.5 82 196.5> 446 145<337 385 285.5 395>
AnchorPoint: "Anchor-3" 381 502 basechar 0
AnchorPoint: "Anchor-2" 287 0 basechar 0
AnchorPoint: "Anchor-1" 287 0 basechar 0
LayerCount: 2
Fore
SplineSet
77 174 m 0
 77 219 90 300 136 371 c 0
 181 441 252 502 381 502 c 0
 484 502 591 462 591 308 c 0
 591 263 575 188 529 115 c 0
 482 40 410 -12 284 -12 c 0
 139 -12 77 66 77 174 c 0
222 107 m 0
 222 57 245 34 282 34 c 0
 387 34 446 300 446 374 c 0
 446 416 436 456 389 456 c 0
 342 456 305 408 274 339 c 0
 242 266 222 174 222 107 c 0
EndSplineSet
EndChar

StartChar: p
Encoding: 112 112 81
Width: 606
GlyphClass: 2
Flags: MW
HStem: -242 21G<35 35> -12 46<313 375.5 302.5 458.5> 422 80 440 33<99 106>
VStem: 494 154<330 385>
AnchorPoint: "Anchor-3" 442 502 basechar 0
AnchorPoint: "Anchor-2" 270 -242 basechar 0
LayerCount: 2
Fore
SplineSet
35 -242 m 1xe8
 173 391 l 2
 179 417 177 432 158 434 c 2
 99 440 l 1
 106 473 l 1xd8
 335 502 l 1
 340 497 l 1
 283 286 l 1
 287 286 l 1
 364 429 449 502 536 502 c 0
 612 502 648 452 648 374 c 0
 648 286 578 -12 339 -12 c 0
 287 -12 252 -3 232 9 c 1
 175 -230 l 1
 35 -242 l 1xe8
243 64 m 1
 261 46 287 34 318 34 c 0
 433 34 494 284 494 367 c 0
 494 403 483 422 457 422 c 0xe8
 418 422 366 364 321 283 c 0
 285 217 255 117 243 64 c 1
EndSplineSet
EndChar

StartChar: q
Encoding: 113 113 82
Width: 584
GlyphClass: 2
Flags: MW
HStem: -242 21G -12 80<143 266.5> 456 46<363 440.5>
VStem: 64 154
AnchorPoint: "Anchor-3" 391 502 basechar 0
AnchorPoint: "Anchor-2" 220 -242 basechar 0
LayerCount: 2
Fore
SplineSet
64 98 m 0
 60 237 162 502 419 502 c 0
 474 502 515 491 543 479 c 1
 583 513 l 1
 639 513 l 1
 465 -221 l 1
 320 -242 l 1
 418 190 l 1
 415 190 l 1
 340 64 259 -12 171 -12 c 0
 115 -12 67 21 64 98 c 0
218 122 m 0
 218 95 224 68 252 68 c 0
 281 68 311 92 360 161 c 0
 412 234 458 335 483 442 c 1
 469 451 450 456 431 456 c 0
 295 456 218 217 218 122 c 0
EndSplineSet
EndChar

StartChar: r
Encoding: 114 114 83
Width: 440
GlyphClass: 2
Flags: MW
HStem: -12 21G<86 86> 357 145<455 484> 477 20G<330 330>
VStem: 86 446<-12 463>
AnchorPoint: "Anchor-3" 400 502 basechar 0
AnchorPoint: "Anchor-2" 89 0 basechar 0
LayerCount: 2
Fore
SplineSet
86 -12 m 1xd0
 179 391 l 2
 185 418 183 432 164 434 c 2
 105 440 l 1
 112 473 l 1
 325 502 l 1xd0
 330 497 l 1xb0
 293 352 l 1
 298 352 l 1
 348 443 409 502 470 502 c 0
 508 502 532 483 532 443 c 0
 532 404 504 357 464 357 c 0
 446 357 430 366 416 376 c 0
 403 385 390 392 378 392 c 0
 346 392 312 322 281 213 c 0
 262 146 244 65 226 0 c 1
 86 -12 l 1xd0
EndSplineSet
EndChar

StartChar: s
Encoding: 115 115 84
Width: 417
GlyphClass: 2
Flags: MW
HStem: -12 46<235.5 266 235.5 293.5> 456 46<275 301>
VStem: 127 114 303 114<70.5 178>
AnchorPoint: "Anchor-3" 309 502 basechar 0
AnchorPoint: "Anchor-2" 228 0 basechar 0
LayerCount: 2
Fore
SplineSet
45 89 m 0
 45 126 81 158 111 158 c 0
 134 158 147 144 155 128 c 0
 192 54 220 34 251 34 c 0
 281 34 303 55 303 86 c 1
 300 131 259 168 217 202 c 0
 175 236 130 281 127 340 c 0
 123 424 188 502 309 502 c 0
 422 502 467 448 467 415 c 0
 467 375 428 356 401 356 c 0
 383 356 372 362 362 382 c 0
 334 436 314 456 288 456 c 0
 262 456 240 435 241 404 c 0
 243 366 270 337 326 295 c 0
 371 261 417 211 417 145 c 0
 417 62 362 -12 225 -12 c 0
 100 -12 45 45 45 89 c 0
EndSplineSet
EndChar

StartChar: t
Encoding: 116 116 85
Width: 359
GlyphClass: 2
Flags: MW
HStem: -12 80<152 279.5> 442 48<122 193 110 203 343 451>
VStem: 103 145
AnchorPoint: "Anchor-3" 305 641 basechar 0
AnchorPoint: "Anchor-2" 170 0 basechar 0
LayerCount: 2
Fore
SplineSet
109 111 m 2
 193 442 l 1
 110 442 l 1
 122 490 l 1
 203 490 l 1
 223 564 l 1
 374 641 l 1
 387 633 l 1
 343 490 l 1
 463 490 l 1
 451 442 l 1
 333 442 l 1
 251 111 l 2
 246 89 245 68 265 68 c 0
 294 68 334 116 364 166 c 1
 392 147 l 1
 344 56 274 -12 181 -12 c 0
 123 -12 87 24 109 111 c 2
EndSplineSet
EndChar

StartChar: u
Encoding: 117 117 86
Width: 634
GlyphClass: 2
Flags: MW
HStem: -12 80<143 301.5> 443 59
AnchorPoint: "Anchor-3" 424 502 basechar 0
AnchorPoint: "Anchor-2" 308 0 basechar 0
AnchorPoint: "Anchor-1" 482 0 basechar 0
LayerCount: 2
Fore
SplineSet
109 443 m 1
 117 476 l 1
 348 502 l 1
 353 497 l 1
 259 128 l 2
 249 91 250 68 278 68 c 0
 325 68 407 199 443 285 c 0
 465 335 481 388 510 490 c 1
 652 502 l 1
 551 115 l 1
 543 89 544 68 563 68 c 0
 586 68 623 121 649 166 c 1
 678 148 l 1
 637 65 576 -12 479 -12 c 0
 425 -12 397 28 415 96 c 2
 446 210 l 1
 442 210 l 1
 379 94 296 -12 183 -12 c 0
 103 -12 95 53 116 133 c 2
 183 391 l 2
 191 421 187 435 168 437 c 2
 109 443 l 1
EndSplineSet
EndChar

StartChar: v
Encoding: 118 118 87
Width: 518
GlyphClass: 2
Flags: MW
HStem: -12 80<166.5 291> 477 20G<341 341> 482 20G<336 336 533 555>
VStem: 110 145 456 126<355 445.5>
AnchorPoint: "Anchor-3" 437 502 basechar 0
AnchorPoint: "Anchor-2" 208 0 basechar 0
LayerCount: 2
Fore
SplineSet
103 443 m 1xb8
 110 476 l 1
 336 502 l 1xb8
 341 497 l 1xd8
 258 137 l 2
 248 94 260 68 291 68 c 0
 359 67 448 209 456 355 c 1
 456 407 454 446 444 481 c 1
 477 494 515 502 551 502 c 0
 559 502 582 467 582 424 c 0
 581 362 534 253 457 157 c 0
 385 66 299 -12 205 -12 c 0
 128 -12 94 32 116 128 c 2
 177 391 l 2
 184 421 180 435 162 437 c 2
 103 443 l 1xb8
EndSplineSet
EndChar

StartChar: w
Encoding: 119 119 88
Width: 795
GlyphClass: 2
Flags: MW
HStem: -12 80<163.5 295.5> 473 20G<630 630> 477 20G<344 344> 482 20G<339 339 812.5 834>
VStem: 110 144 422 130 741 120<355 445.5>
AnchorPoint: "Anchor-3" 532 502 basechar 0
AnchorPoint: "Anchor-2" 355 0 basechar 0
LayerCount: 2
Fore
SplineSet
105 443 m 1x9e
 112 476 l 1
 339 502 l 1x9e
 344 497 l 1xae
 259 140 l 2
 246 86 261 68 284 68 c 0
 307 68 336 94 376 159 c 0
 430 249 462 361 494 487 c 1
 630 493 l 1xce
 561 185 l 2
 543 106 550 68 592 68 c 0
 656 68 735 216 741 355 c 1
 741 404 737 442 727 481 c 1
 764 494 795 502 830 502 c 0
 838 502 861 466 861 425 c 0
 860 365 818 256 747 158 c 0
 680 66 602 -12 512 -12 c 0
 448 -12 422 29 422 81 c 0
 422 117 430 156 439 195 c 1
 435 195 l 1
 372 74 286 -12 193 -12 c 0
 134 -12 93 33 116 128 c 2
 179 391 l 2
 186 422 182 435 164 437 c 2
 105 443 l 1x9e
EndSplineSet
EndChar

StartChar: x
Encoding: 120 120 89
Width: 516
GlyphClass: 2
Flags: MW
HStem: -12 80<341.5 442> -12 102<62.5 156> 399 103 421 31<103 106>
AnchorPoint: "Anchor-3" 372 502 basechar 0
AnchorPoint: "Anchor-2" 256 0 basechar 0
LayerCount: 2
Fore
SplineSet
9 50 m 0x40
 9 89 37 124 67 124 c 0
 86 124 103 111 115 103 c 0
 126 95 135 90 147 90 c 0
 165 90 191 129 223 190 c 0
 228 200 240 221 245 232 c 1
 206 393 l 2
 200 419 190 423 166 423 c 2
 106 421 l 1
 103 452 l 1x50
 313 502 l 1
 320 498 l 1
 351 352 l 1
 353 352 l 1
 363 370 383 402 399 424 c 0
 437 476 474 502 520 502 c 0
 552 502 581 484 581 445 c 0
 581 408 554 376 525 376 c 0
 510 376 494 383 483 388 c 0
 469 395 458 399 447 399 c 0
 421 399 391 350 363 301 c 1
 406 128 l 2
 417 84 425 68 442 68 c 0
 467 69 497 122 523 179 c 1
 554 164 l 1
 523 78 467 -12 372 -12 c 0xa0
 311 -12 290 37 275 102 c 2
 259 170 l 1
 256 170 l 1
 248 154 230 121 223 107 c 0
 186 40 151 -12 87 -12 c 0
 38 -12 9 15 9 50 c 0x40
EndSplineSet
EndChar

StartChar: y
Encoding: 121 121 90
Width: 489
GlyphClass: 2
Flags: MW
HStem: -242 73<48 153.5> 424 30<57 119 57 57> 482 20G<274 274 534 550>
VStem: 200 117<-29 72> 442 125
AnchorPoint: "Anchor-3" 381 502 basechar 0
AnchorPoint: "Anchor-2" 67 -242 basechar 0
LayerCount: 2
Fore
SplineSet
-14 -180 m 1
 -16 -141 18 -100 54 -99 c 0
 76 -99 85 -110 101 -132 c 0
 116 -154 131 -169 145 -169 c 0
 162 -169 177 -152 189 -112 c 0
 198 -82 200 -48 200 -10 c 0
 200 86 171 285 156 363 c 0
 148 408 141 425 119 424 c 1
 57 424 l 1
 57 454 l 1
 274 502 l 1
 282 498 l 1
 297 444 316 222 317 72 c 1
 320 72 l 1
 377 175 420 271 433 339 c 0
 441 381 443 442 442 477 c 1
 482 495 522 502 546 502 c 0
 554 502 567 472 567 448 c 0
 567 406 508 309 450 213 c 0
 389 113 332 5 311 -29 c 0
 229 -163 180 -242 77 -242 c 0
 19 -242 -14 -211 -14 -180 c 1
EndSplineSet
EndChar

StartChar: z
Encoding: 122 122 91
Width: 466
GlyphClass: 2
Flags: MW
HStem: -12 117<367 406 367 419.5> 396 94<197 225 225 370> 474 16<170 541>
VStem: 18 105<20 20 20 29> 18 523<11.5 474>
AnchorPoint: "Anchor-3" 356 502 basechar 0
AnchorPoint: "Anchor-2" 240 0 basechar 0
LayerCount: 2
Fore
SplineSet
18 19 m 0xa8
 18 39 32 63 45 78 c 0
 147 189 263 295 370 394 c 1
 370 396 l 1
 225 396 l 2xc8
 169 396 150 365 118 306 c 1
 93 318 l 1
 115 404 147 465 170 490 c 1
 533 490 l 1
 541 474 l 1xa8
 417 360 293 249 207 156 c 1
 207 150 l 1
 226 147 253 137 278 128 c 0
 314 116 354 105 380 105 c 0
 432 105 457 157 486 211 c 1
 515 201 l 1
 488 87 457 -12 382 -12 c 0
 339 -12 288 6 231 28 c 0
 155 58 138 68 129 68 c 0
 123 68 119 61 119 50 c 1
 123 20 l 1xb0
 124 -3 96 -12 56 -12 c 0
 25 -12 18 4 18 19 c 0xa8
EndSplineSet
EndChar

StartChar: braceleft
Encoding: 123 123 92
Width: 340
GlyphClass: 2
Flags: MW
HStem: -128 34<262 296> 265 34<132 163.5> 672 20G<431 474 474 474>
VStem: 133 97 196 102
LayerCount: 2
Fore
SplineSet
125 265 m 1xf8
 132 299 l 1
 226 299 236 340 245 411 c 2
 257 505 l 2
 267 588 289 692 431 692 c 2
 474 692 l 1
 466 658 l 1
 386 652 371 605 362 539 c 2
 352 462 l 2
 340 362 335 309 221 285 c 1
 220 279 l 1
 333 255 297 182 271 102 c 1xe8
 244 25 l 2
 221 -41 217 -88 296 -94 c 1
 289 -128 l 1
 262 -128 l 2xf0
 104 -128 125 -24 152 59 c 1
 184 153 l 1
 207 224 202 265 125 265 c 1xf8
EndSplineSet
EndChar

StartChar: bar
Encoding: 124 124 93
Width: 265
GlyphClass: 2
Flags: MW
HStem: -250 1000<152 256 152 256>
VStem: 152 104<-250 750 -250 750>
LayerCount: 2
Fore
SplineSet
152 -250 m 1
 152 750 l 1
 256 750 l 1
 256 -250 l 1
 152 -250 l 1
EndSplineSet
Substitution2: "'ss01' Style Set 1 lookup 9 subtable" bar.alt
EndChar

StartChar: braceright
Encoding: 125 125 94
Width: 340
GlyphClass: 2
Flags: MW
HStem: -128 34<-7 1 1 1 1 36> 265 34<303.5 335> 658 34<171 205>
CounterMasks: 1 e0
LayerCount: 2
Fore
SplineSet
-7 -128 m 1
 1 -94 l 1
 81 -88 96 -41 105 25 c 2
 115 102 l 2
 127 202 132 255 246 279 c 1
 247 285 l 1
 134 309 170 382 196 462 c 1
 223 539 l 2
 246 605 250 652 171 658 c 1
 178 692 l 1
 205 692 l 2
 363 692 342 588 315 505 c 1
 283 411 l 1
 260 340 265 299 342 299 c 1
 335 265 l 1
 236 265 231 224 222 153 c 2
 210 59 l 2
 200 -24 178 -128 36 -128 c 2
 -7 -128 l 1
EndSplineSet
EndChar

StartChar: asciitilde
Encoding: 126 126 95
Width: 600
GlyphClass: 2
Flags: MW
HStem: 177 89<449.5 482.5 449.5 493.5> 234 89<227 262.5>
LayerCount: 2
Fore
SplineSet
105 185 m 1x40
 129 242 168 323 260 323 c 0x40
 296 323 332 309 366 295 c 0
 400 280 434 266 465 266 c 0
 500 266 523 284 552 338 c 1
 606 310 l 1
 578 244 537 177 450 177 c 0x80
 407 177 373 191 342 206 c 1
 310 220 281 234 244 234 c 0
 210 234 185 208 161 157 c 1
 105 185 l 1x40
EndSplineSet
EndChar

StartChar: exclamdown
Encoding: 161 161 97
Width: 280
GlyphClass: 2
Flags: HMW
HStem: 324 178<212.813 255.813>
VStem: 145.313 180<392.5 432.5>
LayerCount: 2
Fore
SplineSet
39.3115 -113 m 2
 180.312 273 l 1
 235.312 273 l 1
 199.312 -113 l 2
 192.312 -183 178.312 -217 96.3115 -217 c 0
 13.3115 -217 13.3115 -183 39.3115 -113 c 2
145.312 402 m 0
 145.312 463 187.312 502 238.312 502 c 0
 298.312 502 325.312 466 325.312 423 c 0
 325.312 362 282.312 324 229.312 324 c 0
 171.312 324 145.312 361 145.312 402 c 0
EndSplineSet
EndChar

StartChar: cent
Encoding: 162 162 98
Width: 560
GlyphClass: 2
Flags: MW
HStem: 87 53<367 379> 553 46<418 428 428 471> 648 20G<443 497 497 497>
VStem: 115 145
LayerCount: 2
Fore
SplineSet
115 280 m 0
 115 339 134 418 183 484 c 0
 233 551 316 598 428 599 c 1
 443 668 l 1
 497 668 l 1
 482 597 l 1
 547 597 647 555 646 490 c 0
 645 450 603 431 572 432 c 0
 546 432 537 449 532 467 c 0
 513 530 490 554 471 553 c 1
 379 140 l 1
 439 136 503 160 558 234 c 1
 586 212 l 1
 536 125 452 88 367 87 c 1
 342 -21 l 1
 287 -21 l 1
 312 87 l 1
 215 90 115 139 115 280 c 0
260 269 m 0
 259 214 272 163 325 149 c 1
 418 553 l 1
 322 554 262 366 260 269 c 0
EndSplineSet
EndChar

StartChar: sterling
Encoding: 163 163 99
Width: 560
GlyphClass: 2
Flags: MW
HStem: 0 72<61 61 61 502 41 61> 0 113<257 441 441 459 257 502> 290 48<115 215 115 226 104 215 375 375 375 507> 633 46<390.5 429.5>
VStem: 195 138<440.5 530> 234 141 497 121
LayerCount: 2
Fore
SplineSet
31 9 m 1xb6
 61 72 l 1
 149 93 228 137 234 207 c 0xb6
 237 233 235 258 226 290 c 1
 104 290 l 1
 115 338 l 1
 215 338 l 1
 203 372 195 419 195 462 c 0
 195 562 264 679 427 679 c 0
 581 679 618 598 618 563 c 0
 617 520 571 504 544 504 c 0
 517 504 504 517 497 538 c 0
 473 603 448 633 411 633 c 0
 370 633 335 596 333 530 c 0xba
 333 503 335 473 344 434 c 0
 351 400 362 366 370 338 c 1
 516 338 l 1
 507 290 l 1
 375 290 l 1
 376 270 375 256 371 238 c 0
 361 187 312 140 258 116 c 1
 257 113 l 1
 441 113 l 2
 477 113 502 123 519 143 c 2
 539 168 l 1
 572 151 l 1
 502 0 l 1x76
 41 0 l 1
 31 9 l 1xb6
EndSplineSet
EndChar

StartChar: currency
Encoding: 164 164 100
Width: 560
GlyphClass: 2
Flags: MW
HStem: 98 89<332 376> 481 89<332 376 332 391.5>
VStem: 120 102<309.5 358.5> 486 102<309.5 358.5 309.5 375.5>
LayerCount: 2
Fore
SplineSet
114 88 m 0
 85 116 93 144 114 161 c 2
 163 200 l 1
 135 232 120 285 120 334 c 0
 120 383 135 436 163 468 c 1
 114 507 l 2
 93 524 85 552 114 580 c 0
 138 604 171 598 186 578 c 2
 224 529 l 1
 257 557 310 570 354 570 c 0
 398 570 451 557 484 529 c 1
 522 578 l 2
 537 598 570 604 594 580 c 0
 623 552 615 524 594 507 c 2
 545 468 l 1
 573 436 588 383 588 334 c 0
 588 285 573 232 545 200 c 1
 594 161 l 2
 615 144 623 116 594 88 c 0
 570 64 537 70 522 90 c 2
 484 139 l 1
 451 111 398 98 354 98 c 0
 310 98 257 111 224 139 c 1
 186 90 l 2
 171 70 138 64 114 88 c 0
222 334 m 0
 222 251 279 187 354 187 c 0
 429 187 486 251 486 334 c 0
 486 417 429 481 354 481 c 0
 279 481 222 417 222 334 c 0
EndSplineSet
EndChar

StartChar: yen
Encoding: 165 165 101
Width: 560
GlyphClass: 2
Flags: MW
HStem: 0 36<134 134 134 442 127 134> 179 48<100 259 111 249 403 556> 314 48<145 258 145 269 134 258 459 577> 632 36<138 424 415 415 703 703>
VStem: 147 564<668 668>
LayerCount: 2
Fore
SplineSet
100 179 m 1
 111 227 l 1
 259 227 l 1
 267 262 l 2
 273 286 271 301 269 314 c 1
 134 314 l 1
 145 362 l 1
 258 362 l 1
 233 469 213 544 201 589 c 0
 193 619 184 625 168 627 c 2
 138 632 l 1
 147 668 l 1
 424 668 l 1
 415 632 l 1
 368 628 l 2
 348 626 346 617 348 600 c 0
 356 542 375 454 395 361 c 1
 397 361 l 1
 457 453 526 573 540 598 c 0
 549 614 547 625 532 627 c 2
 477 632 l 1
 486 668 l 1
 711 668 l 1
 703 632 l 1
 674 629 l 2
 649 626 637 613 611 581 c 0
 597 564 527 466 459 362 c 1
 587 362 l 1
 577 314 l 1
 429 314 l 1
 425 306 416 285 411 263 c 2
 403 227 l 1
 566 227 l 1
 556 179 l 1
 392 179 l 1
 370 79 l 2
 365 58 366 43 390 41 c 2
 449 36 l 1
 442 0 l 1
 127 0 l 1
 134 36 l 1
 191 40 l 2
 213 42 222 58 227 79 c 2
 249 179 l 1
 100 179 l 1
EndSplineSet
EndChar

StartChar: brokenbar
Encoding: 166 166 102
Width: 265
GlyphClass: 2
Flags: MW
HStem: 655 20G<152 256 256 256>
VStem: 152 104<-175 175 -175 175 325 675>
LayerCount: 2
Fore
SplineSet
152 -175 m 1
 152 175 l 1
 256 175 l 1
 256 -175 l 1
 152 -175 l 1
152 325 m 1
 152 675 l 1
 256 675 l 1
 256 325 l 1
 152 325 l 1
EndSplineSet
EndChar

StartChar: section
Encoding: 167 167 103
Width: 568
GlyphClass: 2
Flags: MW
HStem: -115 46<285.5 318.5 285.5 334> 661 46<395 426.5>
VStem: 119 78<387.5 391.5> 505 81<181 307>
LayerCount: 2
Fore
SplineSet
99 -12 m 0
 99 22 126 50 165 50 c 0
 184 50 197 37 205 18 c 0
 236 -52 270 -69 301 -69 c 0
 336 -69 370 -43 370 -1 c 0
 370 46 347 88 256 145 c 0
 144 215 119 283 119 344 c 0
 119 439 177 512 258 561 c 1
 261 617 313 707 438 707 c 0
 541 707 594 662 594 620 c 0
 594 587 561 567 532 567 c 0
 513 567 505 577 494 596 c 0
 467 645 441 661 412 661 c 0
 378 661 352 636 352 600 c 0
 352 568 367 532 465 469 c 0
 557 410 586 346 586 268 c 0
 586 184 521 98 466 49 c 1
 461 -43 391 -115 277 -115 c 0
 165 -115 99 -64 99 -12 c 0
197 409 m 0
 197 366 221 315 327 247 c 0
 394 204 447 148 455 109 c 1
 476 125 505 158 505 204 c 0
 505 248 488 302 395 366 c 0
 334 408 274 454 264 506 c 1
 228 494 197 456 197 409 c 0
EndSplineSet
EndChar

StartChar: dieresis
Encoding: 168 168 104
Width: 400
GlyphClass: 2
Flags: MW
HStem: 561 149<194.5 246 434.5 486>
VStem: 141 158<616 654> 381 158<616 654>
LayerCount: 2
Fore
SplineSet
381 635 m 0
 381 673 409 710 460 710 c 0
 512 710 539 673 539 635 c 0
 539 597 512 561 460 561 c 0
 409 561 381 597 381 635 c 0
141 635 m 0
 141 673 169 710 220 710 c 0
 272 710 299 673 299 635 c 0
 299 597 272 561 220 561 c 0
 169 561 141 597 141 635 c 0
EndSplineSet
EndChar

StartChar: copyright
Encoding: 169 169 105
Width: 824
GlyphClass: 2
Flags: MW
HStem: -15 63<412.5 567.5 412.5 590.5> 151 32<484.5 535> 516 32<482.5 537.5 435 547> 644 63<412.5 567.5>
VStem: 126 83<262 430 262 446> 297 120<308 398.5 308 403> 621 27<415 519> 771 83<262 430>
LayerCount: 2
Fore
SplineSet
126 346 m 0
 126 546 289 707 490 707 c 0
 691 707 854 546 854 346 c 0
 854 146 691 -15 490 -15 c 0
 289 -15 126 146 126 346 c 0
209 346 m 0
 209 178 335 48 490 48 c 0
 645 48 771 178 771 346 c 0
 771 514 645 644 490 644 c 0
 335 644 209 514 209 346 c 0
297 348 m 0
 297 458 360 548 510 548 c 0
 565 548 616 538 648 519 c 1
 648 415 l 1
 621 415 l 1
 606 462 577 516 517 516 c 0
 448 516 417 443 417 354 c 0
 417 262 446 183 523 183 c 0
 580 183 609 238 631 290 c 1
 658 290 l 1
 647 182 l 1
 615 162 561 151 509 151 c 0
 353 151 297 236 297 348 c 0
EndSplineSet
EndChar

StartChar: ordfeminine
Encoding: 170 170 106
Width: 444
GlyphClass: 2
Flags: MW
HStem: 265 58<145 234> 556 34<302.5 341.5>
VStem: 97 110<341 381 341 382.5> 326 102
LayerCount: 2
Fore
SplineSet
97 341 m 0
 97 424 172 590 338 590 c 0
 357 590 378 586 391 579 c 1
 393 585 l 1
 497 585 l 1
 431 353 l 2
 427 338 425 323 436 323 c 0
 451 323 478 358 495 385 c 1
 517 373 l 1
 488 317 446 265 372 265 c 0
 336 265 315 291 332 348 c 2
 347 397 l 1
 343 398 l 1
 305 343 257 265 168 265 c 0
 122 265 97 298 97 341 c 0
207 350 m 0
 207 332 214 323 225 323 c 0
 243 323 265 346 293 381 c 1
 335 436 354 507 367 547 c 1
 358 554 347 556 336 556 c 0
 269 556 207 412 207 350 c 0
EndSplineSet
EndChar

StartChar: guillemotleft
Encoding: 171 171 107
Width: 560
GlyphClass: 2
Flags: MW
HStem: 37 427<269 344 344 469>
VStem: 126 124 326 124
LayerCount: 2
Fore
SplineSet
332 231 m 2
 321 246 324 256 339 270 c 2
 544 464 l 1
 568 443 l 1
 458 272 l 2
 449 257 446 246 450 232 c 2
 497 54 l 1
 469 37 l 1
 332 231 l 2
132 231 m 2
 121 246 124 256 139 270 c 2
 344 464 l 1
 368 443 l 1
 258 272 l 2
 249 257 246 246 250 232 c 2
 297 54 l 1
 269 37 l 1
 132 231 l 2
EndSplineSet
EndChar

StartChar: logicalnot
Encoding: 172 172 108
Width: 600
GlyphClass: 2
Flags: MW
HStem: 317 80<118 602 118 506>
VStem: 506 96<95 317 317 317>
LayerCount: 2
Fore
SplineSet
118 317 m 1
 118 397 l 1
 602 397 l 1
 602 95 l 1
 506 95 l 1
 506 317 l 1
 118 317 l 1
EndSplineSet
EndChar

StartChar: uni00AD
Encoding: 173 173 109
Width: 392
GlyphClass: 2
Flags: MW
HStem: 203 95<106 389 126 369>
VStem: 106 283<203 298>
LayerCount: 2
Fore
SplineSet
106 203 m 1
 126 298 l 1
 389 298 l 1
 369 203 l 1
 106 203 l 1
EndSplineSet
EndChar

StartChar: registered
Encoding: 174 174 110
Width: 824
GlyphClass: 2
Flags: MW
HStem: -15 63<412.5 567.5 412.5 590.5> 159 28 331 32<457 475 457 481> 508 32<474.5 503.5> 644 63<412.5 567.5>
VStem: 126 83<262 430 262 446> 357 100<219 331 363 481 481 488> 546 105<425 462.5> 771 83<262 430>
LayerCount: 2
Fore
SplineSet
126 346 m 0
 126 546 289 707 490 707 c 0
 691 707 854 546 854 346 c 0
 854 146 691 -15 490 -15 c 0
 289 -15 126 146 126 346 c 0
209 346 m 0
 209 178 335 48 490 48 c 0
 645 48 771 178 771 346 c 0
 771 514 645 644 490 644 c 0
 335 644 209 514 209 346 c 0
311 159 m 1
 311 185 l 1
 338 189 l 2
 354 191 357 201 357 219 c 2
 357 481 l 2
 357 498 354 508 338 510 c 2
 311 514 l 1
 311 540 l 1
 519 540 l 2
 618 540 651 500 651 448 c 0
 651 396 615 361 562 351 c 1
 562 349 l 1
 617 334 623 297 634 253 c 0
 640 228 649 205 661 196 c 0
 667 191 675 188 685 185 c 1
 685 159 l 1
 630 159 l 2
 572 159 554 174 541 204 c 0
 530 230 523 274 517 295 c 0
 511 316 502 331 475 331 c 2
 457 331 l 1
 457 219 l 2
 457 201 461 191 477 189 c 2
 504 185 l 1
 504 159 l 1
 311 159 l 1
457 363 m 1
 481 363 l 2
 506 363 521 370 531 382 c 0
 541 395 546 413 546 437 c 0
 546 488 519 508 488 508 c 0
 461 508 457 503 457 488 c 2
 457 363 l 1
EndSplineSet
EndChar

StartChar: macron
Encoding: 175 175 111
Width: 400
GlyphClass: 2
Flags: MW
HStem: 592 72<168 494 183 479>
VStem: 168 326<592 664>
LayerCount: 2
Fore
SplineSet
168 592 m 1
 183 664 l 1
 494 664 l 1
 479 592 l 1
 168 592 l 1
EndSplineSet
EndChar

StartChar: degree
Encoding: 176 176 112
Width: 375
GlyphClass: 2
Flags: MW
HStem: 360 58<269.5 318.5 269.5 340> 622 58<269.5 318.5>
VStem: 128 77<490.5 549.5 490.5 564> 383 77<490.5 549.5>
LayerCount: 2
Fore
SplineSet
128 519 m 0
 128 609 202 680 294 680 c 0
 386 680 460 609 460 519 c 0
 460 429 386 360 294 360 c 0
 202 360 128 429 128 519 c 0
205 520 m 0
 205 461 245 418 294 418 c 0
 343 418 383 461 383 520 c 0
 383 579 343 622 294 622 c 0
 245 622 205 579 205 520 c 0
EndSplineSet
EndChar

StartChar: plusminus
Encoding: 177 177 113
Width: 600
GlyphClass: 2
Flags: MW
HStem: 0 80<118 602 118 602> 298 80<118 313 118 313 409 602>
VStem: 313 96<129 298 129 298 378 549>
LayerCount: 2
Fore
SplineSet
118 298 m 1
 118 378 l 1
 313 378 l 1
 313 549 l 1
 409 549 l 1
 409 378 l 1
 602 378 l 1
 602 298 l 1
 409 298 l 1
 409 129 l 1
 313 129 l 1
 313 298 l 1
 118 298 l 1
118 0 m 1
 118 80 l 1
 602 80 l 1
 602 0 l 1
 118 0 l 1
EndSplineSet
EndChar

StartChar: twosuperior
Encoding: 178 178 114
Width: 402
GlyphClass: 2
Flags: HMW
HStem: 408 82<225 376 376 389.5 225 415> 778 38<323.5 345.5>
VStem: 363 125<707.5 731 663.5 744>
LayerCount: 2
Fore
SplineSet
94 418 m 1
 97 465 157 523 254 579 c 0
 329 623 363 685 363 730 c 0
 363 758 356 778 335 778 c 0
 312 778 287 752 262 697 c 0
 256 683 247 667 222 667 c 0
 196 667 165 687 165 715 c 0
 165 762 227 816 330 816 c 0
 449 816 488 760 488 702 c 0
 488 625 427 592 350 565 c 0
 284 542 245 517 225 490 c 1
 376 490 l 2
 403 490 414 495 434 523 c 1
 462 515 l 1
 415 408 l 1
 104 408 l 1
 94 418 l 1
EndSplineSet
Substitution2: "'pnum' Proportional Numbers lookup 5 subtable" twosuperior.pnum
EndChar

StartChar: threesuperior
Encoding: 179 179 115
Width: 402
GlyphClass: 2
Flags: HMW
HStem: 401 38<251.5 277 251.5 323> 593 60<214 226> 604 35<276 290.5> 778 38<308.5 329>
VStem: 109 97 322 128<506 551.5 487 569> 350 121<716.5 746 682 747>
LayerCount: 2
Fore
SplineSet
109 485 m 0xbc
 109 515 140 539 169 539 c 0
 188 539 200 526 206 509 c 0
 222 460 238 439 265 439 c 0
 289 439 322 468 322 544 c 0
 322 594 300 604 281 604 c 0xbc
 259 604 233 593 219 593 c 0
 206 593 199 602 199 617 c 0
 199 636 207 653 221 653 c 0xdc
 237 653 263 639 289 639 c 0
 328 639 350 698 350 735 c 0
 350 759 340 778 318 778 c 0
 299 778 280 759 254 714 c 0
 244 697 235 684 213 684 c 0
 192 684 164 701 164 729 c 0
 164 769 221 816 321 816 c 0
 401 816 471 777 471 715 c 0xba
 471 649 407 629 360 623 c 1
 359 621 l 1
 410 610 450 577 450 526 c 0
 450 448 381 401 265 401 c 0
 167 401 109 440 109 485 c 0xbc
EndSplineSet
Substitution2: "'pnum' Proportional Numbers lookup 5 subtable" threesuperior.pnum
EndChar

StartChar: acute
Encoding: 180 180 116
Width: 400
GlyphClass: 2
Flags: MW
HStem: 511 229<242 452>
VStem: 221 272<541 692.5>
LayerCount: 2
Fore
SplineSet
221 541 m 1
 366 690 l 2
 403 728 420 740 440 740 c 0
 464 740 493 705 493 680 c 0
 493 654 461 634 425 614 c 2
 242 511 l 1
 221 541 l 1
EndSplineSet
EndChar

StartChar: uni00B5
Encoding: 181 181 117
Width: 634
GlyphClass: 2
Flags: MW
HStem: -230 21G<51.5 86.5> -12 80 443 33<109 117> 482 20G<348 348 652 652>
LayerCount: 2
Fore
SplineSet
35 -180 m 2
 183 391 l 2
 191 421 187 435 168 437 c 2
 109 443 l 1
 117 476 l 1
 348 502 l 1
 353 497 l 1
 259 128 l 2
 249 91 250 68 278 68 c 0
 325 68 407 199 443 285 c 0
 465 335 481 388 510 490 c 1
 652 502 l 1
 551 115 l 1
 543 89 544 68 563 68 c 0
 586 68 623 121 649 166 c 1
 678 148 l 1
 637 65 576 -12 479 -12 c 0
 425 -12 397 28 415 96 c 2
 446 210 l 1
 442 210 l 1
 379 94 296 -12 196 -10 c 0
 188 -10 173 -6 160 4 c 1
 154 -19 l 2
 150 -35 149 -71 156 -102 c 0
 162 -125 166 -142 166 -161 c 0
 166 -197 110 -230 63 -230 c 0
 40 -230 26 -216 35 -180 c 2
EndSplineSet
EndChar

StartChar: paragraph
Encoding: 182 182 118
Width: 580
GlyphClass: 2
Flags: MW
HStem: -101 38 654 38
VStem: 145 543<360.5 692>
LayerCount: 2
Fore
SplineSet
145 422 m 0
 145 576 265 692 445 692 c 1
 342 238 l 1
 230 238 145 299 145 422 c 0
231 -101 m 1
 238 -68 l 1
 321 -57 l 2
 340 -55 347 -36 353 -7 c 2
 512 692 l 1
 688 692 l 1
 681 659 l 1
 613 650 l 2
 594 648 589 637 583 608 c 2
 422 -101 l 1
 231 -101 l 1
EndSplineSet
EndChar

StartChar: periodcentered
Encoding: 183 183 119
Width: 280
GlyphClass: 2
Flags: MW
HStem: 161 178<171.5 214.5>
VStem: 102 180<230.5 270.5>
LayerCount: 2
Fore
SplineSet
102 240 m 0
 102 301 145 339 198 339 c 0
 256 339 282 302 282 261 c 0
 282 200 240 161 189 161 c 0
 129 161 102 197 102 240 c 0
EndSplineSet
EndChar

StartChar: cedilla
Encoding: 184 184 120
Width: 400
GlyphClass: 2
Flags: MW
HStem: -243 32<120 150> -56 56<240 240>
VStem: 223 104
LayerCount: 2
Fore
SplineSet
120 -243 m 1
 122 -211 l 1
 178 -211 219 -196 223 -153 c 0
 228 -109 185 -100 163 -98 c 1
 160 -90 l 1
 226 0 l 1
 284 0 l 1
 240 -56 l 1
 270 -60 334 -79 327 -151 c 0
 319 -232 215 -246 168 -246 c 0
 148 -246 137 -245 120 -243 c 1
EndSplineSet
EndChar

StartChar: onesuperior
Encoding: 185 185 121
Width: 402
GlyphClass: 2
Flags: HMW
HStem: 408 27<141 147 147 147 147 394> 766 26<224 230> 796 20G<412 412>
VStem: 141 277
LayerCount: 2
Fore
SplineSet
141 408 m 1
 147 435 l 1
 186 440 l 2
 208 443 218 450 223 476 c 2
 280 726 l 2
 286 750 279 757 264 760 c 2
 224 766 l 1
 230 792 l 1
 412 816 l 1
 418 809 l 1
 342 476 l 2
 337 450 343 443 363 440 c 2
 400 435 l 1
 394 408 l 1
 141 408 l 1
EndSplineSet
Substitution2: "'pnum' Proportional Numbers lookup 5 subtable" onesuperior.pnum
EndChar

StartChar: ordmasculine
Encoding: 186 186 122
Width: 412
GlyphClass: 2
Flags: HMW
HStem: 401 34<255.5 299 255.5 320.5> 692 34<322.5 349.5>
VStem: 121 109<491 496 463.5 541.5> 372 109<624.5 646 577.5 660>
LayerCount: 2
Fore
SplineSet
121 527 m 0
 121 556 130 605 158 646 c 0
 188 690 234 726 323 726 c 0
 403 726 481 698 481 594 c 0
 481 561 472 515 445 477 c 0
 414 434 368 401 273 401 c 0
 166 401 121 455 121 527 c 0
230 476 m 0
 230 451 244 435 267 435 c 0
 331 435 372 601 372 648 c 0
 372 672 362 692 337 692 c 0
 308 692 282 662 263 618 c 0
 243 573 230 516 230 476 c 0
EndSplineSet
EndChar

StartChar: guillemotright
Encoding: 187 187 123
Width: 560
GlyphClass: 2
Flags: MW
HStem: 37 427<117 192 192 318>
VStem: 211 124 412 124
LayerCount: 2
Fore
SplineSet
294 58 m 1
 404 229 l 2
 413 244 416 255 412 269 c 2
 365 447 l 1
 393 464 l 1
 530 270 l 2
 541 255 538 245 523 231 c 2
 318 37 l 1
 294 58 l 1
93 58 m 1
 203 229 l 2
 212 244 215 255 211 269 c 2
 164 447 l 1
 192 464 l 1
 329 270 l 2
 340 255 337 245 322 231 c 2
 117 37 l 1
 93 58 l 1
EndSplineSet
EndChar

StartChar: onequarter
Encoding: 188 188 124
Width: 940
GlyphClass: 2
Flags: MW
HStem: 0 27<626 626 626 842 621 626> 102 43<601 705 827 873> 272 27<161 167 167 167 167 414> 630 26<244 250> 660 20<432 432> 675 20<770 770>
VStem: 161 277 268 546
LayerCount: 2
Fore
SplineSet
523 126 m 1xf0
 616 226 706 324 792 401 c 1
 884 401 l 1
 827 145 l 1
 883 145 l 1
 873 102 l 1
 817 102 l 1
 807 54 l 2
 804 38 810 31 823 30 c 2
 847 27 l 1
 842 0 l 1
 621 0 l 1
 626 27 l 1
 666 30 l 2
 682 31 692 38 695 54 c 2
 705 102 l 1
 536 102 l 1
 523 126 l 1xf0
601 145 m 1
 716 145 l 1
 755 313 l 1
 753 313 l 1
 708 263 648 200 601 145 c 1
268 11 m 1x05
 770 695 l 1
 814 661 l 1
 309 -27 l 1
 268 11 l 1x05
161 272 m 1x3a
 167 299 l 1
 206 304 l 2
 228 307 238 314 243 340 c 2
 300 590 l 2
 306 614 299 621 284 624 c 2
 244 630 l 1
 250 656 l 1
 432 680 l 1
 438 673 l 1
 362 340 l 2
 357 314 363 307 383 304 c 2
 420 299 l 1
 414 272 l 1
 161 272 l 1x3a
EndSplineSet
EndChar

StartChar: onehalf
Encoding: 189 189 125
Width: 940
GlyphClass: 2
Flags: MW
HStem: 0 82<700 851 851 864.5 700 890> 272 27<147 153 153 153 153 400> 370 38<798.5 820.5> 630 26<230 236> 660 20<418 418> 675 20<740 740>
VStem: 147 277 238 546 838 125<299.5 323 255.5 336>
LayerCount: 2
Fore
SplineSet
238 11 m 1x05
 740 695 l 1
 784 661 l 1
 279 -27 l 1
 238 11 l 1x05
147 272 m 1x5a
 153 299 l 1
 192 304 l 2
 214 307 224 314 229 340 c 2
 286 590 l 2
 292 614 285 621 270 624 c 2
 230 630 l 1
 236 656 l 1
 418 680 l 1
 424 673 l 1
 348 340 l 2
 343 314 349 307 369 304 c 2
 406 299 l 1
 400 272 l 1
 147 272 l 1x5a
569 10 m 1xa080
 572 57 632 115 729 171 c 0
 804 215 838 277 838 322 c 0
 838 350 831 370 810 370 c 0
 787 370 762 344 737 289 c 0
 731 275 722 259 697 259 c 0
 671 259 640 279 640 307 c 0
 640 354 702 408 805 408 c 0
 924 408 963 352 963 294 c 0
 963 217 902 184 825 157 c 0
 759 134 720 109 700 82 c 1
 851 82 l 2
 878 82 889 87 909 115 c 1
 937 107 l 1
 890 0 l 1
 579 0 l 1
 569 10 l 1xa080
EndSplineSet
EndChar

StartChar: threequarters
Encoding: 190 190 126
Width: 940
GlyphClass: 2
Flags: MW
HStem: 0 27<653 653 653 869 648 653> 102 43<628 732 854 900> 265 38<287.5 313 287.5 359> 457 60<250 262> 468 35<312 326.5> 642 38<344.5 365> 675 20<804 804>
VStem: 145 97 302 546 358 128<370 415.5 351 433> 386 121<580.5 610 546 611>
LayerCount: 2
Fore
SplineSet
550 126 m 1xe1
 643 226 733 324 819 401 c 1
 911 401 l 1
 854 145 l 1
 910 145 l 1
 900 102 l 1
 844 102 l 1
 834 54 l 2
 831 38 837 31 850 30 c 2
 874 27 l 1
 869 0 l 1
 648 0 l 1
 653 27 l 1
 693 30 l 2
 709 31 719 38 722 54 c 2
 732 102 l 1
 563 102 l 1
 550 126 l 1xe1
628 145 m 1
 743 145 l 1
 782 313 l 1
 780 313 l 1
 735 263 675 200 628 145 c 1
302 11 m 1x0280
 804 695 l 1
 848 661 l 1
 343 -27 l 1
 302 11 l 1x0280
145 349 m 0x2d40
 145 379 176 403 205 403 c 0
 224 403 236 390 242 373 c 0
 258 324 274 303 301 303 c 0
 325 303 358 332 358 408 c 0
 358 458 336 468 317 468 c 0x2d40
 295 468 269 457 255 457 c 0
 242 457 235 466 235 481 c 0
 235 500 243 517 257 517 c 0x3540
 273 517 299 503 325 503 c 0
 364 503 386 562 386 599 c 0
 386 623 376 642 354 642 c 0
 335 642 316 623 290 578 c 0
 280 561 271 548 249 548 c 0
 228 548 200 565 200 593 c 0
 200 633 257 680 357 680 c 0
 437 680 507 641 507 579 c 0x2d20
 507 513 443 493 396 487 c 1
 395 485 l 1
 446 474 486 441 486 390 c 0
 486 312 417 265 301 265 c 0
 203 265 145 304 145 349 c 0x2d40
EndSplineSet
EndChar

StartChar: questiondown
Encoding: 191 191 127
Width: 454
GlyphClass: 2
Flags: MW
HStem: -217 46<196 222.5 196 290> 208 64<177 331> 324 178<313.5 356.5>
VStem: 25 149<-124 -88 -137 -44.5> 246 180<392.5 432.5> 269 144<151.5 176> 297 125
LayerCount: 2
Fore
SplineSet
25 -83 m 0xf2
 25 -6 86 35 163 65 c 0
 224 88 269 117 269 161 c 0xf4
 269 191 241 206 220 208 c 0
 202 210 189 210 177 208 c 1
 170 237 l 1
 204 260 257 272 297 272 c 0xf2
 365 272 413 234 413 177 c 0xf4
 413 126 373 89 306 53 c 0
 222 8 174 -51 174 -125 c 0
 174 -149 184 -171 208 -171 c 0
 237 -171 266 -137 297 -66 c 0
 306 -45 320 -32 346 -32 c 0
 375 -32 422 -49 422 -95 c 0
 422 -144 360 -217 220 -217 c 0
 88 -217 25 -165 25 -83 c 0xf2
246 402 m 0xf8
 246 463 288 502 339 502 c 0
 399 502 426 466 426 423 c 0
 426 362 383 324 330 324 c 0
 272 324 246 361 246 402 c 0xf8
EndSplineSet
EndChar

StartChar: Agrave
Encoding: 192 192 128
Width: 634
GlyphClass: 2
Flags: MW
HStem: 0 40 246 48<260 429 260 434 234 429> 672 20G<420 538 538 538>
VStem: -24 698<0 38>
AnchorPoint: "Anchor-3" 526 899 basechar 0
AnchorPoint: "Anchor-2" 320 0 basechar 0
LayerCount: 2
Fore
SplineSet
293 840 m 0
 293 860 315 904 347 904 c 0
 365 904 380 897 411 874 c 2
 583 751 l 1
 569 719 l 1
 366 783 l 2
 313 800 293 811 293 840 c 0
-24 0 m 1
 -17 38 l 1
 10 41 l 2
 40 44 55 54 75 87 c 0
 103 133 166 243 226 349 c 2
 420 692 l 1
 538 692 l 1
 572 375 l 2
 580 302 594 159 602 86 c 0
 606 58 610 43 633 41 c 2
 674 38 l 1
 666 0 l 1
 366 0 l 1
 374 38 l 1
 426 42 l 2
 446 43 451 55 449 79 c 2
 434 246 l 1
 234 246 l 1
 202 188 176 132 148 79 c 0
 138 59 139 43 161 42 c 2
 217 38 l 1
 210 0 l 1
 -24 0 l 1
260 294 m 1
 429 294 l 1
 405 555 l 1
 403 555 l 1
 386 528 273 319 260 294 c 1
EndSplineSet
EndChar

StartChar: Aacute
Encoding: 193 193 129
Width: 634
GlyphClass: 2
Flags: MW
HStem: 0 40 246 48<260 429 260 434 234 429> 672 20G<420 538 538 538>
VStem: -24 698<0 38>
AnchorPoint: "Anchor-3" 526 899 basechar 0
AnchorPoint: "Anchor-2" 320 0 basechar 0
LayerCount: 2
Fore
SplineSet
373 751 m 1
 545 874 l 2
 576 897 591 904 609 904 c 0
 641 904 663 860 663 840 c 0
 663 811 643 800 590 783 c 2
 387 719 l 1
 373 751 l 1
-24 0 m 1
 -17 38 l 1
 10 41 l 2
 40 44 55 54 75 87 c 0
 103 133 166 243 226 349 c 2
 420 692 l 1
 538 692 l 1
 572 375 l 2
 580 302 594 159 602 86 c 0
 606 58 610 43 633 41 c 2
 674 38 l 1
 666 0 l 1
 366 0 l 1
 374 38 l 1
 426 42 l 2
 446 43 451 55 449 79 c 2
 434 246 l 1
 234 246 l 1
 202 188 176 132 148 79 c 0
 138 59 139 43 161 42 c 2
 217 38 l 1
 210 0 l 1
 -24 0 l 1
260 294 m 1
 429 294 l 1
 405 555 l 1
 403 555 l 1
 386 528 273 319 260 294 c 1
EndSplineSet
EndChar

StartChar: Acircumflex
Encoding: 194 194 130
Width: 634
GlyphClass: 2
Flags: MW
HStem: 0 40 246 48<260 429 260 434 234 429> 672 20G<420 538 538 538>
VStem: -24 698<0 38>
AnchorPoint: "Anchor-3" 527 900 basechar 0
AnchorPoint: "Anchor-2" 320 0 basechar 0
LayerCount: 2
Fore
SplineSet
290 755 m 1
 462 879 l 2
 480 892 497 905 514 905 c 0
 532 905 545 892 559 877 c 2
 671 755 l 1
 647 725 l 1
 541 785 l 2
 522 796 512 800 500 800 c 0
 490 800 477 795 458 787 c 2
 307 725 l 1
 290 755 l 1
-24 0 m 1
 -17 38 l 1
 10 41 l 2
 40 44 55 54 75 87 c 0
 103 133 166 243 226 349 c 2
 420 692 l 1
 538 692 l 1
 572 375 l 2
 580 302 594 159 602 86 c 0
 606 58 610 43 633 41 c 2
 674 38 l 1
 666 0 l 1
 366 0 l 1
 374 38 l 1
 426 42 l 2
 446 43 451 55 449 79 c 2
 434 246 l 1
 234 246 l 1
 202 188 176 132 148 79 c 0
 138 59 139 43 161 42 c 2
 217 38 l 1
 210 0 l 1
 -24 0 l 1
260 294 m 1
 429 294 l 1
 405 555 l 1
 403 555 l 1
 386 528 273 319 260 294 c 1
EndSplineSet
EndChar

StartChar: Atilde
Encoding: 195 195 131
Width: 634
GlyphClass: 2
Flags: MW
HStem: 0 40 246 48<260 429 260 434 234 429> 672 20<420 538 538 538> 736 85<577 603> 778 85<366 394>
VStem: -24 698<0 38>
AnchorPoint: "Anchor-3" 520 871 basechar 0
AnchorPoint: "Anchor-2" 320 0 basechar 0
LayerCount: 2
Fore
SplineSet
272 741 m 1x08
 290 784 325 863 407 863 c 0x08
 435 863 467 853 499 842 c 1
 532 832 564 821 590 821 c 0
 627 821 643 837 665 876 c 1
 697 858 l 1
 679 815 644 736 562 736 c 0x10
 537 736 506 747 474 757 c 0
 442 768 409 778 379 778 c 0
 342 778 326 762 304 723 c 1
 272 741 l 1x08
-24 0 m 1xe4
 -17 38 l 1
 10 41 l 2
 40 44 55 54 75 87 c 0
 103 133 166 243 226 349 c 2
 420 692 l 1
 538 692 l 1
 572 375 l 2
 580 302 594 159 602 86 c 0
 606 58 610 43 633 41 c 2
 674 38 l 1
 666 0 l 1
 366 0 l 1
 374 38 l 1
 426 42 l 2
 446 43 451 55 449 79 c 2
 434 246 l 1
 234 246 l 1
 202 188 176 132 148 79 c 0
 138 59 139 43 161 42 c 2
 217 38 l 1
 210 0 l 1
 -24 0 l 1xe4
260 294 m 1
 429 294 l 1
 405 555 l 1
 403 555 l 1
 386 528 273 319 260 294 c 1
EndSplineSet
EndChar

StartChar: Adieresis
Encoding: 196 196 132
Width: 634
GlyphClass: 2
Flags: MW
HStem: 0 40 246 48<260 429 260 434 234 429> 672 20G<420 538 538 538> 732 149<330.5 382 582.5 634>
VStem: 277 158<787 825> 529 158<787 825>
AnchorPoint: "Anchor-3" 521 876 basechar 0
AnchorPoint: "Anchor-2" 320 0 basechar 0
LayerCount: 2
Fore
SplineSet
529 806 m 0
 529 844 557 881 608 881 c 0
 660 881 687 844 687 806 c 0
 687 768 660 732 608 732 c 0
 557 732 529 768 529 806 c 0
277 806 m 0
 277 844 305 881 356 881 c 0
 408 881 435 844 435 806 c 0
 435 768 408 732 356 732 c 0
 305 732 277 768 277 806 c 0
-24 0 m 1
 -17 38 l 1
 10 41 l 2
 40 44 55 54 75 87 c 0
 103 133 166 243 226 349 c 2
 420 692 l 1
 538 692 l 1
 572 375 l 2
 580 302 594 159 602 86 c 0
 606 58 610 43 633 41 c 2
 674 38 l 1
 666 0 l 1
 366 0 l 1
 374 38 l 1
 426 42 l 2
 446 43 451 55 449 79 c 2
 434 246 l 1
 234 246 l 1
 202 188 176 132 148 79 c 0
 138 59 139 43 161 42 c 2
 217 38 l 1
 210 0 l 1
 -24 0 l 1
260 294 m 1
 429 294 l 1
 405 555 l 1
 403 555 l 1
 386 528 273 319 260 294 c 1
EndSplineSet
EndChar

StartChar: Aring
Encoding: 197 197 133
Width: 634
GlyphClass: 2
Flags: MW
HStem: 0 38<-24 -17 -17 -17 -17 210> 246 48<258 429 258 434 232 429> 840 39<483 516.5>
VStem: 364 66<726 770 724.5 779.5> 549 66<762.5 804.5>
LayerCount: 2
Fore
SplineSet
-24 0 m 1
 -17 38 l 1
 10 41 l 2
 40 44 55 54 75 87 c 0
 103 133 166 243 226 349 c 2
 408 667 l 1
 381 681 364 709 364 743 c 0
 364 816 407 879 508 879 c 0
 573 879 615 844 615 782 c 0
 615 731 588 688 540 667 c 1
 572 375 l 2
 580 302 594 159 602 86 c 0
 606 58 610 43 633 41 c 2
 674 38 l 1
 666 0 l 1
 366 0 l 1
 374 38 l 1
 426 42 l 2
 446 43 451 55 449 79 c 2
 434 246 l 1
 232 246 l 1
 202 188 176 132 148 79 c 0
 138 59 139 43 161 42 c 2
 217 38 l 1
 210 0 l 1
 -24 0 l 1
258 294 m 1
 429 294 l 1
 405 555 l 1
 401 555 l 1
 384 528 271 319 258 294 c 1
430 741 m 0
 430 708 452 692 478 692 c 0
 518 692 549 736 549 789 c 0
 549 820 531 840 502 840 c 0
 464 840 430 799 430 741 c 0
EndSplineSet
EndChar

StartChar: AE
Encoding: 198 198 134
Width: 890
GlyphClass: 2
Flags: MW
HStem: 0 38<-72 -65 -65 -65 -65 192> 0 46<624.5 707.5 624.5 856> 339 48<336 465 300 476 627 708> 646 46<706.5 722 722 796> 654 38<357 993>
VStem: 780 38<248 248> 830 38<478 478> 915 38<507 507>
AnchorPoint: "Anchor-3" 622 707 basechar 0
AnchorPoint: "Anchor-2" 397 0 basechar 0
LayerCount: 2
Fore
SplineSet
-72 0 m 1xa7
 -65 38 l 1
 -29 43 l 2
 1 47 20 68 47 100 c 0
 107 172 301 436 402 571 c 0
 445 629 448 645 425 647 c 2
 357 654 l 1
 367 692 l 1
 993 692 l 1xaf
 953 507 l 1
 915 507 l 1
 910 562 l 2
 906 609 884 646 796 646 c 2
 722 646 l 2
 691 646 684 642 677 611 c 2
 627 387 l 1
 719 387 l 2
 782 387 798 405 830 478 c 1
 868 478 l 1
 818 248 l 1
 780 248 l 1
 783 310 772 339 708 339 c 2
 616 339 l 1
 563 105 l 2
 550 48 580 46 669 46 c 0x77
 746 46 794 69 845 154 c 2
 877 208 l 1
 915 208 l 1
 856 0 l 1
 311 0 l 1
 320 38 l 1
 365 42 l 2
 394 44 401 62 409 98 c 2
 465 339 l 1
 300 339 l 1
 196 185 160 134 125 80 c 0
 114 63 113 46 131 44 c 2
 199 38 l 1
 192 0 l 1
 -72 0 l 1xa7
336 387 m 1
 476 387 l 1
 532 640 l 1
 522 640 l 1
 460 556 396 472 336 387 c 1
EndSplineSet
EndChar

StartChar: Ccedilla
Encoding: 199 199 135
Width: 672
GlyphClass: 2
Flags: MW
HStem: -243 33<286 318> -15 46<441 474> 661 46<458.5 583 458.5 615.5>
VStem: 111 169<232 310> 394 108 700 38<480 480>
AnchorPoint: "Anchor-3" 555 707 basechar 0
LayerCount: 2
Fore
SplineSet
111 275 m 0
 111 345 128 444 180 524 c 0
 250 631 362 707 555 707 c 0
 611 707 717 696 777 659 c 1
 738 480 l 1
 700 480 l 1
 699 571 674 661 557 661 c 0
 354 661 280 412 280 235 c 0
 280 96 344 31 434 31 c 0
 546 31 601 116 665 220 c 1
 703 220 l 1
 648 26 l 1
 586 -6 507 -15 441 -15 c 1
 411 -53 l 1
 443 -58 509 -75 502 -147 c 0
 495 -231 385 -246 336 -246 c 0
 316 -246 304 -245 286 -243 c 1
 289 -210 l 1
 347 -210 389 -194 394 -149 c 0
 399 -109 354 -99 331 -97 c 1
 328 -89 l 1
 383 -13 l 1
 138 9 111 189 111 275 c 0
EndSplineSet
EndChar

StartChar: Egrave
Encoding: 200 200 136
Width: 622
GlyphClass: 2
Flags: MW
HStem: 0 46<355.5 440.5 355.5 590> 339 48<357 440 346 451> 646 46<438.5 456 456 525> 719 185
VStem: 303 290<751 850>
AnchorPoint: "Anchor-3" 522 899 basechar 0
AnchorPoint: "Anchor-2" 314 0 basechar 0
LayerCount: 2
Fore
SplineSet
303 840 m 0
 303 860 325 904 357 904 c 0
 375 904 390 897 421 874 c 2
 593 751 l 1
 579 719 l 1
 376 783 l 2
 323 800 303 811 303 840 c 0
40 0 m 1
 49 38 l 1
 94 42 l 2
 123 44 130 62 138 98 c 2
 249 594 l 2
 257 630 258 647 230 649 c 2
 179 654 l 1
 190 692 l 1
 722 692 l 1
 682 507 l 1
 644 507 l 1
 639 562 l 2
 635 609 613 646 525 646 c 2
 456 646 l 2
 421 646 414 642 407 613 c 2
 357 387 l 1
 451 387 l 2
 514 387 530 404 562 477 c 1
 600 477 l 1
 550 249 l 1
 512 249 l 1
 515 311 504 339 440 339 c 2
 346 339 l 1
 293 103 l 2
 280 48 310 46 401 46 c 0
 480 46 528 67 579 154 c 2
 611 208 l 1
 649 208 l 1
 590 0 l 1
 40 0 l 1
EndSplineSet
EndChar

StartChar: Eacute
Encoding: 201 201 137
Width: 622
GlyphClass: 2
Flags: MW
HStem: 0 46<355.5 440.5 355.5 590> 339 48<357 440 346 451> 646 46<438.5 456 456 525> 719 185
VStem: 387 290<751 850>
AnchorPoint: "Anchor-3" 522 899 basechar 0
AnchorPoint: "Anchor-2" 314 0 basechar 0
LayerCount: 2
Fore
SplineSet
387 751 m 1
 559 874 l 2
 590 897 605 904 623 904 c 0
 655 904 677 860 677 840 c 0
 677 811 657 800 604 783 c 2
 401 719 l 1
 387 751 l 1
40 0 m 1
 49 38 l 1
 94 42 l 2
 123 44 130 62 138 98 c 2
 249 594 l 2
 257 630 258 647 230 649 c 2
 179 654 l 1
 190 692 l 1
 722 692 l 1
 682 507 l 1
 644 507 l 1
 639 562 l 2
 635 609 613 646 525 646 c 2
 456 646 l 2
 421 646 414 642 407 613 c 2
 357 387 l 1
 451 387 l 2
 514 387 530 404 562 477 c 1
 600 477 l 1
 550 249 l 1
 512 249 l 1
 515 311 504 339 440 339 c 2
 346 339 l 1
 293 103 l 2
 280 48 310 46 401 46 c 0
 480 46 528 67 579 154 c 2
 611 208 l 1
 649 208 l 1
 590 0 l 1
 40 0 l 1
EndSplineSet
EndChar

StartChar: Ecircumflex
Encoding: 202 202 138
Width: 622
GlyphClass: 2
Flags: MW
HStem: 0 46<355.5 440.5 355.5 590> 339 48<357 440 346 451> 646 46<438.5 456 456 525> 800 105<509.5 510>
AnchorPoint: "Anchor-3" 523 900 basechar 0
AnchorPoint: "Anchor-2" 314 0 basechar 0
LayerCount: 2
Fore
SplineSet
294 755 m 1
 466 879 l 2
 484 892 501 905 518 905 c 0
 536 905 549 892 563 877 c 2
 675 755 l 1
 651 725 l 1
 545 785 l 2
 526 796 516 800 504 800 c 0
 494 800 481 795 462 787 c 2
 311 725 l 1
 294 755 l 1
40 0 m 1
 49 38 l 1
 94 42 l 2
 123 44 130 62 138 98 c 2
 249 594 l 2
 257 630 258 647 230 649 c 2
 179 654 l 1
 190 692 l 1
 722 692 l 1
 682 507 l 1
 644 507 l 1
 639 562 l 2
 635 609 613 646 525 646 c 2
 456 646 l 2
 421 646 414 642 407 613 c 2
 357 387 l 1
 451 387 l 2
 514 387 530 404 562 477 c 1
 600 477 l 1
 550 249 l 1
 512 249 l 1
 515 311 504 339 440 339 c 2
 346 339 l 1
 293 103 l 2
 280 48 310 46 401 46 c 0
 480 46 528 67 579 154 c 2
 611 208 l 1
 649 208 l 1
 590 0 l 1
 40 0 l 1
EndSplineSet
EndChar

StartChar: Edieresis
Encoding: 203 203 139
Width: 622
GlyphClass: 2
Flags: MW
HStem: 0 46<355.5 440.5 355.5 590> 339 48<357 440 346 451> 646 46<438.5 456 456 525> 732 149<332.5 384 584.5 636>
VStem: 279 158<787 825> 531 158<787 825>
AnchorPoint: "Anchor-3" 517 876 basechar 0
AnchorPoint: "Anchor-2" 314 0 basechar 0
LayerCount: 2
Fore
SplineSet
531 806 m 0
 531 844 559 881 610 881 c 0
 662 881 689 844 689 806 c 0
 689 768 662 732 610 732 c 0
 559 732 531 768 531 806 c 0
279 806 m 0
 279 844 307 881 358 881 c 0
 410 881 437 844 437 806 c 0
 437 768 410 732 358 732 c 0
 307 732 279 768 279 806 c 0
40 0 m 1
 49 38 l 1
 94 42 l 2
 123 44 130 62 138 98 c 2
 249 594 l 2
 257 630 258 647 230 649 c 2
 179 654 l 1
 190 692 l 1
 722 692 l 1
 682 507 l 1
 644 507 l 1
 639 562 l 2
 635 609 613 646 525 646 c 2
 456 646 l 2
 421 646 414 642 407 613 c 2
 357 387 l 1
 451 387 l 2
 514 387 530 404 562 477 c 1
 600 477 l 1
 550 249 l 1
 512 249 l 1
 515 311 504 339 440 339 c 2
 346 339 l 1
 293 103 l 2
 280 48 310 46 401 46 c 0
 480 46 528 67 579 154 c 2
 611 208 l 1
 649 208 l 1
 590 0 l 1
 40 0 l 1
EndSplineSet
EndChar

StartChar: Igrave
Encoding: 204 204 140
Width: 386
GlyphClass: 2
Flags: MW
HStem: 0 40 652 40
VStem: 40 461
AnchorPoint: "Anchor-3" 397 899 basechar 0
AnchorPoint: "Anchor-2" 190 0 basechar 0
LayerCount: 2
Fore
SplineSet
181 840 m 0
 181 860 203 904 235 904 c 0
 253 904 268 897 299 874 c 2
 471 751 l 1
 457 719 l 1
 254 783 l 2
 201 800 181 811 181 840 c 0
40 0 m 1
 49 38 l 1
 94 42 l 2
 123 44 130 62 138 98 c 2
 249 594 l 2
 257 630 258 647 230 649 c 2
 179 654 l 1
 189 692 l 1
 501 692 l 1
 491 654 l 1
 447 650 l 2
 418 648 411 630 403 594 c 2
 292 98 l 2
 284 62 283 45 311 42 c 2
 361 38 l 1
 352 0 l 1
 40 0 l 1
EndSplineSet
EndChar

StartChar: Iacute
Encoding: 205 205 141
Width: 386
GlyphClass: 2
Flags: MW
HStem: 0 40 652 40
VStem: 40 494
AnchorPoint: "Anchor-3" 397 899 basechar 0
AnchorPoint: "Anchor-2" 190 0 basechar 0
LayerCount: 2
Fore
SplineSet
244 751 m 1
 416 874 l 2
 447 897 462 904 480 904 c 0
 512 904 534 860 534 840 c 0
 534 811 514 800 461 783 c 2
 258 719 l 1
 244 751 l 1
40 0 m 1
 49 38 l 1
 94 42 l 2
 123 44 130 62 138 98 c 2
 249 594 l 2
 257 630 258 647 230 649 c 2
 179 654 l 1
 189 692 l 1
 501 692 l 1
 491 654 l 1
 447 650 l 2
 418 648 411 630 403 594 c 2
 292 98 l 2
 284 62 283 45 311 42 c 2
 361 38 l 1
 352 0 l 1
 40 0 l 1
EndSplineSet
EndChar

StartChar: Icircumflex
Encoding: 206 206 142
Width: 386
GlyphClass: 2
Flags: MW
HStem: 0 40 652 40
VStem: 40 501
AnchorPoint: "Anchor-3" 398 900 basechar 0
AnchorPoint: "Anchor-2" 190 0 basechar 0
LayerCount: 2
Fore
SplineSet
160 755 m 1
 332 879 l 2
 350 892 367 905 384 905 c 0
 402 905 415 892 429 877 c 2
 541 755 l 1
 517 725 l 1
 411 785 l 2
 392 796 382 800 370 800 c 0
 360 800 347 795 328 787 c 2
 177 725 l 1
 160 755 l 1
40 0 m 1
 49 38 l 1
 94 42 l 2
 123 44 130 62 138 98 c 2
 249 594 l 2
 257 630 258 647 230 649 c 2
 179 654 l 1
 189 692 l 1
 501 692 l 1
 491 654 l 1
 447 650 l 2
 418 648 411 630 403 594 c 2
 292 98 l 2
 284 62 283 45 311 42 c 2
 361 38 l 1
 352 0 l 1
 40 0 l 1
EndSplineSet
EndChar

StartChar: Idieresis
Encoding: 207 207 143
Width: 386
GlyphClass: 2
Flags: MW
HStem: 0 38<40 49 49 49 49 352> 654 38<179 501 491 491> 732 149<211.5 263 463.5 515>
VStem: 158 158<787 825> 410 158<787 825>
AnchorPoint: "Anchor-3" 392 876 basechar 0
AnchorPoint: "Anchor-2" 190 0 basechar 0
LayerCount: 2
Fore
SplineSet
410 806 m 0
 410 844 438 881 489 881 c 0
 541 881 568 844 568 806 c 0
 568 768 541 732 489 732 c 0
 438 732 410 768 410 806 c 0
158 806 m 0
 158 844 186 881 237 881 c 0
 289 881 316 844 316 806 c 0
 316 768 289 732 237 732 c 0
 186 732 158 768 158 806 c 0
40 0 m 1
 49 38 l 1
 94 42 l 2
 123 44 130 62 138 98 c 2
 249 594 l 2
 257 630 258 647 230 649 c 2
 179 654 l 1
 189 692 l 1
 501 692 l 1
 491 654 l 1
 447 650 l 2
 418 648 411 630 403 594 c 2
 292 98 l 2
 284 62 283 45 311 42 c 2
 361 38 l 1
 352 0 l 1
 40 0 l 1
EndSplineSet
EndChar

StartChar: Eth
Encoding: 208 208 144
Width: 780
GlyphClass: 2
Flags: MW
HStem: 0 38<46 55 55 55 55 367> 0 46<342 367> 339 48<115 198 103 209 363 495> 646 46<464 470 195 567.5> 654 38<185 470>
VStem: 662 163<395 456.5 382.5 501.5>
LayerCount: 2
Fore
SplineSet
46 0 m 1xa4
 55 38 l 1
 100 42 l 2
 129 44 136 62 144 98 c 2
 198 339 l 1
 103 339 l 1
 115 387 l 1
 209 387 l 1
 255 594 l 2
 263 630 264 647 236 649 c 2
 185 654 l 1
 195 692 l 1xac
 470 692 l 1
 589 691 674 672 733 627 c 0
 792 582 825 510 825 403 c 0
 825 362 813 266 759 182 c 0
 690 73 585 0 367 0 c 2x74
 46 0 l 1xa4
298 97 m 2
 288 54 318 46 366 46 c 0
 598 46 662 336 662 454 c 0
 662 549 639 646 496 646 c 0x74
 432 646 418 639 411 606 c 2
 363 387 l 1
 507 387 l 1
 495 339 l 1
 352 339 l 1
 298 97 l 2
EndSplineSet
EndChar

StartChar: Ntilde
Encoding: 209 209 145
Width: 741
GlyphClass: 2
Flags: MW
HStem: 0 38<30 38 38 38 38 276> 654 38<172 404 865 865> 736 85<642 668> 778 85<431 459>
LayerCount: 2
Fore
SplineSet
337 741 m 1x10
 355 784 390 863 472 863 c 0x10
 500 863 532 853 564 842 c 1
 597 832 629 821 655 821 c 0
 692 821 708 837 730 876 c 1
 762 858 l 1
 744 815 709 736 627 736 c 0x20
 602 736 571 747 539 757 c 0
 507 768 474 778 444 778 c 0
 407 778 391 762 369 723 c 1
 337 741 l 1x10
30 0 m 1xc0
 38 38 l 1
 75 41 l 2
 99 43 114 57 125 91 c 0
 136 125 146 164 163 239 c 2
 241 594 l 2
 249 630 250 647 222 649 c 2
 172 654 l 1
 182 692 l 1
 404 692 l 1
 474 522 545 353 617 183 c 1
 620 183 l 1
 679 453 l 2
 695 527 704 566 707 601 c 0
 710 634 702 649 673 651 c 2
 619 654 l 1
 627 692 l 1
 873 692 l 1
 865 654 l 1
 828 651 l 2
 804 649 789 635 778 601 c 0
 767 567 757 528 740 453 c 2
 640 0 l 1
 536 0 l 1
 458 187 379 374 299 561 c 1
 295 561 l 1
 223 239 l 1
 208 165 200 126 196 91 c 0
 193 58 202 43 230 41 c 2
 284 38 l 1
 276 0 l 1
 30 0 l 1xc0
EndSplineSet
EndChar

StartChar: Ograve
Encoding: 210 210 146
Width: 761
GlyphClass: 2
Flags: MW
HStem: -15 46<361 477 361 510> 661 46<439.5 566.5>
VStem: 113 165<179.5 269.5 139 290> 638 165<409 520 392.5 550>
AnchorPoint: "Anchor-3" 548 884 basechar 0
AnchorPoint: "Anchor-2" 423 0 basechar 0
LayerCount: 2
Fore
SplineSet
307 840 m 0
 307 860 329 904 361 904 c 0
 379 904 394 897 425 874 c 2
 597 751 l 1
 583 719 l 1
 380 783 l 2
 327 800 307 811 307 840 c 0
113 264 m 0
 113 316 117 406 170 508 c 0
 224 611 326 707 507 707 c 0
 675 707 803 621 803 419 c 0
 803 366 795 274 744 176 c 0
 691 74 600 -15 420 -15 c 0
 219 -15 113 95 113 264 c 0
278 190 m 0
 278 88 319 31 403 31 c 0
 551 31 638 312 638 506 c 0
 638 594 611 661 522 661 c 0
 357 661 278 349 278 190 c 0
EndSplineSet
EndChar

StartChar: Oacute
Encoding: 211 211 147
Width: 761
GlyphClass: 2
Flags: MW
HStem: -15 46<361 477 361 510> 661 46<439.5 566.5>
VStem: 113 165<179.5 269.5 139 290> 638 165<409 520 392.5 550>
AnchorPoint: "Anchor-3" 548 884 basechar 0
AnchorPoint: "Anchor-2" 423 0 basechar 0
LayerCount: 2
Fore
SplineSet
422 751 m 1
 594 874 l 2
 625 897 640 904 658 904 c 0
 690 904 712 860 712 840 c 0
 712 811 692 800 639 783 c 2
 436 719 l 1
 422 751 l 1
113 264 m 0
 113 316 117 406 170 508 c 0
 224 611 326 707 507 707 c 0
 675 707 803 621 803 419 c 0
 803 366 795 274 744 176 c 0
 691 74 600 -15 420 -15 c 0
 219 -15 113 95 113 264 c 0
278 190 m 0
 278 88 319 31 403 31 c 0
 551 31 638 312 638 506 c 0
 638 594 611 661 522 661 c 0
 357 661 278 349 278 190 c 0
EndSplineSet
EndChar

StartChar: Ocircumflex
Encoding: 212 212 148
Width: 761
GlyphClass: 2
Flags: MW
HStem: -15 46<361 477 361 510> 661 46<439.5 566.5>
VStem: 113 165<179.5 269.5 139 290> 638 165<409 520 392.5 550>
AnchorPoint: "Anchor-3" 548 885 basechar 0
AnchorPoint: "Anchor-2" 423 0 basechar 0
LayerCount: 2
Fore
SplineSet
344 755 m 1
 516 879 l 2
 534 892 551 905 568 905 c 0
 586 905 599 892 613 877 c 2
 725 755 l 1
 701 725 l 1
 595 785 l 2
 576 796 566 800 554 800 c 0
 544 800 531 795 512 787 c 2
 361 725 l 1
 344 755 l 1
113 264 m 0
 113 316 117 406 170 508 c 0
 224 611 326 707 507 707 c 0
 675 707 803 621 803 419 c 0
 803 366 795 274 744 176 c 0
 691 74 600 -15 420 -15 c 0
 219 -15 113 95 113 264 c 0
278 190 m 0
 278 88 319 31 403 31 c 0
 551 31 638 312 638 506 c 0
 638 594 611 661 522 661 c 0
 357 661 278 349 278 190 c 0
EndSplineSet
EndChar

StartChar: Otilde
Encoding: 213 213 149
Width: 761
GlyphClass: 2
Flags: MW
HStem: -15 46<361 477 361 510> 661 46<439.5 566.5> 736 85<634 660> 778 85<423 451>
VStem: 113 165<179.5 269.5 139 290> 638 165<409 520 392.5 550>
AnchorPoint: "Anchor-3" 541 856 basechar 0
AnchorPoint: "Anchor-2" 423 0 basechar 0
LayerCount: 2
Fore
SplineSet
329 741 m 1x10
 347 784 382 863 464 863 c 0x10
 492 863 524 853 556 842 c 1
 589 832 621 821 647 821 c 0
 684 821 700 837 722 876 c 1
 754 858 l 1
 736 815 701 736 619 736 c 0x20
 594 736 563 747 531 757 c 0
 499 768 466 778 436 778 c 0
 399 778 383 762 361 723 c 1
 329 741 l 1x10
113 264 m 0xcc
 113 316 117 406 170 508 c 0
 224 611 326 707 507 707 c 0
 675 707 803 621 803 419 c 0
 803 366 795 274 744 176 c 0
 691 74 600 -15 420 -15 c 0
 219 -15 113 95 113 264 c 0xcc
278 190 m 0
 278 88 319 31 403 31 c 0
 551 31 638 312 638 506 c 0
 638 594 611 661 522 661 c 0
 357 661 278 349 278 190 c 0
EndSplineSet
EndChar

StartChar: Odieresis
Encoding: 214 214 150
Width: 761
GlyphClass: 2
Flags: MW
HStem: -15 46<361 477 361 510> 661 46<439.5 566.5> 732 149<390.5 442 642.5 694>
VStem: 113 165<179.5 269.5 139 290> 337 158<787 825> 589 158<787 825> 638 165<409 520 392.5 550>
AnchorPoint: "Anchor-3" 543 861 basechar 0
AnchorPoint: "Anchor-2" 423 0 basechar 0
LayerCount: 2
Fore
SplineSet
589 806 m 0x2c
 589 844 617 881 668 881 c 0
 720 881 747 844 747 806 c 0
 747 768 720 732 668 732 c 0
 617 732 589 768 589 806 c 0x2c
337 806 m 0
 337 844 365 881 416 881 c 0
 468 881 495 844 495 806 c 0
 495 768 468 732 416 732 c 0
 365 732 337 768 337 806 c 0
113 264 m 0xd2
 113 316 117 406 170 508 c 0
 224 611 326 707 507 707 c 0
 675 707 803 621 803 419 c 0
 803 366 795 274 744 176 c 0
 691 74 600 -15 420 -15 c 0
 219 -15 113 95 113 264 c 0xd2
278 190 m 0
 278 88 319 31 403 31 c 0
 551 31 638 312 638 506 c 0
 638 594 611 661 522 661 c 0
 357 661 278 349 278 190 c 0
EndSplineSet
EndChar

StartChar: multiply
Encoding: 215 215 151
Width: 600
GlyphClass: 2
Flags: MW
HStem: 22 456<203 203 203 536>
VStem: 145 450<83 83 83 415>
LayerCount: 2
Fore
SplineSet
145 83 m 1
 310 249 l 1
 145 415 l 1
 203 478 l 1
 370 310 l 1
 536 478 l 1
 595 415 l 1
 430 249 l 1
 595 83 l 1
 536 22 l 1
 370 189 l 1
 203 22 l 1
 145 83 l 1
EndSplineSet
EndChar

StartChar: Oslash
Encoding: 216 216 152
Width: 761
GlyphClass: 2
Flags: MW
HStem: -15 46<384 476 375.5 510> 661 46<440 538 416.5 549.5>
VStem: 112 162<216.5 268.5 182 286.5> 642 162<410 470.5 392.5 514>
LayerCount: 2
Fore
SplineSet
112 260 m 0
 112 313 117 406 170 508 c 0
 224 611 326 707 507 707 c 0
 569 707 626 695 675 670 c 1
 724 734 l 1
 763 702 l 1
 716 642 l 1
 771 594 804 522 804 419 c 0
 804 366 796 274 745 176 c 0
 691 74 600 -15 420 -15 c 0
 348 -15 288 -1 241 24 c 1
 183 -51 l 1
 147 -16 l 1
 200 53 l 1
 142 101 112 173 112 260 c 0
274 188 m 0
 274 176 277 165 278 154 c 1
 623 602 l 1
 607 638 576 661 523 661 c 0
 357 661 274 349 274 188 c 0
294 94 m 1
 314 53 350 31 401 31 c 0
 551 31 642 312 642 508 c 0
 642 520 640 531 638 541 c 1
 294 94 l 1
EndSplineSet
EndChar

StartChar: Ugrave
Encoding: 217 217 153
Width: 776
GlyphClass: 2
Flags: MW
HStem: -15 46<367.5 441.5> 652 40
VStem: 150 152
AnchorPoint: "Anchor-3" 592 899 basechar 0
AnchorPoint: "Anchor-2" 405 0 basechar 0
LayerCount: 2
Fore
SplineSet
304 840 m 0
 304 860 326 904 358 904 c 0
 376 904 391 897 422 874 c 2
 594 751 l 1
 580 719 l 1
 377 783 l 2
 324 800 304 811 304 840 c 0
159 241 m 2
 238 594 l 2
 246 630 247 647 219 649 c 2
 168 654 l 1
 178 692 l 1
 490 692 l 1
 480 654 l 1
 436 650 l 2
 407 648 400 630 392 594 c 2
 312 233 l 2
 279 82 328 31 407 31 c 0
 495 31 541 104 575 258 c 2
 650 594 l 2
 658 630 659 647 631 649 c 2
 580 654 l 1
 590 692 l 1
 902 692 l 1
 892 654 l 1
 848 650 l 2
 819 648 812 630 804 594 c 2
 726 253 l 2
 701 142 662 74 612 38 c 0
 557 -1 481 -15 402 -15 c 0
 306 -15 227 9 185 55 c 0
 148 97 141 161 159 241 c 2
EndSplineSet
EndChar

StartChar: Uacute
Encoding: 218 218 154
Width: 776
GlyphClass: 2
Flags: MW
HStem: -15 46<367.5 441.5> 652 40
VStem: 150 152
AnchorPoint: "Anchor-3" 592 899 basechar 0
AnchorPoint: "Anchor-2" 405 0 basechar 0
LayerCount: 2
Fore
SplineSet
519 751 m 1
 691 874 l 2
 722 897 737 904 755 904 c 0
 787 904 809 860 809 840 c 0
 809 811 789 800 736 783 c 2
 533 719 l 1
 519 751 l 1
159 241 m 2
 238 594 l 2
 246 630 247 647 219 649 c 2
 168 654 l 1
 178 692 l 1
 490 692 l 1
 480 654 l 1
 436 650 l 2
 407 648 400 630 392 594 c 2
 312 233 l 2
 279 82 328 31 407 31 c 0
 495 31 541 104 575 258 c 2
 650 594 l 2
 658 630 659 647 631 649 c 2
 580 654 l 1
 590 692 l 1
 902 692 l 1
 892 654 l 1
 848 650 l 2
 819 648 812 630 804 594 c 2
 726 253 l 2
 701 142 662 74 612 38 c 0
 557 -1 481 -15 402 -15 c 0
 306 -15 227 9 185 55 c 0
 148 97 141 161 159 241 c 2
EndSplineSet
EndChar

StartChar: Ucircumflex
Encoding: 219 219 155
Width: 776
GlyphClass: 2
Flags: MW
HStem: -15 46<367.5 441.5> 652 40
VStem: 150 152
AnchorPoint: "Anchor-3" 593 900 basechar 0
AnchorPoint: "Anchor-2" 405 0 basechar 0
LayerCount: 2
Fore
SplineSet
351 755 m 1
 523 879 l 2
 541 892 558 905 575 905 c 0
 593 905 606 892 620 877 c 2
 732 755 l 1
 708 725 l 1
 602 785 l 2
 583 796 573 800 561 800 c 0
 551 800 538 795 519 787 c 2
 368 725 l 1
 351 755 l 1
159 241 m 2
 238 594 l 2
 246 630 247 647 219 649 c 2
 168 654 l 1
 178 692 l 1
 490 692 l 1
 480 654 l 1
 436 650 l 2
 407 648 400 630 392 594 c 2
 312 233 l 2
 279 82 328 31 407 31 c 0
 495 31 541 104 575 258 c 2
 650 594 l 2
 658 630 659 647 631 649 c 2
 580 654 l 1
 590 692 l 1
 902 692 l 1
 892 654 l 1
 848 650 l 2
 819 648 812 630 804 594 c 2
 726 253 l 2
 701 142 662 74 612 38 c 0
 557 -1 481 -15 402 -15 c 0
 306 -15 227 9 185 55 c 0
 148 97 141 161 159 241 c 2
EndSplineSet
EndChar

StartChar: Udieresis
Encoding: 220 220 156
Width: 776
GlyphClass: 2
Flags: MW
HStem: -15 46<367.5 441.5> 652 40 732 149<396.5 448 648.5 700>
VStem: 150 152 343 158<787 825> 595 158<787 825>
AnchorPoint: "Anchor-3" 587 876 basechar 0
AnchorPoint: "Anchor-2" 405 0 basechar 0
LayerCount: 2
Fore
SplineSet
595 806 m 0
 595 844 623 881 674 881 c 0
 726 881 753 844 753 806 c 0
 753 768 726 732 674 732 c 0
 623 732 595 768 595 806 c 0
343 806 m 0
 343 844 371 881 422 881 c 0
 474 881 501 844 501 806 c 0
 501 768 474 732 422 732 c 0
 371 732 343 768 343 806 c 0
159 241 m 2
 238 594 l 2
 246 630 247 647 219 649 c 2
 168 654 l 1
 178 692 l 1
 490 692 l 1
 480 654 l 1
 436 650 l 2
 407 648 400 630 392 594 c 2
 312 233 l 2
 279 82 328 31 407 31 c 0
 495 31 541 104 575 258 c 2
 650 594 l 2
 658 630 659 647 631 649 c 2
 580 654 l 1
 590 692 l 1
 902 692 l 1
 892 654 l 1
 848 650 l 2
 819 648 812 630 804 594 c 2
 726 253 l 2
 701 142 662 74 612 38 c 0
 557 -1 481 -15 402 -15 c 0
 306 -15 227 9 185 55 c 0
 148 97 141 161 159 241 c 2
EndSplineSet
EndChar

StartChar: Yacute
Encoding: 221 221 157
Width: 622
GlyphClass: 2
Flags: MW
HStem: 0 38<152 152 152 482 143 152> 654 38<428 428 793 793> 719 185
VStem: 472 290<751 850>
AnchorPoint: "Anchor-3" 511 899 basechar 0
AnchorPoint: "Anchor-2" 304 0 basechar 0
LayerCount: 2
Fore
SplineSet
472 751 m 1
 644 874 l 2
 675 897 690 904 708 904 c 0
 740 904 762 860 762 840 c 0
 762 811 742 800 689 783 c 2
 486 719 l 1
 472 751 l 1
127 656 m 1
 135 692 l 1
 436 692 l 1
 428 654 l 1
 373 648 l 2
 353 646 352 636 356 619 c 2
 426 347 l 1
 428 347 l 1
 492 438 576 565 606 615 c 0
 618 635 615 647 593 649 c 2
 540 654 l 1
 548 692 l 1
 800 692 l 1
 793 654 l 1
 764 651 l 2
 727 647 715 633 688 603 c 0
 638 547 543 420 477 323 c 0
 459 297 449 278 443 251 c 2
 408 98 l 2
 400 62 399 45 427 43 c 2
 491 38 l 1
 482 0 l 1
 143 0 l 1
 152 38 l 1
 211 42 l 2
 240 44 247 62 255 98 c 2
 287 246 l 2
 293 273 290 292 285 311 c 0
 260 414 231 516 202 609 c 0
 192 642 183 651 161 653 c 2
 127 656 l 1
EndSplineSet
EndChar

StartChar: Thorn
Encoding: 222 222 158
Width: 629
GlyphClass: 2
Flags: MW
HStem: 0 40 176 46<346 406 310 427> 502 46<414.5 456 456 468.5> 652 40
VStem: 536 159
LayerCount: 2
Fore
SplineSet
40 0 m 1
 49 38 l 1
 94 42 l 2
 123 44 130 62 138 98 c 2
 250 594 l 2
 258 630 259 647 231 649 c 2
 180 654 l 1
 190 692 l 1
 501 692 l 1
 491 654 l 1
 447 650 l 2
 418 648 411 630 403 594 c 2
 392 548 l 1
 456 548 l 2
 591 548 697 501 695 373 c 1
 693 310 663 260 614 226 c 0
 565 192 490 176 406 176 c 2
 310 176 l 1
 292 98 l 2
 284 64 283 45 313 43 c 2
 378 38 l 1
 370 0 l 1
 40 0 l 1
327 261 m 2
 321 233 328 222 364 222 c 0
 490 222 534 314 536 398 c 0
 537 463 500 502 437 502 c 0
 392 502 380 491 374 464 c 2
 327 261 l 2
EndSplineSet
EndChar

StartChar: germandbls
Encoding: 223 223 159
Width: 628
GlyphClass: 2
Flags: MW
HStem: -242 46<-12.5 56> -10 46<467.5 489.5 467.5 522.5> 442 48<119 194 105 205> 696 46<471 541.5>
VStem: 397 134<373 384.5> 521 119<68.5 173> 602 125<593.5 636>
LayerCount: 2
Fore
SplineSet
-94 -168 m 0xfa
 -94 -137 -66 -109 -34 -109 c 0
 -12 -109 -4 -125 5 -140 c 0
 29 -182 42 -196 52 -196 c 0
 60 -196 67 -187 71 -169 c 2
 194 442 l 1
 105 442 l 1
 119 490 l 1
 205 490 l 1
 212 512 l 1
 240 604 309 742 512 742 c 0
 660 742 727 676 727 601 c 0
 727 565 717 520 661 479 c 1
 546 479 531 424 531 392 c 0xfa
 531 354 567 309 587 281 c 0
 614 244 640 199 640 147 c 0
 640 77 589 -10 456 -10 c 0
 379 -10 323 21 323 58 c 1
 322 89 350 111 378 111 c 0
 394 111 404 103 412 91 c 0
 439 50 457 36 478 36 c 0
 501 36 521 53 521 84 c 0xf4
 521 122 490 161 453 212 c 0
 422 254 397 301 397 342 c 0
 397 427 465 488 539 492 c 1
 588 530 602 576 602 611 c 0
 602 661 566 696 517 696 c 0
 425 696 372 564 339 426 c 2
 245 28 l 2
 203 -151 147 -239 26 -242 c 1
 -51 -242 -94 -210 -94 -168 c 0xfa
EndSplineSet
EndChar

StartChar: agrave
Encoding: 224 224 160
Width: 596
GlyphClass: 2
Flags: MW
HStem: -12 80<123.5 260> 456 46<361.5 422.5 290 427.5> 474 20<484 621 621 621> 511 229<273 483>
VStem: 61 154<101 167.5 101 173.5> 232 272<541 692.5>
AnchorPoint: "Anchor-3" 459 720 basechar 0
AnchorPoint: "Anchor-2" 293 0 basechar 0
LayerCount: 2
Fore
SplineSet
61 108 m 0xa8
 61 239 171 502 409 502 c 0xc8
 436 502 462 496 480 485 c 1
 484 494 l 1
 621 494 l 1
 520 115 l 2
 513 88 513 68 531 68 c 0
 555 68 593 121 618 165 c 1
 647 149 l 1
 605 65 543 -12 448 -12 c 0
 385 -12 362 29 386 114 c 2
 411 202 l 1
 405 202 l 1
 352 111 278 -12 159 -12 c 0
 88 -12 61 47 61 108 c 0xa8
215 115 m 0
 215 87 221 68 244 68 c 0
 276 68 315 116 364 194 c 1
 413 274 449 371 467 442 c 1
 454 451 437 456 418 456 c 0
 305 456 215 220 215 115 c 0
232 680 m 0x14
 232 705 261 740 285 740 c 0
 305 740 322 728 359 690 c 2
 504 541 l 1
 483 511 l 1
 300 614 l 2
 264 634 232 654 232 680 c 0x14
EndSplineSet
EndChar

StartChar: aacute
Encoding: 225 225 161
Width: 596
GlyphClass: 2
Flags: MW
HStem: -12 80<123.5 260> 456 46<361.5 422.5 290 427.5> 474 20<484 621 621 621> 511 229<365 575>
VStem: 61 154<101 167.5 101 173.5> 344 272<541 692.5>
AnchorPoint: "Anchor-3" 459 720 basechar 0
AnchorPoint: "Anchor-2" 293 0 basechar 0
LayerCount: 2
Fore
SplineSet
344 541 m 1x14
 489 690 l 2
 526 728 543 740 563 740 c 0
 587 740 616 705 616 680 c 0
 616 654 584 634 548 614 c 2
 365 511 l 1
 344 541 l 1x14
61 108 m 0xa8
 61 239 171 502 409 502 c 0xc8
 436 502 462 496 480 485 c 1
 484 494 l 1
 621 494 l 1
 520 115 l 2
 513 88 513 68 531 68 c 0
 555 68 593 121 618 165 c 1
 647 149 l 1
 605 65 543 -12 448 -12 c 0
 385 -12 362 29 386 114 c 2
 411 202 l 1
 405 202 l 1
 352 111 278 -12 159 -12 c 0
 88 -12 61 47 61 108 c 0xa8
215 115 m 0
 215 87 221 68 244 68 c 0
 276 68 315 116 364 194 c 1
 413 274 449 371 467 442 c 1
 454 451 437 456 418 456 c 0
 305 456 215 220 215 115 c 0
EndSplineSet
EndChar

StartChar: acircumflex
Encoding: 226 226 162
Width: 596
GlyphClass: 2
Flags: MW
HStem: -12 80<123.5 260> 456 46<361.5 422.5 290 427.5> 474 20<484 621 621 621> 520 227<254 467.5 451.5 580>
VStem: 61 154<101 167.5 101 173.5> 231 378<547 547>
AnchorPoint: "Anchor-3" 461 727 basechar 0
AnchorPoint: "Anchor-2" 293 0 basechar 0
LayerCount: 2
Fore
SplineSet
231 547 m 1x14
 411 720 l 2
 427 736 444 747 459 747 c 0
 476 747 485 734 495 719 c 2
 609 547 l 1
 580 520 l 1
 467 616 l 2
 457 625 447 633 437 633 c 0
 428 633 413 625 399 616 c 2
 254 520 l 1
 231 547 l 1x14
61 108 m 0xa8
 61 239 171 502 409 502 c 0xc8
 436 502 462 496 480 485 c 1
 484 494 l 1
 621 494 l 1
 520 115 l 2
 513 88 513 68 531 68 c 0
 555 68 593 121 618 165 c 1
 647 149 l 1
 605 65 543 -12 448 -12 c 0
 385 -12 362 29 386 114 c 2
 411 202 l 1
 405 202 l 1
 352 111 278 -12 159 -12 c 0
 88 -12 61 47 61 108 c 0xa8
215 115 m 0
 215 87 221 68 244 68 c 0
 276 68 315 116 364 194 c 1
 413 274 449 371 467 442 c 1
 454 451 437 456 418 456 c 0
 305 456 215 220 215 115 c 0
EndSplineSet
EndChar

StartChar: atilde
Encoding: 227 227 163
Width: 596
GlyphClass: 2
Flags: MW
HStem: -12 80<123.5 260> 456 46<361.5 422.5 290 427.5> 474 20<484 621 621 621> 562 84 604 84<311.5 339>
AnchorPoint: "Anchor-3" 449 677 basechar 0
AnchorPoint: "Anchor-2" 293 0 basechar 0
LayerCount: 2
Fore
SplineSet
227 567 m 1x88
 235 609 271 688 352 688 c 0x88
 380 688 413 677 446 666 c 0
 479 656 512 645 538 646 c 1
 559 648 577 656 613 697 c 1
 635 684 l 1
 603 620 581 562 508 562 c 0x90
 487 562 456 573 423 583 c 0
 390 594 354 604 324 604 c 0
 287 604 271 588 249 549 c 1
 227 567 l 1x88
61 108 m 0
 61 239 171 502 409 502 c 0xc0
 436 502 462 496 480 485 c 1
 484 494 l 1
 621 494 l 1xa0
 520 115 l 2
 513 88 513 68 531 68 c 0
 555 68 593 121 618 165 c 1
 647 149 l 1
 605 65 543 -12 448 -12 c 0
 385 -12 362 29 386 114 c 2
 411 202 l 1
 405 202 l 1
 352 111 278 -12 159 -12 c 0
 88 -12 61 47 61 108 c 0
215 115 m 0
 215 87 221 68 244 68 c 0
 276 68 315 116 364 194 c 1
 413 274 449 371 467 442 c 1
 454 451 437 456 418 456 c 0
 305 456 215 220 215 115 c 0
EndSplineSet
EndChar

StartChar: adieresis
Encoding: 228 228 164
Width: 596
GlyphClass: 2
Flags: MW
HStem: -12 80<123.5 260> 456 46<361.5 422.5 290 427.5> 474 20<484 621 621 621> 561 149<292.5 344 532.5 584>
VStem: 61 154<101 167.5 101 173.5> 239 158<616 654> 479 158<616 654>
AnchorPoint: "Anchor-3" 452 690 basechar 0
AnchorPoint: "Anchor-2" 293 0 basechar 0
LayerCount: 2
Fore
SplineSet
479 635 m 0x16
 479 673 507 710 558 710 c 0
 610 710 637 673 637 635 c 0
 637 597 610 561 558 561 c 0
 507 561 479 597 479 635 c 0x16
239 635 m 0
 239 673 267 710 318 710 c 0
 370 710 397 673 397 635 c 0
 397 597 370 561 318 561 c 0
 267 561 239 597 239 635 c 0
61 108 m 0xa8
 61 239 171 502 409 502 c 0xc8
 436 502 462 496 480 485 c 1
 484 494 l 1
 621 494 l 1
 520 115 l 2
 513 88 513 68 531 68 c 0
 555 68 593 121 618 165 c 1
 647 149 l 1
 605 65 543 -12 448 -12 c 0
 385 -12 362 29 386 114 c 2
 411 202 l 1
 405 202 l 1
 352 111 278 -12 159 -12 c 0
 88 -12 61 47 61 108 c 0xa8
215 115 m 0
 215 87 221 68 244 68 c 0
 276 68 315 116 364 194 c 1
 413 274 449 371 467 442 c 1
 454 451 437 456 418 456 c 0
 305 456 215 220 215 115 c 0
EndSplineSet
EndChar

StartChar: aring
Encoding: 229 229 165
Width: 596
GlyphClass: 2
Flags: MW
HStem: -12 80<123.5 260> 456 46<361.5 422.5 290 427.5> 474 20<484 621 621 621> 529 40<405.5 437.5 405.5 452> 722 40<418 452.5>
VStem: 61 154<101 167.5 101 173.5> 299 68<605 654 605 663.5> 488 68<635 683>
LayerCount: 2
Fore
SplineSet
299 627 m 0x1b
 299 700 342 762 443 762 c 0
 514 762 556 721 556 660 c 0
 556 570 491 529 413 529 c 0
 345 529 299 566 299 627 c 0x1b
367 624 m 0
 367 586 392 569 419 569 c 0
 456 569 488 603 488 667 c 0
 488 699 468 722 437 722 c 0
 399 722 367 684 367 624 c 0
61 108 m 0xa4
 61 239 171 502 409 502 c 0xc4
 436 502 462 496 480 485 c 1
 484 494 l 1
 621 494 l 1
 520 115 l 2
 513 88 513 68 531 68 c 0
 555 68 593 121 618 165 c 1
 647 149 l 1
 605 65 543 -12 448 -12 c 0
 385 -12 362 29 386 114 c 2
 411 202 l 1
 405 202 l 1
 352 111 278 -12 159 -12 c 0
 88 -12 61 47 61 108 c 0xa4
215 115 m 0
 215 87 221 68 244 68 c 0
 276 68 315 116 364 194 c 1
 413 274 449 371 467 442 c 1
 454 451 437 456 418 456 c 0
 305 456 215 220 215 115 c 0
EndSplineSet
EndChar

StartChar: ae
Encoding: 230 230 166
Width: 789
GlyphClass: 2
Flags: MW
HStem: -12 66<583.5 594.5> -12 80<124 260> 456 46<361.5 423 290.5 427.5 671.5 691.5>
VStem: 61 154<101 167.5 101 173.5> 398 136<135 163 163 164 135 189> 718 127
AnchorPoint: "Anchor-3" 550 502 basechar 0
AnchorPoint: "Anchor-2" 398 0 basechar 0
LayerCount: 2
Fore
SplineSet
61 108 m 0x7c
 61 239 171 502 410 502 c 0
 436 502 462 496 485 485 c 1
 514 509 l 1
 568 509 l 1
 548 443 l 1
 550 441 l 1
 595 483 648 502 695 502 c 0
 783 502 845 457 845 386 c 0
 845 355 838 322 799 286 c 1
 756 248 687 216 534 187 c 1
 534 163 l 2
 534 107 553 54 614 54 c 0
 674 54 721 100 774 176 c 1
 804 152 l 1
 731 20 637 -12 552 -12 c 0xbc
 482 -12 398 23 398 161 c 0
 398 167 399 178 400 187 c 1
 398 189 l 1
 346 101 273 -12 160 -12 c 0
 88 -12 61 47 61 108 c 0x7c
215 115 m 0
 215 87 221 68 244 68 c 0x7c
 276 68 315 116 364 194 c 1
 413 274 449 371 467 442 c 1
 454 451 437 456 418 456 c 0
 305 456 215 220 215 115 c 0
538 232 m 1
 654 255 717 334 718 413 c 1
 717 440 704 456 679 456 c 0
 620 456 552 347 538 232 c 1
EndSplineSet
EndChar

StartChar: ccedilla
Encoding: 231 231 167
Width: 456
GlyphClass: 2
Flags: MW
HStem: -246 35<121 190.5> 456 46<329.5 371>
VStem: 73 153<131.5 230 131.5 232.5> 405 128
AnchorPoint: "Anchor-3" 384 502 basechar 0
LayerCount: 2
Fore
SplineSet
73 155 m 0
 73 310 179 502 384 502 c 0
 476 502 533 462 533 405 c 0
 533 369 481 342 446 342 c 0
 419 342 411 364 405 389 c 0
 392 442 381 456 361 456 c 0
 298 456 226 298 226 162 c 0
 226 101 244 54 297 54 c 0
 363 54 410 119 448 180 c 1
 478 159 l 1
 419 42 343 2 277 -8 c 1
 239 -56 l 1
 269 -60 333 -79 326 -151 c 0
 318 -232 214 -246 167 -246 c 0
 147 -246 136 -245 119 -243 c 1
 121 -211 l 1
 177 -211 218 -196 222 -153 c 0
 227 -109 184 -100 162 -98 c 1
 159 -90 l 1
 217 -11 l 1
 136 -5 73 43 73 155 c 0
EndSplineSet
EndChar

StartChar: egrave
Encoding: 232 232 168
Width: 476
GlyphClass: 2
Flags: MW
HStem: -12 66<270.5 279.5> 456 46<337.5 379>
VStem: 73 149<136 163 163 187 136 199.5> 404 128<373 421.5 370.5 426>
AnchorPoint: "Anchor-3" 434 720 basechar 0
AnchorPoint: "Anchor-2" 239 0 basechar 0
LayerCount: 2
Fore
SplineSet
73 161 m 0
 73 238 100 320 154 388 c 0
 208 456 285 502 384 502 c 0
 469 502 532 457 532 386 c 0
 532 355 525 322 486 286 c 1
 443 248 372 216 222 187 c 1
 222 163 l 2
 222 109 241 54 300 54 c 0
 360 54 407 100 460 176 c 1
 490 152 l 1
 417 20 323 -12 236 -12 c 0
 164 -12 73 23 73 161 c 0
226 232 m 1
 342 255 404 334 404 412 c 0
 404 440 391 456 367 456 c 0
 308 456 240 347 226 232 c 1
192 680 m 0
 192 705 221 740 245 740 c 0
 265 740 282 728 319 690 c 2
 464 541 l 1
 443 511 l 1
 260 614 l 2
 224 634 192 654 192 680 c 0
EndSplineSet
EndChar

StartChar: eacute
Encoding: 233 233 169
Width: 476
GlyphClass: 2
Flags: MW
HStem: -12 66<270.5 279.5> 456 46<337.5 379>
VStem: 73 149<136 163 163 187 136 199.5> 404 128<373 421.5 370.5 426>
AnchorPoint: "Anchor-3" 434 720 basechar 0
AnchorPoint: "Anchor-2" 239 0 basechar 0
LayerCount: 2
Fore
SplineSet
294 541 m 1
 439 690 l 2
 476 728 493 740 513 740 c 0
 537 740 566 705 566 680 c 0
 566 654 534 634 498 614 c 2
 315 511 l 1
 294 541 l 1
73 161 m 0
 73 238 100 320 154 388 c 0
 208 456 285 502 384 502 c 0
 469 502 532 457 532 386 c 0
 532 355 525 322 486 286 c 1
 443 248 372 216 222 187 c 1
 222 163 l 2
 222 109 241 54 300 54 c 0
 360 54 407 100 460 176 c 1
 490 152 l 1
 417 20 323 -12 236 -12 c 0
 164 -12 73 23 73 161 c 0
226 232 m 1
 342 255 404 334 404 412 c 0
 404 440 391 456 367 456 c 0
 308 456 240 347 226 232 c 1
EndSplineSet
EndChar

StartChar: ecircumflex
Encoding: 234 234 170
Width: 476
GlyphClass: 2
Flags: MW
HStem: -12 66<270.5 279.5> 456 46<337.5 379>
VStem: 73 149<136 163 163 187 136 199.5> 404 128<373 421.5 370.5 426>
AnchorPoint: "Anchor-3" 436 727 basechar 0
AnchorPoint: "Anchor-2" 239 0 basechar 0
LayerCount: 2
Fore
SplineSet
181 547 m 1
 361 720 l 2
 377 736 394 747 409 747 c 0
 426 747 435 734 445 719 c 2
 559 547 l 1
 530 520 l 1
 417 616 l 2
 407 625 397 633 387 633 c 0
 378 633 363 625 349 616 c 2
 204 520 l 1
 181 547 l 1
73 161 m 0
 73 238 100 320 154 388 c 0
 208 456 285 502 384 502 c 0
 469 502 532 457 532 386 c 0
 532 355 525 322 486 286 c 1
 443 248 372 216 222 187 c 1
 222 163 l 2
 222 109 241 54 300 54 c 0
 360 54 407 100 460 176 c 1
 490 152 l 1
 417 20 323 -12 236 -12 c 0
 164 -12 73 23 73 161 c 0
226 232 m 1
 342 255 404 334 404 412 c 0
 404 440 391 456 367 456 c 0
 308 456 240 347 226 232 c 1
EndSplineSet
EndChar

StartChar: edieresis
Encoding: 235 235 171
Width: 476
GlyphClass: 2
Flags: MW
HStem: -12 66<270.5 279.5> 456 46<337.5 379> 561 149<232.5 284 472.5 524>
VStem: 73 149<136 163 163 187 136 199.5> 179 158<616 654> 404 128<373 421.5 370.5 426> 419 158<616 654>
AnchorPoint: "Anchor-3" 427 690 basechar 0
AnchorPoint: "Anchor-2" 239 0 basechar 0
LayerCount: 2
Fore
SplineSet
419 635 m 0x2a
 419 673 447 710 498 710 c 0
 550 710 577 673 577 635 c 0
 577 597 550 561 498 561 c 0
 447 561 419 597 419 635 c 0x2a
179 635 m 0
 179 673 207 710 258 710 c 0
 310 710 337 673 337 635 c 0
 337 597 310 561 258 561 c 0
 207 561 179 597 179 635 c 0
73 161 m 0xd4
 73 238 100 320 154 388 c 0
 208 456 285 502 384 502 c 0
 469 502 532 457 532 386 c 0
 532 355 525 322 486 286 c 1
 443 248 372 216 222 187 c 1
 222 163 l 2
 222 109 241 54 300 54 c 0
 360 54 407 100 460 176 c 1
 490 152 l 1
 417 20 323 -12 236 -12 c 0
 164 -12 73 23 73 161 c 0xd4
226 232 m 1
 342 255 404 334 404 412 c 0
 404 440 391 456 367 456 c 0
 308 456 240 347 226 232 c 1
EndSplineSet
EndChar

StartChar: igrave
Encoding: 236 236 172
Width: 339
GlyphClass: 3
Flags: MW
HStem: -12 80<144.5 273.5> 440 33<110 118> 482 20<348 348> 511 229<145 355>
VStem: 104 272<541 692.5>
AnchorPoint: "Anchor-3" 324 720 basechar 0
AnchorPoint: "Anchor-2" 159 0 basechar 0
LayerCount: 2
Fore
SplineSet
108 107 m 2
 185 392 l 2
 192 419 188 432 168 434 c 2
 110 440 l 1
 118 473 l 1
 348 502 l 1
 354 496 l 1
 251 115 l 2
 244 89 243 68 262 68 c 0
 285 68 323 121 348 166 c 1
 378 149 l 1
 336 65 275 -12 178 -12 c 0
 111 -12 87 30 108 107 c 2
104 680 m 0
 104 705 133 740 157 740 c 0
 177 740 194 728 231 690 c 2
 376 541 l 1
 355 511 l 1
 172 614 l 2
 136 634 104 654 104 680 c 0
EndSplineSet
Ligature2: "'liga' Standard Ligatures in Latin lookup 1 subtable" i gravecomb
EndChar

StartChar: iacute
Encoding: 237 237 173
Width: 339
GlyphClass: 3
Flags: MW
HStem: -12 80<144.5 273.5> 440 33<110 118> 482 20<348 348> 511 229<192 402>
VStem: 171 272<541 692.5>
AnchorPoint: "Anchor-3" 324 720 basechar 0
AnchorPoint: "Anchor-2" 159 0 basechar 0
LayerCount: 2
Fore
SplineSet
108 107 m 2
 185 392 l 2
 192 419 188 432 168 434 c 2
 110 440 l 1
 118 473 l 1
 348 502 l 1
 354 496 l 1
 251 115 l 2
 244 89 243 68 262 68 c 0
 285 68 323 121 348 166 c 1
 378 149 l 1
 336 65 275 -12 178 -12 c 0
 111 -12 87 30 108 107 c 2
171 541 m 1
 316 690 l 2
 353 728 370 740 390 740 c 0
 414 740 443 705 443 680 c 0
 443 654 411 634 375 614 c 2
 192 511 l 1
 171 541 l 1
EndSplineSet
Ligature2: "'liga' Standard Ligatures in Latin lookup 1 subtable" i acutecomb
Ligature2: "'liga' Standard Ligatures in Cyrillic lookup 0 subtable" afii10103 acutecomb
EndChar

StartChar: icircumflex
Encoding: 238 238 174
Width: 339
GlyphClass: 3
Flags: MW
HStem: -12 80<144.5 273.5> 440 33<110 118> 482 20<348 348> 520 227<96 309.5 293.5 422>
VStem: 73 378<547 547>
AnchorPoint: "Anchor-3" 326 727 basechar 0
AnchorPoint: "Anchor-2" 159 0 basechar 0
LayerCount: 2
Fore
SplineSet
73 547 m 1
 253 720 l 2
 269 736 286 747 301 747 c 0
 318 747 327 734 337 719 c 2
 451 547 l 1
 422 520 l 1
 309 616 l 2
 299 625 289 633 279 633 c 0
 270 633 255 625 241 616 c 2
 96 520 l 1
 73 547 l 1
108 107 m 2
 185 392 l 2
 192 419 188 432 168 434 c 2
 110 440 l 1
 118 473 l 1
 348 502 l 1
 354 496 l 1
 251 115 l 2
 244 89 243 68 262 68 c 0
 285 68 323 121 348 166 c 1
 378 149 l 1
 336 65 275 -12 178 -12 c 0
 111 -12 87 30 108 107 c 2
EndSplineSet
Ligature2: "'liga' Standard Ligatures in Latin lookup 1 subtable" i uni0302
EndChar

StartChar: idieresis
Encoding: 239 239 175
Width: 339
GlyphClass: 3
Flags: MW
HStem: -12 80<144.5 273.5> 440 33<110 118> 482 20<348 348> 561 149<134.5 186 374.5 426>
VStem: 81 158<616 654> 321 158<616 654>
AnchorPoint: "Anchor-3" 318 690 basechar 0
LayerCount: 2
Fore
SplineSet
108 107 m 2
 185 392 l 2
 192 419 188 432 168 434 c 2
 110 440 l 1
 118 473 l 1
 348 502 l 1
 354 496 l 1
 251 115 l 2
 244 89 243 68 262 68 c 0
 285 68 323 121 348 166 c 1
 378 149 l 1
 336 65 275 -12 178 -12 c 0
 111 -12 87 30 108 107 c 2
321 635 m 0
 321 673 349 710 400 710 c 0
 452 710 479 673 479 635 c 0
 479 597 452 561 400 561 c 0
 349 561 321 597 321 635 c 0
81 635 m 0
 81 673 109 710 160 710 c 0
 212 710 239 673 239 635 c 0
 239 597 212 561 160 561 c 0
 109 561 81 597 81 635 c 0
EndSplineSet
Ligature2: "'liga' Standard Ligatures in Latin lookup 1 subtable" i uni0308
EndChar

StartChar: eth
Encoding: 240 240 176
Width: 562
GlyphClass: 2
Flags: MW
HStem: -12 46<263 334 263 347> 456 46<365.5 399.5 321.5 412.5> 722 20G<305 305>
VStem: 77 145<119 140.5 82 196.5> 446 145<337 387.5 294 395>
LayerCount: 2
Fore
SplineSet
77 174 m 0
 77 219 90 300 135 371 c 0
 179 441 252 502 391 502 c 0
 408 502 417 500 425 497 c 1
 425 500 l 1
 415 526 396 557 372 588 c 1
 235 532 l 1
 206 572 l 1
 339 626 l 1
 316 655 284 686 247 716 c 1
 248 727 l 1
 305 742 l 1
 344 718 386 689 420 659 c 1
 566 718 l 1
 593 678 l 1
 458 623 l 1
 534 545 591 452 591 323 c 0
 591 265 575 188 529 115 c 0
 482 40 410 -12 284 -12 c 0
 139 -12 77 64 77 174 c 0
222 107 m 0
 222 57 245 34 281 34 c 0
 387 34 446 300 446 374 c 0
 446 416 436 456 389 456 c 0
 342 456 304 407 274 339 c 0
 242 266 222 174 222 107 c 0
EndSplineSet
EndChar

StartChar: ntilde
Encoding: 241 241 177
Width: 635
GlyphClass: 2
Flags: MW
HStem: -12 80<442.5 571> 422 80 440 33<108 116> 562 84 604 84<316.5 344>
LayerCount: 2
Fore
SplineSet
232 567 m 1x88
 240 609 276 688 357 688 c 0x88
 385 688 418 677 451 666 c 0
 484 656 517 645 543 646 c 1
 564 648 582 656 618 697 c 1
 640 684 l 1
 608 620 586 562 513 562 c 0x90
 492 562 461 573 428 583 c 0
 395 594 359 604 329 604 c 0
 292 604 276 588 254 549 c 1
 232 567 l 1x88
80 -12 m 1
 183 391 l 1
 191 418 187 432 168 434 c 2
 108 440 l 1
 116 473 l 1xa0
 349 502 l 1
 354 497 l 1
 286 280 l 1
 292 280 l 1
 354 396 445 502 548 502 c 0
 632 502 646 436 623 357 c 1
 548 115 l 2
 540 89 541 68 559 68 c 0
 583 68 621 121 645 166 c 1
 674 148 l 1
 633 64 573 -12 473 -12 c 0
 412 -12 383 30 405 107 c 2
 481 363 l 2
 490 393 492 422 461 422 c 0xc0
 413 422 323 288 293 213 c 0
 270 155 250 102 221 0 c 1
 80 -12 l 1
EndSplineSet
EndChar

StartChar: ograve
Encoding: 242 242 178
Width: 562
GlyphClass: 2
Flags: MW
HStem: -12 46<263.5 334.5 263.5 347> 456 46<365.5 412.5>
VStem: 77 145<120 140.5 82 196.5> 446 145<337 385 285.5 395>
AnchorPoint: "Anchor-3" 431 720 basechar 0
AnchorPoint: "Anchor-2" 287 0 basechar 0
LayerCount: 2
Fore
SplineSet
77 174 m 0
 77 219 90 300 136 371 c 0
 181 441 252 502 381 502 c 0
 484 502 591 462 591 308 c 0
 591 263 575 188 529 115 c 0
 482 40 410 -12 284 -12 c 0
 139 -12 77 66 77 174 c 0
222 107 m 0
 222 57 245 34 282 34 c 0
 387 34 446 300 446 374 c 0
 446 416 436 456 389 456 c 0
 342 456 305 408 274 339 c 0
 242 266 222 174 222 107 c 0
215 680 m 0
 215 705 244 740 268 740 c 0
 288 740 305 728 342 690 c 2
 487 541 l 1
 466 511 l 1
 283 614 l 2
 247 634 215 654 215 680 c 0
EndSplineSet
EndChar

StartChar: oacute
Encoding: 243 243 179
Width: 562
GlyphClass: 2
Flags: MW
HStem: -12 46<263.5 334.5 263.5 347> 456 46<365.5 412.5>
VStem: 77 145<120 140.5 82 196.5> 446 145<337 385 285.5 395>
AnchorPoint: "Anchor-3" 431 720 basechar 0
AnchorPoint: "Anchor-2" 287 0 basechar 0
LayerCount: 2
Fore
SplineSet
317 541 m 1
 462 690 l 2
 499 728 516 740 536 740 c 0
 560 740 589 705 589 680 c 0
 589 654 557 634 521 614 c 2
 338 511 l 1
 317 541 l 1
77 174 m 0
 77 219 90 300 136 371 c 0
 181 441 252 502 381 502 c 0
 484 502 591 462 591 308 c 0
 591 263 575 188 529 115 c 0
 482 40 410 -12 284 -12 c 0
 139 -12 77 66 77 174 c 0
222 107 m 0
 222 57 245 34 282 34 c 0
 387 34 446 300 446 374 c 0
 446 416 436 456 389 456 c 0
 342 456 305 408 274 339 c 0
 242 266 222 174 222 107 c 0
EndSplineSet
EndChar

StartChar: ocircumflex
Encoding: 244 244 180
Width: 562
GlyphClass: 2
Flags: MW
HStem: -12 46<263.5 334.5 263.5 347> 456 46<365.5 412.5>
VStem: 77 145<120 140.5 82 196.5> 446 145<337 385 285.5 395>
AnchorPoint: "Anchor-3" 433 727 basechar 0
AnchorPoint: "Anchor-2" 287 0 basechar 0
LayerCount: 2
Fore
SplineSet
194 547 m 1
 374 720 l 2
 390 736 407 747 422 747 c 0
 439 747 448 734 458 719 c 2
 572 547 l 1
 543 520 l 1
 430 616 l 2
 420 625 410 633 400 633 c 0
 391 633 376 625 362 616 c 2
 217 520 l 1
 194 547 l 1
77 174 m 0
 77 219 90 300 136 371 c 0
 181 441 252 502 381 502 c 0
 484 502 591 462 591 308 c 0
 591 263 575 188 529 115 c 0
 482 40 410 -12 284 -12 c 0
 139 -12 77 66 77 174 c 0
222 107 m 0
 222 57 245 34 282 34 c 0
 387 34 446 300 446 374 c 0
 446 416 436 456 389 456 c 0
 342 456 305 408 274 339 c 0
 242 266 222 174 222 107 c 0
EndSplineSet
EndChar

StartChar: otilde
Encoding: 245 245 181
Width: 562
GlyphClass: 2
Flags: MW
HStem: -12 46<263.5 334.5 263.5 347> 456 46<365.5 412.5> 562 84 604 84<294.5 322>
AnchorPoint: "Anchor-3" 421 677 basechar 0
AnchorPoint: "Anchor-2" 287 0 basechar 0
LayerCount: 2
Fore
SplineSet
210 567 m 1xd0
 218 609 254 688 335 688 c 0xd0
 363 688 396 677 429 666 c 0
 462 656 495 645 521 646 c 1
 542 648 560 656 596 697 c 1
 618 684 l 1
 586 620 564 562 491 562 c 0xe0
 470 562 439 573 406 583 c 0
 373 594 337 604 307 604 c 0
 270 604 254 588 232 549 c 1
 210 567 l 1xd0
77 174 m 0
 77 219 90 300 136 371 c 0
 181 441 252 502 381 502 c 0
 484 502 591 462 591 308 c 0
 591 263 575 188 529 115 c 0
 482 40 410 -12 284 -12 c 0
 139 -12 77 66 77 174 c 0
222 107 m 0
 222 57 245 34 282 34 c 0
 387 34 446 300 446 374 c 0
 446 416 436 456 389 456 c 0
 342 456 305 408 274 339 c 0
 242 266 222 174 222 107 c 0
EndSplineSet
EndChar

StartChar: odieresis
Encoding: 246 246 182
Width: 562
GlyphClass: 2
Flags: MW
HStem: -12 46<263.5 334.5 263.5 347> 456 46<365.5 412.5> 561 149<275.5 327 515.5 567>
VStem: 77 145<120 140.5 82 196.5> 222 158<616 654> 446 145<337 385 285.5 395> 462 158<616 654>
AnchorPoint: "Anchor-3" 424 690 basechar 0
AnchorPoint: "Anchor-2" 287 0 basechar 0
LayerCount: 2
Fore
SplineSet
462 635 m 0x2a
 462 673 490 710 541 710 c 0
 593 710 620 673 620 635 c 0
 620 597 593 561 541 561 c 0
 490 561 462 597 462 635 c 0x2a
222 635 m 0
 222 673 250 710 301 710 c 0
 353 710 380 673 380 635 c 0
 380 597 353 561 301 561 c 0
 250 561 222 597 222 635 c 0
77 174 m 0xd4
 77 219 90 300 136 371 c 0
 181 441 252 502 381 502 c 0
 484 502 591 462 591 308 c 0
 591 263 575 188 529 115 c 0
 482 40 410 -12 284 -12 c 0
 139 -12 77 66 77 174 c 0xd4
222 107 m 0
 222 57 245 34 282 34 c 0
 387 34 446 300 446 374 c 0
 446 416 436 456 389 456 c 0
 342 456 305 408 274 339 c 0
 242 266 222 174 222 107 c 0
EndSplineSet
EndChar

StartChar: divide
Encoding: 247 247 183
Width: 600
GlyphClass: 2
Flags: MW
HStem: 7 139<320.5 360> 210 80<98 582 98 582> 354 139<320.5 360>
VStem: 272 138<57.5 77 57.5 95.5 404.5 424>
LayerCount: 2
Fore
SplineSet
272 77 m 0
 272 114 301 146 340 146 c 0
 380 146 410 114 411 78 c 1
 410 77 l 1
 410 38 380 7 340 7 c 0
 301 7 272 38 272 77 c 0
272 424 m 0
 272 461 301 493 340 493 c 0
 380 493 410 461 411 425 c 1
 410 424 l 1
 410 385 380 354 340 354 c 0
 301 354 272 385 272 424 c 0
98 210 m 1
 98 290 l 1
 582 290 l 1
 582 210 l 1
 98 210 l 1
EndSplineSet
EndChar

StartChar: oslash
Encoding: 248 248 184
Width: 562
GlyphClass: 2
Flags: MW
HStem: -12 46<271 339 271 347> 456 46<360.5 396.5 316.5 399.5>
VStem: 77 135<138.5 140.5 104.5 196.5> 456 135<337 355 288.5 376.5>
LayerCount: 2
Fore
SplineSet
77 174 m 0
 77 219 90 300 135 371 c 0
 179 441 252 502 381 502 c 0
 412 502 442 499 471 489 c 1
 510 549 l 1
 544 525 l 1
 510 473 l 1
 558 447 591 398 591 312 c 0
 591 265 575 188 529 115 c 0
 482 40 410 -12 284 -12 c 0
 252 -12 224 -8 200 0 c 1
 155 -69 l 1
 123 -42 l 1
 161 15 l 1
 103 46 77 103 77 174 c 0
212 107 m 0
 212 102 212 96 214 94 c 1
 438 437 l 1
 427 449 411 456 388 456 c 0
 333 456 295 408 264 339 c 0
 232 266 212 174 212 107 c 0
234 50 m 1
 245 39 261 34 281 34 c 0
 397 34 456 300 456 374 c 0
 456 379 456 384 455 387 c 1
 234 50 l 1
EndSplineSet
EndChar

StartChar: ugrave
Encoding: 249 249 185
Width: 634
GlyphClass: 2
Flags: MW
HStem: -12 80<143 301.5> 443 59 511 229<252 462>
VStem: 211 272<541 692.5>
AnchorPoint: "Anchor-3" 474 720 basechar 0
AnchorPoint: "Anchor-2" 308 0 basechar 0
LayerCount: 2
Fore
SplineSet
109 443 m 1
 117 476 l 1
 348 502 l 1
 353 497 l 1
 259 128 l 2
 249 91 250 68 278 68 c 0
 325 68 407 199 443 285 c 0
 465 335 481 388 510 490 c 1
 652 502 l 1
 551 115 l 1
 543 89 544 68 563 68 c 0
 586 68 623 121 649 166 c 1
 678 148 l 1
 637 65 576 -12 479 -12 c 0
 425 -12 397 28 415 96 c 2
 446 210 l 1
 442 210 l 1
 379 94 296 -12 183 -12 c 0
 103 -12 95 53 116 133 c 2
 183 391 l 2
 191 421 187 435 168 437 c 2
 109 443 l 1
211 680 m 0
 211 705 240 740 264 740 c 0
 284 740 301 728 338 690 c 2
 483 541 l 1
 462 511 l 1
 279 614 l 2
 243 634 211 654 211 680 c 0
EndSplineSet
EndChar

StartChar: uacute
Encoding: 250 250 186
Width: 634
GlyphClass: 2
Flags: MW
HStem: -12 80<143 301.5> 443 59 511 229<409 619>
VStem: 388 272<541 692.5>
AnchorPoint: "Anchor-3" 474 720 basechar 0
AnchorPoint: "Anchor-2" 308 0 basechar 0
LayerCount: 2
Fore
SplineSet
388 541 m 1
 533 690 l 2
 570 728 587 740 607 740 c 0
 631 740 660 705 660 680 c 0
 660 654 628 634 592 614 c 2
 409 511 l 1
 388 541 l 1
109 443 m 1
 117 476 l 1
 348 502 l 1
 353 497 l 1
 259 128 l 2
 249 91 250 68 278 68 c 0
 325 68 407 199 443 285 c 0
 465 335 481 388 510 490 c 1
 652 502 l 1
 551 115 l 1
 543 89 544 68 563 68 c 0
 586 68 623 121 649 166 c 1
 678 148 l 1
 637 65 576 -12 479 -12 c 0
 425 -12 397 28 415 96 c 2
 446 210 l 1
 442 210 l 1
 379 94 296 -12 183 -12 c 0
 103 -12 95 53 116 133 c 2
 183 391 l 2
 191 421 187 435 168 437 c 2
 109 443 l 1
EndSplineSet
EndChar

StartChar: ucircumflex
Encoding: 251 251 187
Width: 634
GlyphClass: 2
Flags: MW
HStem: -12 80<143 301.5> 443 59 520 227<248 461.5 445.5 574>
VStem: 225 378<547 547>
AnchorPoint: "Anchor-3" 476 727 basechar 0
AnchorPoint: "Anchor-2" 308 0 basechar 0
LayerCount: 2
Fore
SplineSet
225 547 m 1
 405 720 l 2
 421 736 438 747 453 747 c 0
 470 747 479 734 489 719 c 2
 603 547 l 1
 574 520 l 1
 461 616 l 2
 451 625 441 633 431 633 c 0
 422 633 407 625 393 616 c 2
 248 520 l 1
 225 547 l 1
109 443 m 1
 117 476 l 1
 348 502 l 1
 353 497 l 1
 259 128 l 2
 249 91 250 68 278 68 c 0
 325 68 407 199 443 285 c 0
 465 335 481 388 510 490 c 1
 652 502 l 1
 551 115 l 1
 543 89 544 68 563 68 c 0
 586 68 623 121 649 166 c 1
 678 148 l 1
 637 65 576 -12 479 -12 c 0
 425 -12 397 28 415 96 c 2
 446 210 l 1
 442 210 l 1
 379 94 296 -12 183 -12 c 0
 103 -12 95 53 116 133 c 2
 183 391 l 2
 191 421 187 435 168 437 c 2
 109 443 l 1
EndSplineSet
EndChar

StartChar: udieresis
Encoding: 252 252 188
Width: 634
GlyphClass: 2
Flags: MW
HStem: -12 80<143 301.5> 443 59 561 149<301.5 353 541.5 593>
VStem: 248 158<616 654> 488 158<616 654>
AnchorPoint: "Anchor-3" 467 690 basechar 0
AnchorPoint: "Anchor-2" 308 0 basechar 0
LayerCount: 2
Fore
SplineSet
488 635 m 0
 488 673 516 710 567 710 c 0
 619 710 646 673 646 635 c 0
 646 597 619 561 567 561 c 0
 516 561 488 597 488 635 c 0
248 635 m 0
 248 673 276 710 327 710 c 0
 379 710 406 673 406 635 c 0
 406 597 379 561 327 561 c 0
 276 561 248 597 248 635 c 0
109 443 m 1
 117 476 l 1
 348 502 l 1
 353 497 l 1
 259 128 l 2
 249 91 250 68 278 68 c 0
 325 68 407 199 443 285 c 0
 465 335 481 388 510 490 c 1
 652 502 l 1
 551 115 l 1
 543 89 544 68 563 68 c 0
 586 68 623 121 649 166 c 1
 678 148 l 1
 637 65 576 -12 479 -12 c 0
 425 -12 397 28 415 96 c 2
 446 210 l 1
 442 210 l 1
 379 94 296 -12 183 -12 c 0
 103 -12 95 53 116 133 c 2
 183 391 l 2
 191 421 187 435 168 437 c 2
 109 443 l 1
EndSplineSet
EndChar

StartChar: yacute
Encoding: 253 253 189
Width: 489
GlyphClass: 2
Flags: MW
HStem: -242 73<48 153.5> 424 30<57 119 57 57> 482 20<274 274 534 550> 511 229<312 522>
VStem: 200 117<-29 72> 291 272<541 692.5> 442 125
AnchorPoint: "Anchor-3" 431 720 basechar 0
AnchorPoint: "Anchor-2" 67 -242 basechar 0
LayerCount: 2
Fore
SplineSet
291 541 m 1x14
 436 690 l 2
 473 728 490 740 510 740 c 0
 534 740 563 705 563 680 c 0
 563 654 531 634 495 614 c 2
 312 511 l 1
 291 541 l 1x14
-14 -180 m 1xea
 -16 -141 18 -100 54 -99 c 0
 76 -99 85 -110 101 -132 c 0
 116 -154 131 -169 145 -169 c 0
 162 -169 177 -152 189 -112 c 0
 198 -82 200 -48 200 -10 c 0
 200 86 171 285 156 363 c 0
 148 408 141 425 119 424 c 1
 57 424 l 1
 57 454 l 1
 274 502 l 1
 282 498 l 1
 297 444 316 222 317 72 c 1
 320 72 l 1
 377 175 420 271 433 339 c 0
 441 381 443 442 442 477 c 1
 482 495 522 502 546 502 c 0
 554 502 567 472 567 448 c 0
 567 406 508 309 450 213 c 0
 389 113 332 5 311 -29 c 0
 229 -163 180 -242 77 -242 c 0
 19 -242 -14 -211 -14 -180 c 1xea
EndSplineSet
EndChar

StartChar: thorn
Encoding: 254 254 190
Width: 600
GlyphClass: 2
Flags: MW
HStem: -242 21G<29 29> -12 46<307 370.5 296.5 454> 422 80<431.5 566.5> 638 33<138 147> 680 20G<379 379>
VStem: 488 154
LayerCount: 2
Fore
SplineSet
29 -242 m 1
 209 580 l 2
 216 611 217 630 197 632 c 2
 138 638 l 1
 147 671 l 1
 379 700 l 1
 384 695 l 1
 277 286 l 1
 281 286 l 1
 358 429 443 502 530 502 c 0
 603 502 639 459 642 374 c 1
 646 300 575 -12 333 -12 c 0
 281 -12 246 -3 226 9 c 1
 169 -230 l 1
 29 -242 l 1
237 64 m 1
 255 46 281 34 312 34 c 0
 429 34 491 299 488 367 c 1
 488 403 477 422 451 422 c 0
 412 422 360 364 315 283 c 0
 279 217 249 117 237 64 c 1
EndSplineSet
EndChar

StartChar: ydieresis
Encoding: 255 255 191
Width: 489
GlyphClass: 2
Flags: MW
HStem: -242 73<48 153.5> 424 30<57 119 57 57> 482 20<274 274 534 550> 561 149<219.5 271 459.5 511>
VStem: 166 158<616 654> 200 117<-29 72> 406 158<616 654> 442 125
AnchorPoint: "Anchor-3" 424 690 basechar 0
AnchorPoint: "Anchor-2" 67 -242 basechar 0
LayerCount: 2
Fore
SplineSet
406 635 m 0x1a
 406 673 434 710 485 710 c 0
 537 710 564 673 564 635 c 0
 564 597 537 561 485 561 c 0
 434 561 406 597 406 635 c 0x1a
166 635 m 0
 166 673 194 710 245 710 c 0
 297 710 324 673 324 635 c 0
 324 597 297 561 245 561 c 0
 194 561 166 597 166 635 c 0
-14 -180 m 1xe5
 -16 -141 18 -100 54 -99 c 0
 76 -99 85 -110 101 -132 c 0
 116 -154 131 -169 145 -169 c 0
 162 -169 177 -152 189 -112 c 0
 198 -82 200 -48 200 -10 c 0
 200 86 171 285 156 363 c 0
 148 408 141 425 119 424 c 1
 57 424 l 1
 57 454 l 1
 274 502 l 1
 282 498 l 1
 297 444 316 222 317 72 c 1
 320 72 l 1
 377 175 420 271 433 339 c 0
 441 381 443 442 442 477 c 1
 482 495 522 502 546 502 c 0
 554 502 567 472 567 448 c 0
 567 406 508 309 450 213 c 0
 389 113 332 5 311 -29 c 0
 229 -163 180 -242 77 -242 c 0
 19 -242 -14 -211 -14 -180 c 1xe5
EndSplineSet
EndChar

StartChar: Amacron
Encoding: 256 256 192
Width: 634
GlyphClass: 2
Flags: MW
HStem: 0 40 246 48<260 429 260 434 234 429> 672 20<420 538 538 538> 770 77<321 689 339 671>
VStem: -24 698<0 38>
AnchorPoint: "Anchor-3" 513 842 basechar 0
AnchorPoint: "Anchor-2" 320 0 basechar 0
LayerCount: 2
Fore
SplineSet
321 770 m 1
 339 847 l 1
 689 847 l 1
 671 770 l 1
 321 770 l 1
-24 0 m 1
 -17 38 l 1
 10 41 l 2
 40 44 55 54 75 87 c 0
 103 133 166 243 226 349 c 2
 420 692 l 1
 538 692 l 1
 572 375 l 2
 580 302 594 159 602 86 c 0
 606 58 610 43 633 41 c 2
 674 38 l 1
 666 0 l 1
 366 0 l 1
 374 38 l 1
 426 42 l 2
 446 43 451 55 449 79 c 2
 434 246 l 1
 234 246 l 1
 202 188 176 132 148 79 c 0
 138 59 139 43 161 42 c 2
 217 38 l 1
 210 0 l 1
 -24 0 l 1
260 294 m 1
 429 294 l 1
 405 555 l 1
 403 555 l 1
 386 528 273 319 260 294 c 1
EndSplineSet
EndChar

StartChar: amacron
Encoding: 257 257 193
Width: 596
GlyphClass: 2
Flags: MW
HStem: -12 80<123.5 260> 456 46<361.5 422.5 290 427.5> 474 20<484 621 621 621> 592 72<275 601 290 586>
VStem: 61 154<101 167.5 101 173.5> 275 326<592 664>
AnchorPoint: "Anchor-3" 442 644 basechar 0
AnchorPoint: "Anchor-2" 293 0 basechar 0
LayerCount: 2
Fore
SplineSet
275 592 m 1x14
 290 664 l 1
 601 664 l 1
 586 592 l 1
 275 592 l 1x14
61 108 m 0xa8
 61 239 171 502 409 502 c 0xc8
 436 502 462 496 480 485 c 1
 484 494 l 1
 621 494 l 1
 520 115 l 2
 513 88 513 68 531 68 c 0
 555 68 593 121 618 165 c 1
 647 149 l 1
 605 65 543 -12 448 -12 c 0
 385 -12 362 29 386 114 c 2
 411 202 l 1
 405 202 l 1
 352 111 278 -12 159 -12 c 0
 88 -12 61 47 61 108 c 0xa8
215 115 m 0
 215 87 221 68 244 68 c 0
 276 68 315 116 364 194 c 1
 413 274 449 371 467 442 c 1
 454 451 437 456 418 456 c 0
 305 456 215 220 215 115 c 0
EndSplineSet
EndChar

StartChar: Abreve
Encoding: 258 258 194
Width: 634
GlyphClass: 2
Flags: MW
HStem: 0 40 246 48<260 429 260 434 234 429> 672 20<420 538 538 538> 746 77<461.5 556.5 461.5 558.5>
VStem: -24 698<0 38> 360 41<892 892> 649 41<892 892>
AnchorPoint: "Anchor-3" 524 887 basechar 0
AnchorPoint: "Anchor-2" 320 0 basechar 0
LayerCount: 2
Fore
SplineSet
-24 0 m 1xe8
 -17 38 l 1
 10 41 l 2
 40 44 55 54 75 87 c 0
 103 133 166 243 226 349 c 2
 420 692 l 1
 538 692 l 1
 572 375 l 2
 580 302 594 159 602 86 c 0
 606 58 610 43 633 41 c 2
 674 38 l 1
 666 0 l 1
 366 0 l 1
 374 38 l 1
 426 42 l 2
 446 43 451 55 449 79 c 2
 434 246 l 1
 234 246 l 1
 202 188 176 132 148 79 c 0
 138 59 139 43 161 42 c 2
 217 38 l 1
 210 0 l 1
 -24 0 l 1xe8
260 294 m 1
 429 294 l 1
 405 555 l 1
 403 555 l 1
 386 528 273 319 260 294 c 1
360 892 m 1x16
 401 892 l 1
 397 868 414 823 509 823 c 0
 604 823 641 868 649 892 c 1
 690 892 l 1
 673 818 626 746 491 746 c 0
 356 746 343 818 360 892 c 1x16
EndSplineSet
EndChar

StartChar: abreve
Encoding: 259 259 195
Width: 596
GlyphClass: 2
Flags: MW
HStem: -12 80<123.5 260> 456 46<361.5 422.5 290 427.5> 474 20G<484 621 621 621> 556 83<386 487.5 386 489.5>
VStem: 61 154<101 167.5 101 173.5> 302 34<714 714> 580 34<714 714>
AnchorPoint: "Anchor-3" 453 694 basechar 0
AnchorPoint: "Anchor-2" 293 0 basechar 0
LayerCount: 2
Fore
SplineSet
61 108 m 0xbe
 61 239 171 502 409 502 c 0xde
 436 502 462 496 480 485 c 1
 484 494 l 1
 621 494 l 1
 520 115 l 2
 513 88 513 68 531 68 c 0
 555 68 593 121 618 165 c 1
 647 149 l 1
 605 65 543 -12 448 -12 c 0
 385 -12 362 29 386 114 c 2
 411 202 l 1
 405 202 l 1
 352 111 278 -12 159 -12 c 0
 88 -12 61 47 61 108 c 0xbe
215 115 m 0
 215 87 221 68 244 68 c 0
 276 68 315 116 364 194 c 1
 413 274 449 371 467 442 c 1
 454 451 437 456 418 456 c 0
 305 456 215 220 215 115 c 0
302 714 m 1
 336 714 l 1
 331 688 336 639 436 639 c 0
 539 639 570 688 580 714 c 1
 614 714 l 1
 598 632 559 556 420 556 c 0
 281 556 279 642 302 714 c 1
EndSplineSet
EndChar

StartChar: Aogonek
Encoding: 260 260 196
Width: 634
GlyphClass: 3
Flags: MW
HStem: -242 54<426.5 526.5> 0 38<-24 -17 -17 -17 -17 210> 246 48<260 429 260 434 234 429> 672 20G<420 538 538 538>
VStem: 366 102<-148.5 -123.5>
AnchorPoint: "Anchor-3" 482 707 basechar 0
LayerCount: 2
Fore
SplineSet
-24 0 m 1
 -17 38 l 1
 10 41 l 2
 40 44 55 54 75 87 c 0
 103 133 166 243 226 349 c 2
 420 692 l 1
 538 692 l 1
 572 375 l 2
 580 302 594 159 602 86 c 0
 606 58 610 43 633 41 c 2
 674 38 l 1
 666 0 l 1
 551 0 l 1
 488 -51 468 -102 468 -133 c 0
 468 -164 481 -188 517 -188 c 0
 536 -188 549 -184 567 -175 c 1
 581 -202 l 1
 541 -229 506 -242 474 -242 c 0
 379 -242 366 -193 366 -151 c 0
 366 -96 442 -30 505 0 c 1
 366 0 l 1
 374 38 l 1
 426 42 l 2
 446 43 451 55 449 79 c 2
 434 246 l 1
 234 246 l 1
 202 188 176 132 148 79 c 0
 138 59 139 43 161 42 c 2
 217 38 l 1
 210 0 l 1
 -24 0 l 1
260 294 m 1
 429 294 l 1
 405 555 l 1
 403 555 l 1
 386 528 273 319 260 294 c 1
EndSplineSet
Ligature2: "'liga' Standard Ligatures in Latin lookup 2 subtable" A uni0328
EndChar

StartChar: aogonek
Encoding: 261 261 197
Width: 596
GlyphClass: 2
Flags: MW
HStem: -242 54<323.5 423.5> -12 80<123.5 260> 456 46<361.5 422.5 290 427.5> 474 20G<484 621 621 621>
VStem: 61 154<101 167.5 101 173.5> 263 102<-148.5 -123.5>
AnchorPoint: "Anchor-3" 409 502 basechar 0
LayerCount: 2
Fore
SplineSet
61 108 m 0xdc
 61 239 171 502 409 502 c 0xec
 436 502 462 496 480 485 c 1
 484 494 l 1
 621 494 l 1
 520 115 l 2
 513 88 513 68 531 68 c 0
 555 68 593 121 618 165 c 1
 647 149 l 1
 605 65 551 -3 446 -17 c 0
 398 -23 365 -103 365 -133 c 0
 365 -164 378 -188 414 -188 c 0
 433 -188 446 -184 464 -175 c 1
 478 -202 l 1
 438 -229 403 -242 371 -242 c 0
 276 -242 263 -193 263 -151 c 0
 263 -96 342 -24 405 -1 c 1
 375 11 369 55 386 114 c 2
 411 202 l 1
 405 202 l 1
 352 111 278 -12 159 -12 c 0
 88 -12 61 47 61 108 c 0xdc
215 115 m 0
 215 87 221 68 244 68 c 0
 276 68 315 116 364 194 c 1
 413 274 449 371 467 442 c 1
 454 451 437 456 418 456 c 0
 305 456 215 220 215 115 c 0
EndSplineSet
EndChar

StartChar: Cacute
Encoding: 262 262 198
Width: 672
GlyphClass: 2
Flags: MW
HStem: -15 46<389 468.5> 661 46<458.5 583 458.5 615.5> 719 185
VStem: 111 169<229 310> 471 290<751 850> 700 38<480 480>
AnchorPoint: "Anchor-3" 596 884 basechar 0
AnchorPoint: "Anchor-2" 437 0 basechar 0
LayerCount: 2
Fore
SplineSet
471 751 m 1x28
 643 874 l 2
 674 897 689 904 707 904 c 0
 739 904 761 860 761 840 c 0
 761 811 741 800 688 783 c 2
 485 719 l 1
 471 751 l 1x28
111 275 m 0xd4
 111 345 128 444 180 524 c 0
 250 631 362 707 555 707 c 0
 611 707 717 696 777 659 c 1
 738 480 l 1
 700 480 l 1
 699 571 674 661 557 661 c 0
 354 661 280 412 280 235 c 0
 280 96 344 31 434 31 c 0
 546 31 601 116 665 220 c 1
 703 220 l 1
 648 26 l 1
 584 -7 503 -15 434 -15 c 0
 142 -15 111 183 111 275 c 0xd4
EndSplineSet
EndChar

StartChar: cacute
Encoding: 263 263 199
Width: 456
GlyphClass: 2
Flags: MW
HStem: -12 66<270.5 271.5> 456 46<329.5 371> 511 229<341 551>
VStem: 73 153<131.5 230 131.5 232.5> 320 272<541 692.5>
AnchorPoint: "Anchor-3" 434 720 basechar 0
AnchorPoint: "Anchor-2" 237 0 basechar 0
LayerCount: 2
Fore
SplineSet
320 541 m 1
 465 690 l 2
 502 728 519 740 539 740 c 0
 563 740 592 705 592 680 c 0
 592 654 560 634 524 614 c 2
 341 511 l 1
 320 541 l 1
73 155 m 0
 73 310 179 502 384 502 c 0
 476 502 533 462 533 405 c 0
 533 369 481 342 446 342 c 0
 419 342 411 364 405 389 c 0
 392 442 381 456 361 456 c 0
 298 456 226 298 226 162 c 0
 226 101 244 54 297 54 c 0
 363 54 410 119 448 180 c 1
 478 159 l 1
 406 16 309 -12 234 -12 c 0
 146 -12 73 34 73 155 c 0
EndSplineSet
EndChar

StartChar: Ccircumflex
Encoding: 264 264 200
Width: 672
GlyphClass: 2
Flags: MW
HStem: -15 46<389 468.5> 661 46<458.5 583 458.5 615.5> 800 105<591.5 592>
VStem: 111 169<229 310> 700 38<480 480>
AnchorPoint: "Anchor-3" 596 885 basechar 0
AnchorPoint: "Anchor-2" 437 0 basechar 0
LayerCount: 2
Fore
SplineSet
376 755 m 1
 548 879 l 2
 566 892 583 905 600 905 c 0
 618 905 631 892 645 877 c 2
 757 755 l 1
 733 725 l 1
 627 785 l 2
 608 796 598 800 586 800 c 0
 576 800 563 795 544 787 c 2
 393 725 l 1
 376 755 l 1
111 275 m 0
 111 345 128 444 180 524 c 0
 250 631 362 707 555 707 c 0
 611 707 717 696 777 659 c 1
 738 480 l 1
 700 480 l 1
 699 571 674 661 557 661 c 0
 354 661 280 412 280 235 c 0
 280 96 344 31 434 31 c 0
 546 31 601 116 665 220 c 1
 703 220 l 1
 648 26 l 1
 584 -7 503 -15 434 -15 c 0
 142 -15 111 183 111 275 c 0
EndSplineSet
EndChar

StartChar: ccircumflex
Encoding: 265 265 201
Width: 456
GlyphClass: 2
Flags: MW
HStem: -12 66<270.5 271.5> 456 46<329.5 371> 520 227<228 441.5 425.5 554>
VStem: 73 153<131.5 230 131.5 232.5> 205 378<547 547>
AnchorPoint: "Anchor-3" 436 727 basechar 0
AnchorPoint: "Anchor-2" 237 0 basechar 0
LayerCount: 2
Fore
SplineSet
205 547 m 1x28
 385 720 l 2
 401 736 418 747 433 747 c 0
 450 747 459 734 469 719 c 2
 583 547 l 1
 554 520 l 1
 441 616 l 2
 431 625 421 633 411 633 c 0
 402 633 387 625 373 616 c 2
 228 520 l 1
 205 547 l 1x28
73 155 m 0xd0
 73 310 179 502 384 502 c 0
 476 502 533 462 533 405 c 0
 533 369 481 342 446 342 c 0
 419 342 411 364 405 389 c 0
 392 442 381 456 361 456 c 0
 298 456 226 298 226 162 c 0
 226 101 244 54 297 54 c 0
 363 54 410 119 448 180 c 1
 478 159 l 1
 406 16 309 -12 234 -12 c 0
 146 -12 73 34 73 155 c 0xd0
EndSplineSet
EndChar

StartChar: Cdotaccent
Encoding: 266 266 202
Width: 672
GlyphClass: 2
Flags: MW
HStem: -15 46<389 468.5> 661 46<458.5 583 458.5 615.5> 732 149<552.5 604>
VStem: 111 169<229 310> 499 158<787 825> 700 38<480 480>
AnchorPoint: "Anchor-3" 591 861 basechar 0
AnchorPoint: "Anchor-2" 437 0 basechar 0
LayerCount: 2
Fore
SplineSet
499 806 m 0
 499 844 527 881 578 881 c 0
 630 881 657 844 657 806 c 0
 657 768 630 732 578 732 c 0
 527 732 499 768 499 806 c 0
111 275 m 0
 111 345 128 444 180 524 c 0
 250 631 362 707 555 707 c 0
 611 707 717 696 777 659 c 1
 738 480 l 1
 700 480 l 1
 699 571 674 661 557 661 c 0
 354 661 280 412 280 235 c 0
 280 96 344 31 434 31 c 0
 546 31 601 116 665 220 c 1
 703 220 l 1
 648 26 l 1
 584 -7 503 -15 434 -15 c 0
 142 -15 111 183 111 275 c 0
EndSplineSet
EndChar

StartChar: cdotaccent
Encoding: 267 267 203
Width: 456
GlyphClass: 2
Flags: MW
HStem: -12 66<270.5 271.5> 456 46<329.5 371> 561 149<389.5 441>
VStem: 73 153<131.5 230 131.5 232.5> 336 158<616 654>
AnchorPoint: "Anchor-3" 427 690 basechar 0
AnchorPoint: "Anchor-2" 237 0 basechar 0
LayerCount: 2
Fore
SplineSet
336 635 m 0
 336 673 364 710 415 710 c 0
 467 710 494 673 494 635 c 0
 494 597 467 561 415 561 c 0
 364 561 336 597 336 635 c 0
73 155 m 0
 73 310 179 502 384 502 c 0
 476 502 533 462 533 405 c 0
 533 369 481 342 446 342 c 0
 419 342 411 364 405 389 c 0
 392 442 381 456 361 456 c 0
 298 456 226 298 226 162 c 0
 226 101 244 54 297 54 c 0
 363 54 410 119 448 180 c 1
 478 159 l 1
 406 16 309 -12 234 -12 c 0
 146 -12 73 34 73 155 c 0
EndSplineSet
EndChar

StartChar: Ccaron
Encoding: 268 268 204
Width: 672
GlyphClass: 2
Flags: MW
HStem: -15 46<389 468.5> 661 46<458.5 583 458.5 615.5> 736 105<571 571.5>
VStem: 111 169<229 310> 700 38<480 480>
AnchorPoint: "Anchor-3" 599 896 basechar 0
AnchorPoint: "Anchor-2" 437 0 basechar 0
LayerCount: 2
Fore
SplineSet
406 886 m 1
 430 916 l 1
 536 856 l 2
 555 845 565 841 577 841 c 0
 587 841 600 846 619 854 c 2
 770 916 l 1
 787 886 l 1
 615 762 l 2
 597 749 580 736 563 736 c 0
 545 736 532 749 518 764 c 2
 406 886 l 1
111 275 m 0
 111 345 128 444 180 524 c 0
 250 631 362 707 555 707 c 0
 611 707 717 696 777 659 c 1
 738 480 l 1
 700 480 l 1
 699 571 674 661 557 661 c 0
 354 661 280 412 280 235 c 0
 280 96 344 31 434 31 c 0
 546 31 601 116 665 220 c 1
 703 220 l 1
 648 26 l 1
 584 -7 503 -15 434 -15 c 0
 142 -15 111 183 111 275 c 0
EndSplineSet
EndChar

StartChar: ccaron
Encoding: 269 269 205
Width: 456
GlyphClass: 2
Flags: MW
HStem: -12 66<270.5 271.5> 456 46<329.5 371> 520 227<267 395.5>
VStem: 73 153<131.5 230 131.5 232.5> 238 378<720 720>
AnchorPoint: "Anchor-3" 436 727 basechar 0
AnchorPoint: "Anchor-2" 237 0 basechar 0
LayerCount: 2
Fore
SplineSet
238 720 m 1
 267 747 l 1
 380 651 l 2
 390 642 400 634 410 634 c 0
 419 634 434 642 448 651 c 2
 593 747 l 1
 616 720 l 1
 436 547 l 2
 420 531 403 520 388 520 c 0
 371 520 362 533 352 548 c 2
 238 720 l 1
73 155 m 0
 73 310 179 502 384 502 c 0
 476 502 533 462 533 405 c 0
 533 369 481 342 446 342 c 0
 419 342 411 364 405 389 c 0
 392 442 381 456 361 456 c 0
 298 456 226 298 226 162 c 0
 226 101 244 54 297 54 c 0
 363 54 410 119 448 180 c 1
 478 159 l 1
 406 16 309 -12 234 -12 c 0
 146 -12 73 34 73 155 c 0
EndSplineSet
EndChar

StartChar: Dcaron
Encoding: 270 270 206
Width: 774
GlyphClass: 2
Flags: MW
HStem: 0 38<40 49 49 49 49 361> 0 46<336 361> 646 46<458 464 189 561.5> 654 38<179 464> 736 105<547 547.5>
VStem: 656 163<395 456.5 382.5 501.5>
AnchorPoint: "Anchor-3" 578 911 basechar 0
AnchorPoint: "Anchor-2" 368 0 basechar 0
LayerCount: 2
Fore
SplineSet
382 886 m 1x08
 406 916 l 1
 512 856 l 2
 531 845 541 841 553 841 c 0
 563 841 576 846 595 854 c 2
 746 916 l 1
 763 886 l 1
 591 762 l 2
 573 749 556 736 539 736 c 0
 521 736 508 749 494 764 c 2
 382 886 l 1x08
40 0 m 1x84
 49 38 l 1
 94 42 l 2
 123 44 130 62 138 98 c 2
 249 594 l 2
 257 630 258 647 230 649 c 2
 179 654 l 1
 189 692 l 1x94
 464 692 l 1
 583 691 668 672 727 627 c 0
 786 582 819 510 819 403 c 0
 819 362 807 266 753 182 c 0
 684 73 579 0 361 0 c 2x64
 40 0 l 1x84
292 97 m 2
 282 54 312 46 360 46 c 0
 592 46 656 336 656 454 c 0
 656 549 633 646 490 646 c 0x64
 426 646 412 639 405 606 c 2
 292 97 l 2
EndSplineSet
EndChar

StartChar: dcaron
Encoding: 271 271 207
Width: 650
GlyphClass: 2
Flags: MW
HStem: -13 81 456 46<361.5 419.5 284.5 432> 532 279<750 809.5> 684 31<454 461> 722 20<679 679>
VStem: 64 154<108 173 108 179> 751 103<647.5 753.5>
LayerCount: 2
Fore
SplineSet
64 120 m 0xdc
 64 238 166 502 403 502 c 0
 436 502 464 496 483 485 c 1
 485 486 l 1
 520 635 l 2
 526 662 523 674 505 677 c 2
 454 684 l 1
 461 715 l 1
 679 742 l 1
 686 736 l 1
 540 115 l 2
 533 88 533 68 552 68 c 0
 574 68 612 121 637 166 c 1
 666 152 l 1
 626 65 562 -13 470 -13 c 0
 406 -13 378 21 400 103 c 2
 430 211 l 1
 426 212 l 1
 369 111 298 -12 171 -12 c 0
 87 -12 64 55 64 120 c 0xdc
218 126 m 0
 218 90 230 68 256 68 c 0
 323 68 434 256 474 440 c 1
 462 450 443 456 421 456 c 0
 302 456 218 220 218 126 c 0
713 742 m 0x22
 713 764 728 811 787 811 c 0
 832 811 854 776 854 731 c 0
 854 651 792 571 750 532 c 1
 722 555 l 1
 743 590 751 641 751 654 c 0
 751 689 713 706 713 742 c 0x22
EndSplineSet
EndChar

StartChar: Dcroat
Encoding: 272 272 208
Width: 774
GlyphClass: 2
Flags: MW
HStem: 0 38<40 49 49 49 49 361> 0 46<336 361> 319 72<133 187 118 203 357 429> 646 46<458 464 189 561.5> 654 38<179 464>
VStem: 656 163<395 456.5 382.5 501.5>
LayerCount: 2
Fore
SplineSet
40 0 m 1xa4
 49 38 l 1
 94 42 l 2
 123 44 130 62 138 98 c 2
 187 319 l 1
 118 319 l 1
 133 391 l 1
 203 391 l 1
 249 594 l 2
 257 630 258 647 230 649 c 2
 179 654 l 1
 189 692 l 1xac
 464 692 l 1
 583 691 668 672 727 627 c 0
 786 582 819 510 819 403 c 0
 819 362 807 266 753 182 c 0
 684 73 579 0 361 0 c 2x74
 40 0 l 1xa4
292 97 m 2
 282 54 312 46 360 46 c 0
 592 46 656 336 656 454 c 0
 656 549 633 646 490 646 c 0x74
 426 646 412 639 405 606 c 2
 357 391 l 1
 444 391 l 1
 429 319 l 1
 341 319 l 1
 292 97 l 2
EndSplineSet
EndChar

StartChar: dcroat
Encoding: 273 273 209
Width: 609
GlyphClass: 2
Flags: MW
HStem: -12 80<129 289.5> 456 29 456 46<361.5 419.5 284.5 432> 565 72<414 503 398 520 663 709> 722 20G<679 679>
VStem: 64 154<108 173 108 179> 393 143
LayerCount: 2
Fore
SplineSet
64 120 m 0xde
 64 238 166 502 403 502 c 0xbe
 436 502 464 496 483 485 c 1
 485 486 l 1
 503 565 l 1
 398 565 l 1
 414 637 l 1
 520 637 l 1
 526 662 522 674 505 677 c 2
 454 684 l 1
 461 715 l 1
 679 742 l 1
 686 736 l 1
 663 637 l 1
 725 637 l 1
 709 565 l 1
 646 565 l 1
 540 115 l 2
 533 88 533 68 552 68 c 0
 574 68 612 121 637 166 c 1
 666 152 l 1
 626 65 564 -15 470 -15 c 0
 408 -15 378 21 400 103 c 2
 430 211 l 1
 426 212 l 1
 369 111 298 -12 171 -12 c 0
 87 -12 64 55 64 120 c 0xde
218 126 m 0
 218 90 230 68 256 68 c 0
 323 68 434 256 474 440 c 1
 462 450 443 456 421 456 c 0
 302 456 218 220 218 126 c 0
EndSplineSet
EndChar

StartChar: Emacron
Encoding: 274 274 210
Width: 622
GlyphClass: 2
Flags: MW
HStem: 0 46<355.5 440.5 355.5 590> 339 48<357 440 346 451> 646 46<438.5 456 456 525> 770 77<317 685 335 667>
AnchorPoint: "Anchor-3" 509 842 basechar 0
AnchorPoint: "Anchor-2" 314 0 basechar 0
LayerCount: 2
Fore
SplineSet
317 770 m 1
 335 847 l 1
 685 847 l 1
 667 770 l 1
 317 770 l 1
40 0 m 1
 49 38 l 1
 94 42 l 2
 123 44 130 62 138 98 c 2
 249 594 l 2
 257 630 258 647 230 649 c 2
 179 654 l 1
 190 692 l 1
 722 692 l 1
 682 507 l 1
 644 507 l 1
 639 562 l 2
 635 609 613 646 525 646 c 2
 456 646 l 2
 421 646 414 642 407 613 c 2
 357 387 l 1
 451 387 l 2
 514 387 530 404 562 477 c 1
 600 477 l 1
 550 249 l 1
 512 249 l 1
 515 311 504 339 440 339 c 2
 346 339 l 1
 293 103 l 2
 280 48 310 46 401 46 c 0
 480 46 528 67 579 154 c 2
 611 208 l 1
 649 208 l 1
 590 0 l 1
 40 0 l 1
EndSplineSet
EndChar

StartChar: emacron
Encoding: 275 275 211
Width: 476
GlyphClass: 2
Flags: MW
HStem: -12 66<270.5 279.5> 456 46<337.5 379> 592 72<250 576 265 561>
VStem: 73 149<136 163 163 187 136 199.5> 250 326<592 664> 404 128<373 421.5 370.5 426>
AnchorPoint: "Anchor-3" 417 644 basechar 0
AnchorPoint: "Anchor-2" 239 0 basechar 0
LayerCount: 2
Fore
SplineSet
250 592 m 1x28
 265 664 l 1
 576 664 l 1
 561 592 l 1
 250 592 l 1x28
73 161 m 0xd4
 73 238 100 320 154 388 c 0
 208 456 285 502 384 502 c 0
 469 502 532 457 532 386 c 0
 532 355 525 322 486 286 c 1
 443 248 372 216 222 187 c 1
 222 163 l 2
 222 109 241 54 300 54 c 0
 360 54 407 100 460 176 c 1
 490 152 l 1
 417 20 323 -12 236 -12 c 0
 164 -12 73 23 73 161 c 0xd4
226 232 m 1
 342 255 404 334 404 412 c 0
 404 440 391 456 367 456 c 0
 308 456 240 347 226 232 c 1
EndSplineSet
EndChar

StartChar: Ebreve
Encoding: 276 276 212
Width: 622
GlyphClass: 2
Flags: MW
HStem: 0 46<355.5 440.5 355.5 590> 339 48<357 440 346 451> 646 46<438.5 456 456 525> 746 77<457.5 552.5 457.5 554.5>
VStem: 356 41<892 892> 645 41<892 892>
AnchorPoint: "Anchor-3" 520 887 basechar 0
AnchorPoint: "Anchor-2" 314 0 basechar 0
LayerCount: 2
Fore
SplineSet
356 892 m 1
 397 892 l 1
 393 868 410 823 505 823 c 0
 600 823 637 868 645 892 c 1
 686 892 l 1
 669 818 622 746 487 746 c 0
 352 746 339 818 356 892 c 1
40 0 m 1
 49 38 l 1
 94 42 l 2
 123 44 130 62 138 98 c 2
 249 594 l 2
 257 630 258 647 230 649 c 2
 179 654 l 1
 190 692 l 1
 722 692 l 1
 682 507 l 1
 644 507 l 1
 639 562 l 2
 635 609 613 646 525 646 c 2
 456 646 l 2
 421 646 414 642 407 613 c 2
 357 387 l 1
 451 387 l 2
 514 387 530 404 562 477 c 1
 600 477 l 1
 550 249 l 1
 512 249 l 1
 515 311 504 339 440 339 c 2
 346 339 l 1
 293 103 l 2
 280 48 310 46 401 46 c 0
 480 46 528 67 579 154 c 2
 611 208 l 1
 649 208 l 1
 590 0 l 1
 40 0 l 1
EndSplineSet
EndChar

StartChar: ebreve
Encoding: 277 277 213
Width: 476
GlyphClass: 2
Flags: MW
HStem: -12 66<270.5 279.5> 456 46<337.5 379> 556 83<361 462.5 361 464.5>
VStem: 73 149<136 163 163 187 136 199.5> 266 45 404 128<373 421.5 370.5 426>
AnchorPoint: "Anchor-3" 428 694 basechar 0
AnchorPoint: "Anchor-2" 239 0 basechar 0
LayerCount: 2
Fore
SplineSet
277 714 m 1
 311 714 l 1
 306 688 311 639 411 639 c 0
 514 639 545 688 555 714 c 1
 589 714 l 1
 573 632 534 556 395 556 c 0
 256 556 254 642 277 714 c 1
73 161 m 0
 73 238 100 320 154 388 c 0
 208 456 285 502 384 502 c 0
 469 502 532 457 532 386 c 0
 532 355 525 322 486 286 c 1
 443 248 372 216 222 187 c 1
 222 163 l 2
 222 109 241 54 300 54 c 0
 360 54 407 100 460 176 c 1
 490 152 l 1
 417 20 323 -12 236 -12 c 0
 164 -12 73 23 73 161 c 0
226 232 m 1
 342 255 404 334 404 412 c 0
 404 440 391 456 367 456 c 0
 308 456 240 347 226 232 c 1
EndSplineSet
EndChar

StartChar: Edotaccent
Encoding: 278 278 214
Width: 622
GlyphClass: 2
Flags: MW
HStem: 0 46<355.5 440.5 355.5 590> 339 48<357 440 346 451> 646 46<438.5 456 456 525> 732 149<475.5 527>
VStem: 422 158<787 825>
AnchorPoint: "Anchor-3" 517 876 basechar 0
AnchorPoint: "Anchor-2" 314 0 basechar 0
LayerCount: 2
Fore
SplineSet
422 806 m 0
 422 844 450 881 501 881 c 0
 553 881 580 844 580 806 c 0
 580 768 553 732 501 732 c 0
 450 732 422 768 422 806 c 0
40 0 m 1
 49 38 l 1
 94 42 l 2
 123 44 130 62 138 98 c 2
 249 594 l 2
 257 630 258 647 230 649 c 2
 179 654 l 1
 190 692 l 1
 722 692 l 1
 682 507 l 1
 644 507 l 1
 639 562 l 2
 635 609 613 646 525 646 c 2
 456 646 l 2
 421 646 414 642 407 613 c 2
 357 387 l 1
 451 387 l 2
 514 387 530 404 562 477 c 1
 600 477 l 1
 550 249 l 1
 512 249 l 1
 515 311 504 339 440 339 c 2
 346 339 l 1
 293 103 l 2
 280 48 310 46 401 46 c 0
 480 46 528 67 579 154 c 2
 611 208 l 1
 649 208 l 1
 590 0 l 1
 40 0 l 1
EndSplineSet
EndChar

StartChar: edotaccent
Encoding: 279 279 215
Width: 476
GlyphClass: 2
Flags: MW
HStem: -12 66<270.5 279.5> 456 46<337.5 379> 561 149<389.5 441>
VStem: 73 149<136 163 163 187 136 199.5> 336 158<616 654> 404 128<373 421.5 370.5 426>
AnchorPoint: "Anchor-3" 427 690 basechar 0
AnchorPoint: "Anchor-2" 239 0 basechar 0
LayerCount: 2
Fore
SplineSet
336 635 m 0x28
 336 673 364 710 415 710 c 0
 467 710 494 673 494 635 c 0
 494 597 467 561 415 561 c 0
 364 561 336 597 336 635 c 0x28
73 161 m 0xd4
 73 238 100 320 154 388 c 0
 208 456 285 502 384 502 c 0
 469 502 532 457 532 386 c 0
 532 355 525 322 486 286 c 1
 443 248 372 216 222 187 c 1
 222 163 l 2
 222 109 241 54 300 54 c 0
 360 54 407 100 460 176 c 1
 490 152 l 1
 417 20 323 -12 236 -12 c 0
 164 -12 73 23 73 161 c 0xd4
226 232 m 1
 342 255 404 334 404 412 c 0
 404 440 391 456 367 456 c 0
 308 456 240 347 226 232 c 1
EndSplineSet
EndChar

StartChar: Eogonek
Encoding: 280 280 216
Width: 622
GlyphClass: 2
Flags: MW
HStem: -242 54<383.5 483.5> 0 38<40 49 49 49 49 462> 0 46<355.5 440.5 355.5 462> 339 48<357 440 346 451> 646 46<438.5 456 456 525> 654 38<179 722>
VStem: 323 102<-148.5 -123.5> 512 38<249 249> 562 38<477 477> 644 38<507 507>
AnchorPoint: "Anchor-3" 459 707 basechar 0
LayerCount: 2
Fore
SplineSet
40 0 m 1xd3c0
 49 38 l 1
 94 42 l 2
 123 44 130 62 138 98 c 2
 249 594 l 2
 257 630 258 647 230 649 c 2
 179 654 l 1
 190 692 l 1
 722 692 l 1xd7c0
 682 507 l 1
 644 507 l 1
 639 562 l 2
 635 609 613 646 525 646 c 2
 456 646 l 2
 421 646 414 642 407 613 c 2
 357 387 l 1
 451 387 l 2
 514 387 530 404 562 477 c 1
 600 477 l 1
 550 249 l 1
 512 249 l 1
 515 311 504 339 440 339 c 2
 346 339 l 1
 293 103 l 2
 280 48 310 46 401 46 c 0xbbc0
 480 46 528 67 579 154 c 2
 611 208 l 1
 649 208 l 1
 590 0 l 1
 508 0 l 1xd3c0
 445 -51 425 -102 425 -133 c 0
 425 -164 438 -188 474 -188 c 0
 493 -188 506 -184 524 -175 c 1
 538 -202 l 1
 498 -229 463 -242 431 -242 c 0
 336 -242 323 -193 323 -151 c 0
 323 -96 399 -30 462 0 c 1xb3c0
 40 0 l 1xd3c0
EndSplineSet
EndChar

StartChar: eogonek
Encoding: 281 281 217
Width: 476
GlyphClass: 2
Flags: MW
HStem: -242 54<224.5 324.5> -12 66<200 330> 456 46<337.5 379>
VStem: 73 149<136 163 163 187 136 199.5> 164 102<-148.5 -125.5> 404 128<373 421.5 370.5 426>
AnchorPoint: "Anchor-3" 384 502 basechar 0
LayerCount: 2
Fore
SplineSet
73 161 m 0xf4
 73 238 100 320 154 388 c 0
 208 456 285 502 384 502 c 0
 469 502 532 457 532 386 c 0
 532 355 525 322 486 286 c 1
 443 248 372 216 222 187 c 1
 222 163 l 2xf4
 222 109 241 54 300 54 c 0
 360 54 407 100 460 176 c 1
 490 152 l 1
 442 66 408 49 360 11 c 0
 307 -31 266 -87 266 -133 c 0
 266 -164 279 -188 315 -188 c 0
 334 -188 347 -184 365 -175 c 1
 379 -202 l 1
 339 -229 304 -242 272 -242 c 0
 177 -242 164 -193 164 -151 c 0xec
 164 -100 228 -41 292 -6 c 1
 265 -11 258 -12 236 -12 c 0
 164 -12 73 23 73 161 c 0xf4
226 232 m 1
 342 255 404 334 404 412 c 0
 404 440 391 456 367 456 c 0
 308 456 240 347 226 232 c 1
EndSplineSet
EndChar

StartChar: Ecaron
Encoding: 282 282 218
Width: 622
GlyphClass: 2
Flags: MW
HStem: 0 46<355.5 440.5 355.5 590> 339 48<357 440 346 451> 646 46<438.5 456 456 525> 736 105<494 494.5>
AnchorPoint: "Anchor-3" 525 911 basechar 0
AnchorPoint: "Anchor-2" 314 0 basechar 0
LayerCount: 2
Fore
SplineSet
329 886 m 1
 353 916 l 1
 459 856 l 2
 478 845 488 841 500 841 c 0
 510 841 523 846 542 854 c 2
 693 916 l 1
 710 886 l 1
 538 762 l 2
 520 749 503 736 486 736 c 0
 468 736 455 749 441 764 c 2
 329 886 l 1
40 0 m 1
 49 38 l 1
 94 42 l 2
 123 44 130 62 138 98 c 2
 249 594 l 2
 257 630 258 647 230 649 c 2
 179 654 l 1
 190 692 l 1
 722 692 l 1
 682 507 l 1
 644 507 l 1
 639 562 l 2
 635 609 613 646 525 646 c 2
 456 646 l 2
 421 646 414 642 407 613 c 2
 357 387 l 1
 451 387 l 2
 514 387 530 404 562 477 c 1
 600 477 l 1
 550 249 l 1
 512 249 l 1
 515 311 504 339 440 339 c 2
 346 339 l 1
 293 103 l 2
 280 48 310 46 401 46 c 0
 480 46 528 67 579 154 c 2
 611 208 l 1
 649 208 l 1
 590 0 l 1
 40 0 l 1
EndSplineSet
EndChar

StartChar: ecaron
Encoding: 283 283 219
Width: 476
GlyphClass: 2
Flags: MW
HStem: -12 66<270.5 279.5> 456 46<337.5 379> 520 227<267 395.5>
VStem: 73 149<136 163 163 187 136 199.5> 238 378<720 720> 404 128<373 421.5 370.5 426>
AnchorPoint: "Anchor-3" 436 727 basechar 0
AnchorPoint: "Anchor-2" 239 0 basechar 0
LayerCount: 2
Fore
SplineSet
238 720 m 1x28
 267 747 l 1
 380 651 l 2
 390 642 400 634 410 634 c 0
 419 634 434 642 448 651 c 2
 593 747 l 1
 616 720 l 1
 436 547 l 2
 420 531 403 520 388 520 c 0
 371 520 362 533 352 548 c 2
 238 720 l 1x28
73 161 m 0xd4
 73 238 100 320 154 388 c 0
 208 456 285 502 384 502 c 0
 469 502 532 457 532 386 c 0
 532 355 525 322 486 286 c 1
 443 248 372 216 222 187 c 1
 222 163 l 2
 222 109 241 54 300 54 c 0
 360 54 407 100 460 176 c 1
 490 152 l 1
 417 20 323 -12 236 -12 c 0
 164 -12 73 23 73 161 c 0xd4
226 232 m 1
 342 255 404 334 404 412 c 0
 404 440 391 456 367 456 c 0
 308 456 240 347 226 232 c 1
EndSplineSet
EndChar

StartChar: Gcircumflex
Encoding: 284 284 220
Width: 726
GlyphClass: 2
Flags: MW
HStem: -15 46<381.5 464.5> 276 38<471 791 782 782> 661 46<466.5 584 466.5 601> 800 105<587.5 588>
VStem: 111 169<178.5 328.5 173 329> 702 38<480 480>
AnchorPoint: "Anchor-3" 592 885 basechar 0
AnchorPoint: "Anchor-2" 430 0 basechar 0
LayerCount: 2
Fore
SplineSet
372 755 m 1
 544 879 l 2
 562 892 579 905 596 905 c 0
 614 905 627 892 641 877 c 2
 753 755 l 1
 729 725 l 1
 623 785 l 2
 604 796 594 800 582 800 c 0
 572 800 559 795 540 787 c 2
 389 725 l 1
 372 755 l 1
111 284 m 0
 111 374 138 473 203 558 c 0
 267 642 382 707 551 707 c 0
 617 707 714 697 775 655 c 1
 740 480 l 1
 702 480 l 1
 693 582 653 661 549 661 c 0
 355 661 280 416 280 241 c 0
 280 105 326 31 437 31 c 0
 497 31 509 43 518 82 c 2
 551 216 l 2
 560 251 555 269 535 271 c 2
 471 276 l 1
 479 314 l 1
 791 314 l 1
 782 276 l 1
 741 270 l 2
 717 267 713 249 705 216 c 2
 663 38 l 1
 591 -3 502 -15 427 -15 c 0
 237 -15 111 73 111 284 c 0
EndSplineSet
EndChar

StartChar: gcircumflex
Encoding: 285 285 221
Width: 522
GlyphClass: 2
Flags: MW
HStem: -242 46<252 310.5 252 340.5> 177 46<305 315> 456 46<326.5 372> 520 227<222 435.5 419.5 548>
VStem: 21 137<-93 -64.5> 106 152 199 378<547 547> 398 127 418 136<297.5 395>
AnchorPoint: "Anchor-3" 428 717 basechar 0
AnchorPoint: "Anchor-2" 260 -242 basechar 0
LayerCount: 2
Fore
SplineSet
199 547 m 1x12
 379 720 l 2
 395 736 412 747 427 747 c 0
 444 747 453 734 463 719 c 2
 577 547 l 1
 548 520 l 1
 435 616 l 2
 425 625 415 633 405 633 c 0
 396 633 381 625 367 616 c 2
 222 520 l 1
 199 547 l 1x12
21 -105 m 1xe9
 21 -24 110 9 179 18 c 1
 179 20 l 1
 122 38 88 68 88 100 c 0
 88 134 121 157 162 174 c 0
 172 178 191 185 202 189 c 1
 202 191 l 1
 160 204 107 243 106 313 c 0
 104 390 160 502 355 502 c 0
 406 502 461 489 494 472 c 1
 638 512 l 1
 644 503 l 1
 613 428 l 1
 537 416 l 1
 547 401 554 379 554 352 c 0xe480
 554 243 456 178 315 177 c 0
 295 177 280 177 255 179 c 1
 238 173 223 164 223 147 c 0
 224 124 251 116 345 94 c 0
 448 70 525 23 525 -70 c 0
 525 -186 421 -242 260 -242 c 0
 116 -242 23 -186 21 -105 c 1xe9
158 -93 m 0xe9
 159 -162 220 -196 284 -196 c 0
 337 -196 399 -169 398 -105 c 0
 396 -27 292 -9 233 0 c 1
 210 -4 158 -29 158 -93 c 0xe9
258 291 m 0xe480
 258 252 276 223 316 223 c 0
 344 223 369 240 387 271 c 0
 406 304 418 349 418 395 c 1
 416 443 385 456 359 456 c 0
 294 456 258 361 258 291 c 0xe480
EndSplineSet
EndChar

StartChar: Gbreve
Encoding: 286 286 222
Width: 726
GlyphClass: 2
Flags: MW
HStem: -15 46<381.5 464.5> 276 38<471 791 782 782> 661 46<466.5 584 466.5 601> 746 77<530.5 625.5 530.5 627.5>
VStem: 111 169<178.5 328.5 173 329> 429 41<892 892> 702 38<480 480> 718 41<892 892>
AnchorPoint: "Anchor-3" 589 872 basechar 0
AnchorPoint: "Anchor-2" 430 0 basechar 0
LayerCount: 2
Fore
SplineSet
429 892 m 1x15
 470 892 l 1
 466 868 483 823 578 823 c 0
 673 823 710 868 718 892 c 1
 759 892 l 1
 742 818 695 746 560 746 c 0
 425 746 412 818 429 892 c 1x15
111 284 m 0xea
 111 374 138 473 203 558 c 0
 267 642 382 707 551 707 c 0
 617 707 714 697 775 655 c 1
 740 480 l 1
 702 480 l 1
 693 582 653 661 549 661 c 0
 355 661 280 416 280 241 c 0
 280 105 326 31 437 31 c 0
 497 31 509 43 518 82 c 2
 551 216 l 2
 560 251 555 269 535 271 c 2
 471 276 l 1
 479 314 l 1
 791 314 l 1
 782 276 l 1
 741 270 l 2
 717 267 713 249 705 216 c 2
 663 38 l 1
 591 -3 502 -15 427 -15 c 0
 237 -15 111 73 111 284 c 0xea
EndSplineSet
EndChar

StartChar: gbreve
Encoding: 287 287 223
Width: 522
GlyphClass: 2
Flags: MW
HStem: -242 46<252 310.5 252 340.5> 177 46<305 315> 456 46<326.5 372> 556 83<355 456.5 355 458.5>
VStem: 21 137<-93 -64.5> 106 152 260 45 398 127 418 136<297.5 395>
AnchorPoint: "Anchor-3" 420 684 basechar 0
AnchorPoint: "Anchor-2" 260 -242 basechar 0
LayerCount: 2
Fore
SplineSet
271 714 m 1x12
 305 714 l 1
 300 688 305 639 405 639 c 0
 508 639 539 688 549 714 c 1
 583 714 l 1
 567 632 528 556 389 556 c 0
 250 556 248 642 271 714 c 1x12
21 -105 m 1xe9
 21 -24 110 9 179 18 c 1
 179 20 l 1
 122 38 88 68 88 100 c 0
 88 134 121 157 162 174 c 0
 172 178 191 185 202 189 c 1
 202 191 l 1
 160 204 107 243 106 313 c 0
 104 390 160 502 355 502 c 0
 406 502 461 489 494 472 c 1
 638 512 l 1
 644 503 l 1
 613 428 l 1
 537 416 l 1
 547 401 554 379 554 352 c 0xe480
 554 243 456 178 315 177 c 0
 295 177 280 177 255 179 c 1
 238 173 223 164 223 147 c 0
 224 124 251 116 345 94 c 0
 448 70 525 23 525 -70 c 0
 525 -186 421 -242 260 -242 c 0
 116 -242 23 -186 21 -105 c 1xe9
158 -93 m 0xe9
 159 -162 220 -196 284 -196 c 0
 337 -196 399 -169 398 -105 c 0
 396 -27 292 -9 233 0 c 1
 210 -4 158 -29 158 -93 c 0xe9
258 291 m 0xe480
 258 252 276 223 316 223 c 0
 344 223 369 240 387 271 c 0
 406 304 418 349 418 395 c 1
 416 443 385 456 359 456 c 0
 294 456 258 361 258 291 c 0xe480
EndSplineSet
EndChar

StartChar: Gdotaccent
Encoding: 288 288 224
Width: 726
GlyphClass: 2
Flags: MW
HStem: -15 46<381.5 464.5> 276 38<471 791 782 782> 661 46<466.5 584 466.5 601> 732 149<548.5 600>
VStem: 111 169<178.5 328.5 173 329> 495 158<787 825> 702 38<480 480>
AnchorPoint: "Anchor-3" 587 861 basechar 0
AnchorPoint: "Anchor-2" 430 0 basechar 0
LayerCount: 2
Fore
SplineSet
495 806 m 0
 495 844 523 881 574 881 c 0
 626 881 653 844 653 806 c 0
 653 768 626 732 574 732 c 0
 523 732 495 768 495 806 c 0
111 284 m 0
 111 374 138 473 203 558 c 0
 267 642 382 707 551 707 c 0
 617 707 714 697 775 655 c 1
 740 480 l 1
 702 480 l 1
 693 582 653 661 549 661 c 0
 355 661 280 416 280 241 c 0
 280 105 326 31 437 31 c 0
 497 31 509 43 518 82 c 2
 551 216 l 2
 560 251 555 269 535 271 c 2
 471 276 l 1
 479 314 l 1
 791 314 l 1
 782 276 l 1
 741 270 l 2
 717 267 713 249 705 216 c 2
 663 38 l 1
 591 -3 502 -15 427 -15 c 0
 237 -15 111 73 111 284 c 0
EndSplineSet
EndChar

StartChar: gdotaccent
Encoding: 289 289 225
Width: 522
GlyphClass: 2
Flags: MW
HStem: -242 46<252 310.5 252 340.5> 177 46<305 315> 456 46<326.5 372> 561 149<383.5 435>
VStem: 21 137<-93 -64.5> 106 152 330 158<616 654> 398 127 418 136<297.5 395>
AnchorPoint: "Anchor-3" 419 680 basechar 0
AnchorPoint: "Anchor-2" 260 -242 basechar 0
LayerCount: 2
Fore
SplineSet
330 635 m 0x12
 330 673 358 710 409 710 c 0
 461 710 488 673 488 635 c 0
 488 597 461 561 409 561 c 0
 358 561 330 597 330 635 c 0x12
21 -105 m 1xe9
 21 -24 110 9 179 18 c 1
 179 20 l 1
 122 38 88 68 88 100 c 0
 88 134 121 157 162 174 c 0
 172 178 191 185 202 189 c 1
 202 191 l 1
 160 204 107 243 106 313 c 0
 104 390 160 502 355 502 c 0
 406 502 461 489 494 472 c 1
 638 512 l 1
 644 503 l 1
 613 428 l 1
 537 416 l 1
 547 401 554 379 554 352 c 0xe480
 554 243 456 178 315 177 c 0
 295 177 280 177 255 179 c 1
 238 173 223 164 223 147 c 0
 224 124 251 116 345 94 c 0
 448 70 525 23 525 -70 c 0
 525 -186 421 -242 260 -242 c 0
 116 -242 23 -186 21 -105 c 1xe9
158 -93 m 0xe9
 159 -162 220 -196 284 -196 c 0
 337 -196 399 -169 398 -105 c 0
 396 -27 292 -9 233 0 c 1
 210 -4 158 -29 158 -93 c 0xe9
258 291 m 0xe480
 258 252 276 223 316 223 c 0
 344 223 369 240 387 271 c 0
 406 304 418 349 418 395 c 1
 416 443 385 456 359 456 c 0
 294 456 258 361 258 291 c 0xe480
EndSplineSet
EndChar

StartChar: Hcircumflex
Encoding: 292 292 226
Width: 800
GlyphClass: 2
Flags: MW
HStem: 0 40 339 48<357 606 346 617> 652 40 800 105<596.5 597>
VStem: 40 875<0 692>
AnchorPoint: "Anchor-3" 605 900 basechar 0
AnchorPoint: "Anchor-2" 397 0 basechar 0
LayerCount: 2
Fore
SplineSet
381 755 m 1
 553 879 l 2
 571 892 588 905 605 905 c 0
 623 905 636 892 650 877 c 2
 762 755 l 1
 738 725 l 1
 632 785 l 2
 613 796 603 800 591 800 c 0
 581 800 568 795 549 787 c 2
 398 725 l 1
 381 755 l 1
40 0 m 1
 49 38 l 1
 94 42 l 2
 123 44 130 62 138 98 c 2
 249 594 l 2
 257 630 258 647 230 649 c 2
 179 654 l 1
 189 692 l 1
 501 692 l 1
 491 654 l 1
 447 650 l 2
 418 648 411 630 403 594 c 2
 357 387 l 1
 617 387 l 1
 663 594 l 2
 671 630 672 647 644 649 c 2
 593 654 l 1
 603 692 l 1
 915 692 l 1
 905 654 l 1
 861 650 l 2
 832 648 825 630 817 594 c 2
 706 98 l 2
 698 62 697 45 725 42 c 2
 775 38 l 1
 766 0 l 1
 454 0 l 1
 463 38 l 1
 508 42 l 2
 537 44 544 62 552 98 c 2
 606 339 l 1
 346 339 l 1
 292 98 l 2
 284 62 283 45 311 42 c 2
 361 38 l 1
 352 0 l 1
 40 0 l 1
EndSplineSet
EndChar

StartChar: hcircumflex
Encoding: 293 293 227
Width: 629
GlyphClass: 2
Flags: MW
HStem: -12 80<438 562.5> 422 80<428.5 575.5> 722 20<385 385> 760 227<317 530.5 514.5 643>
VStem: 294 378<787 787> 391 144 478 145
AnchorPoint: "Anchor-3" 525 967 basechar 0
AnchorPoint: "Anchor-2" 302 0 basechar 0
LayerCount: 2
Fore
SplineSet
294 787 m 1x18
 474 960 l 2
 490 976 507 987 522 987 c 0
 539 987 548 974 558 959 c 2
 672 787 l 1
 643 760 l 1
 530 856 l 2
 520 865 510 873 500 873 c 0
 491 873 476 865 462 856 c 2
 317 760 l 1
 294 787 l 1x18
79 -12 m 1xe0
 222 633 l 2
 229 662 225 674 206 676 c 2
 148 683 l 1
 156 715 l 1
 385 742 l 1
 390 737 l 1
 283 295 l 1
 288 295 l 1
 342 397 431 502 536 502 c 0
 615 502 641 439 612 347 c 2
 540 115 l 2
 532 87 532 68 551 68 c 0
 574 68 612 121 637 167 c 1
 666 152 l 1
 626 65 565 -12 470 -12 c 0
 406 -12 375 30 399 113 c 2
 473 364 l 1
 485 401 475 422 453 422 c 0
 404 422 322 314 283 213 c 0
 260 156 245 102 218 0 c 1
 79 -12 l 1xe0
EndSplineSet
EndChar

StartChar: Hbar
Encoding: 294 294 228
Width: 800
GlyphClass: 2
Flags: MW
HStem: 0 38<40 49 49 49 49 352> 339 48<357 606 346 617> 553 46<180 240 170 250 404 654 818 878> 654 38<179 501 491 491 905 905>
LayerCount: 2
Fore
SplineSet
40 0 m 1
 49 38 l 1
 94 42 l 2
 123 44 130 62 138 98 c 2
 240 553 l 1
 170 553 l 1
 180 599 l 1
 250 599 l 1
 257 632 257 647 230 649 c 2
 179 654 l 1
 189 692 l 1
 501 692 l 1
 491 654 l 1
 447 650 l 2
 419 648 412 632 404 599 c 1
 664 599 l 1
 671 632 671 647 644 649 c 2
 593 654 l 1
 603 692 l 1
 915 692 l 1
 905 654 l 1
 861 650 l 2
 833 648 826 632 818 599 c 1
 888 599 l 1
 878 553 l 1
 808 553 l 1
 706 98 l 2
 698 62 697 45 725 42 c 2
 775 38 l 1
 766 0 l 1
 454 0 l 1
 463 38 l 1
 508 42 l 2
 537 44 544 62 552 98 c 2
 606 339 l 1
 346 339 l 1
 292 98 l 2
 284 62 283 45 311 42 c 2
 361 38 l 1
 352 0 l 1
 40 0 l 1
357 387 m 1
 617 387 l 1
 654 553 l 1
 394 553 l 1
 357 387 l 1
EndSplineSet
EndChar

StartChar: hbar
Encoding: 295 295 229
Width: 629
GlyphClass: 2
Flags: MW
HStem: -12 80<438 562.5> 422 80<428.5 575.5> 560 45<149 206 138 216 358 550> 683 32<148 156> 722 20G<385 385>
LayerCount: 2
Fore
SplineSet
79 -12 m 1
 206 560 l 1
 138 560 l 1
 149 605 l 1
 216 605 l 1
 222 633 l 2
 229 662 225 674 206 676 c 2
 148 683 l 1
 156 715 l 1
 385 742 l 1
 390 737 l 1
 358 605 l 1
 561 605 l 1
 550 560 l 1
 347 560 l 1
 283 295 l 1
 288 295 l 1
 342 397 431 502 536 502 c 0
 615 502 641 439 612 347 c 2
 540 115 l 2
 532 87 532 68 551 68 c 0
 574 68 612 121 637 167 c 1
 666 152 l 1
 626 65 565 -12 470 -12 c 0
 406 -12 375 30 399 113 c 2
 473 364 l 1
 485 401 475 422 453 422 c 0
 404 422 322 314 283 213 c 0
 260 156 245 102 218 0 c 1
 79 -12 l 1
EndSplineSet
EndChar

StartChar: Itilde
Encoding: 296 296 230
Width: 386
GlyphClass: 2
Flags: MW
HStem: 0 38<40 49 49 49 49 352> 654 38<179 501 491 491> 736 85<467 493> 778 85<256 284>
LayerCount: 2
Fore
SplineSet
40 0 m 1xc0
 49 38 l 1
 94 42 l 2
 123 44 130 62 138 98 c 2
 249 594 l 2
 257 630 258 647 230 649 c 2
 179 654 l 1
 189 692 l 1
 501 692 l 1
 491 654 l 1
 447 650 l 2
 418 648 411 630 403 594 c 2
 292 98 l 2
 284 62 283 45 311 42 c 2
 361 38 l 1
 352 0 l 1
 40 0 l 1xc0
162 741 m 1x10
 180 784 215 863 297 863 c 0x10
 325 863 357 853 389 842 c 1
 422 832 454 821 480 821 c 0
 517 821 533 837 555 876 c 1
 587 858 l 1
 569 815 534 736 452 736 c 0x20
 427 736 396 747 364 757 c 0
 332 768 299 778 269 778 c 0
 232 778 216 762 194 723 c 1
 162 741 l 1x10
EndSplineSet
EndChar

StartChar: itilde
Encoding: 297 297 231
Width: 339
GlyphClass: 2
Flags: MW
HStem: -12 80<144.5 273.5> 440 33<110 118> 482 20G<348 348> 562 84 604 84<183.5 211> 677 20G<485 485>
VStem: 99 22<549 567>
LayerCount: 2
Fore
SplineSet
99 567 m 1xea
 107 609 143 688 224 688 c 0xea
 252 688 285 677 318 666 c 0
 351 656 384 645 410 646 c 1
 431 648 449 656 485 697 c 1
 507 684 l 1
 475 620 453 562 380 562 c 0xf6
 359 562 328 573 295 583 c 0
 262 594 226 604 196 604 c 0
 159 604 143 588 121 549 c 1
 99 567 l 1xea
108 107 m 2
 185 392 l 2
 192 419 188 432 168 434 c 2
 110 440 l 1
 118 473 l 1
 348 502 l 1
 354 496 l 1
 251 115 l 2
 244 89 243 68 262 68 c 0
 285 68 323 121 348 166 c 1
 378 149 l 1
 336 65 275 -12 178 -12 c 0
 111 -12 87 30 108 107 c 2
EndSplineSet
EndChar

StartChar: Imacron
Encoding: 298 298 232
Width: 386
GlyphClass: 2
Flags: MW
HStem: 0 38<40 49 49 49 49 352> 654 38<179 501 491 491> 770 77<192 560 210 542>
AnchorPoint: "Anchor-3" 384 842 basechar 0
AnchorPoint: "Anchor-2" 190 0 basechar 0
LayerCount: 2
Fore
SplineSet
192 770 m 1
 210 847 l 1
 560 847 l 1
 542 770 l 1
 192 770 l 1
40 0 m 1
 49 38 l 1
 94 42 l 2
 123 44 130 62 138 98 c 2
 249 594 l 2
 257 630 258 647 230 649 c 2
 179 654 l 1
 189 692 l 1
 501 692 l 1
 491 654 l 1
 447 650 l 2
 418 648 411 630 403 594 c 2
 292 98 l 2
 284 62 283 45 311 42 c 2
 361 38 l 1
 352 0 l 1
 40 0 l 1
EndSplineSet
EndChar

StartChar: imacron
Encoding: 299 299 233
Width: 339
GlyphClass: 3
Flags: MW
HStem: -12 80<144.5 273.5> 440 33<110 118> 482 20<348 348> 592 72<140 466 155 451>
VStem: 140 326<592 664>
AnchorPoint: "Anchor-3" 307 644 basechar 0
AnchorPoint: "Anchor-2" 159 0 basechar 0
LayerCount: 2
Fore
SplineSet
140 592 m 1
 155 664 l 1
 466 664 l 1
 451 592 l 1
 140 592 l 1
108 107 m 2
 185 392 l 2
 192 419 188 432 168 434 c 2
 110 440 l 1
 118 473 l 1
 348 502 l 1
 354 496 l 1
 251 115 l 2
 244 89 243 68 262 68 c 0
 285 68 323 121 348 166 c 1
 378 149 l 1
 336 65 275 -12 178 -12 c 0
 111 -12 87 30 108 107 c 2
EndSplineSet
Ligature2: "'liga' Standard Ligatures in Latin lookup 1 subtable" i uni0304
EndChar

StartChar: Ibreve
Encoding: 300 300 234
Width: 386
GlyphClass: 2
Flags: MW
HStem: 0 38<40 49 49 49 49 352> 654 38<179 501 491 491> 746 77<332.5 427.5 332.5 429.5>
VStem: 231 41<892 892> 520 41<892 892>
AnchorPoint: "Anchor-3" 395 887 basechar 0
AnchorPoint: "Anchor-2" 190 0 basechar 0
LayerCount: 2
Fore
SplineSet
231 892 m 1
 272 892 l 1
 268 868 285 823 380 823 c 0
 475 823 512 868 520 892 c 1
 561 892 l 1
 544 818 497 746 362 746 c 0
 227 746 214 818 231 892 c 1
40 0 m 1
 49 38 l 1
 94 42 l 2
 123 44 130 62 138 98 c 2
 249 594 l 2
 257 630 258 647 230 649 c 2
 179 654 l 1
 189 692 l 1
 501 692 l 1
 491 654 l 1
 447 650 l 2
 418 648 411 630 403 594 c 2
 292 98 l 2
 284 62 283 45 311 42 c 2
 361 38 l 1
 352 0 l 1
 40 0 l 1
EndSplineSet
EndChar

StartChar: ibreve
Encoding: 301 301 235
Width: 339
GlyphClass: 3
Flags: MW
HStem: -12 80<144.5 273.5> 440 33<110 118> 482 20<348 348> 556 83<251 352.5 251 354.5>
VStem: 156 45
AnchorPoint: "Anchor-3" 318 694 basechar 0
AnchorPoint: "Anchor-2" 159 0 basechar 0
LayerCount: 2
Fore
SplineSet
167 714 m 1
 201 714 l 1
 196 688 201 639 301 639 c 0
 404 639 435 688 445 714 c 1
 479 714 l 1
 463 632 424 556 285 556 c 0
 146 556 144 642 167 714 c 1
108 107 m 2
 185 392 l 2
 192 419 188 432 168 434 c 2
 110 440 l 1
 118 473 l 1
 348 502 l 1
 354 496 l 1
 251 115 l 2
 244 89 243 68 262 68 c 0
 285 68 323 121 348 166 c 1
 378 149 l 1
 336 65 275 -12 178 -12 c 0
 111 -12 87 30 108 107 c 2
EndSplineSet
Ligature2: "'liga' Standard Ligatures in Latin lookup 1 subtable" i uni0306
EndChar

StartChar: Idotaccent
Encoding: 304 304 236
Width: 386
GlyphClass: 2
Flags: MW
HStem: 0 38<40 49 49 49 49 352> 654 38<179 501 491 491> 732 149<350.5 402>
VStem: 297 158<787 825>
AnchorPoint: "Anchor-3" 392 876 basechar 0
AnchorPoint: "Anchor-2" 190 0 basechar 0
LayerCount: 2
Fore
SplineSet
297 806 m 0
 297 844 325 881 376 881 c 0
 428 881 455 844 455 806 c 0
 455 768 428 732 376 732 c 0
 325 732 297 768 297 806 c 0
40 0 m 1
 49 38 l 1
 94 42 l 2
 123 44 130 62 138 98 c 2
 249 594 l 2
 257 630 258 647 230 649 c 2
 179 654 l 1
 189 692 l 1
 501 692 l 1
 491 654 l 1
 447 650 l 2
 418 648 411 630 403 594 c 2
 292 98 l 2
 284 62 283 45 311 42 c 2
 361 38 l 1
 352 0 l 1
 40 0 l 1
EndSplineSet
EndChar

StartChar: dotlessi
Encoding: 305 305 237
Width: 339
GlyphClass: 2
Flags: MW
HStem: -12 80<144.5 273.5> 440 33<110 118> 482 20G<348 348>
AnchorPoint: "Anchor-3" 274 502 basechar 0
AnchorPoint: "Anchor-2" 159 0 basechar 0
LayerCount: 2
Fore
SplineSet
108 107 m 2
 185 392 l 2
 192 419 188 432 168 434 c 2
 110 440 l 1
 118 473 l 1
 348 502 l 1
 354 496 l 1
 251 115 l 2
 244 89 243 68 262 68 c 0
 285 68 323 121 348 166 c 1
 378 149 l 1
 336 65 275 -12 178 -12 c 0
 111 -12 87 30 108 107 c 2
EndSplineSet
EndChar

StartChar: Jcircumflex
Encoding: 308 308 238
Width: 388
GlyphClass: 2
Flags: MW
HStem: -114 35 652 40 800 105<399.5 400>
VStem: -15 527
AnchorPoint: "Anchor-3" 408 900 basechar 0
AnchorPoint: "Anchor-2" 178 0 basechar 0
LayerCount: 2
Fore
SplineSet
184 755 m 1
 356 879 l 2
 374 892 391 905 408 905 c 0
 426 905 439 892 453 877 c 2
 565 755 l 1
 541 725 l 1
 435 785 l 2
 416 796 406 800 394 800 c 0
 384 800 371 795 352 787 c 2
 201 725 l 1
 184 755 l 1
-15 -79 m 1
 23 -73 61 -58 84 -31 c 0
 114 3 138 57 161 158 c 2
 260 594 l 2
 268 630 269 647 241 649 c 2
 190 654 l 1
 200 692 l 1
 512 692 l 1
 502 654 l 1
 458 650 l 2
 429 648 422 630 414 594 c 2
 303 106 l 2
 287 36 263 -19 224 -54 c 0
 169 -104 88 -114 28 -114 c 0
 14 -114 1 -115 -13 -112 c 1
 -15 -79 l 1
EndSplineSet
EndChar

StartChar: jcircumflex
Encoding: 309 309 239
Width: 333
GlyphClass: 3
Flags: MW
HStem: -242 46<54.5 63 54.5 64> 440 33<121 128> 482 20<360 360> 520 227<141 354.5 338.5 467>
VStem: 118 378<547 547>
AnchorPoint: "Anchor-3" 349 727 basechar 0
AnchorPoint: "Anchor-2" 62 -242 basechar 0
LayerCount: 2
Fore
SplineSet
118 547 m 1
 298 720 l 2
 314 736 331 747 346 747 c 0
 363 747 372 734 382 719 c 2
 496 547 l 1
 467 520 l 1
 354 616 l 2
 344 625 334 633 324 633 c 0
 315 633 300 625 286 616 c 2
 141 520 l 1
 118 547 l 1
-85 -174 m 0
 -85 -147 -54 -114 -25 -114 c 0
 -6 -114 4 -132 14 -147 c 0
 39 -185 50 -196 59 -196 c 0
 67 -196 72 -189 78 -162 c 2
 200 391 l 2
 206 418 204 432 185 434 c 2
 121 440 l 1
 128 473 l 1
 360 502 l 1
 367 497 l 1
 252 -5 l 2
 230 -99 204 -163 161 -201 c 0
 129 -228 87 -242 41 -242 c 0
 -45 -242 -85 -210 -85 -174 c 0
EndSplineSet
Ligature2: "'liga' Standard Ligatures in Latin lookup 2 subtable" j uni0302
EndChar

StartChar: Lacute
Encoding: 313 313 240
Width: 586
GlyphClass: 2
Flags: MW
HStem: 0 38<40 49 49 49 49 568> 0 46<347 421 347 568> 654 38<179 501 491 491> 719 185
VStem: 383 290<751 850>
AnchorPoint: "Anchor-3" 511 899 basechar 0
AnchorPoint: "Anchor-2" 304 0 basechar 0
LayerCount: 2
Fore
SplineSet
383 751 m 1x18
 555 874 l 2
 586 897 601 904 619 904 c 0
 651 904 673 860 673 840 c 0
 673 811 653 800 600 783 c 2
 397 719 l 1
 383 751 l 1x18
40 0 m 1xa0
 49 38 l 1xa0
 94 42 l 2
 123 45 130 62 138 98 c 2
 249 594 l 2
 257 630 258 648 230 650 c 2
 179 654 l 1
 189 692 l 1
 501 692 l 1
 491 654 l 1
 447 650 l 2
 418 647 411 630 403 594 c 2
 293 101 l 2
 282 52 310 46 384 46 c 0x60
 458 46 506 70 558 153 c 2
 588 201 l 1
 626 201 l 1
 568 0 l 1
 40 0 l 1xa0
EndSplineSet
EndChar

StartChar: lacute
Encoding: 314 314 241
Width: 327
GlyphClass: 2
Flags: MW
HStem: -12 80<142 266> 722 20<389 389> 751 229<277 487>
VStem: 97 144 256 272<781 932.5>
AnchorPoint: "Anchor-3" 370 960 basechar 0
AnchorPoint: "Anchor-2" 149 0 basechar 0
LayerCount: 2
Fore
SplineSet
256 781 m 1
 401 930 l 2
 438 968 455 980 475 980 c 0
 499 980 528 945 528 920 c 0
 528 894 496 874 460 854 c 2
 277 751 l 1
 256 781 l 1
104 115 m 2
 229 633 l 2
 236 662 232 674 213 676 c 2
 155 683 l 1
 162 715 l 1
 389 742 l 1
 395 737 l 1
 244 115 l 2
 238 88 237 68 255 68 c 0
 277 68 316 118 342 166 c 1
 373 148 l 1
 332 65 271 -12 176 -12 c 0
 108 -12 84 32 104 115 c 2
EndSplineSet
EndChar

StartChar: Lcaron
Encoding: 317 317 242
Width: 586
GlyphClass: 2
Flags: MW
HStem: 0 38<40 49 49 49 49 568> 0 46<347 421 347 568> 532 279<589 648.5> 654 38<179 501 491 491>
VStem: 590 103<647.5 753.5>
LayerCount: 2
Fore
SplineSet
40 0 m 1x90
 49 38 l 1x90
 94 42 l 2
 123 45 130 62 138 98 c 2
 249 594 l 2
 257 630 258 648 230 650 c 2
 179 654 l 1
 189 692 l 1
 501 692 l 1
 491 654 l 1
 447 650 l 2
 418 647 411 630 403 594 c 2
 293 101 l 2
 282 52 310 46 384 46 c 0x50
 458 46 506 70 558 153 c 2
 588 201 l 1
 626 201 l 1
 568 0 l 1
 40 0 l 1x90
552 742 m 0x28
 552 764 567 811 626 811 c 0
 671 811 693 776 693 731 c 0
 693 651 631 571 589 532 c 1
 561 555 l 1
 582 590 590 641 590 654 c 0
 590 689 552 706 552 742 c 0x28
EndSplineSet
EndChar

StartChar: lcaron
Encoding: 318 318 243
Width: 354
GlyphClass: 2
Flags: MW
HStem: -12 80<142 266> 532 279<454 513.5> 722 20<389 389>
VStem: 97 144 455 103<647.5 753.5>
LayerCount: 2
Fore
SplineSet
104 115 m 2xb0
 229 633 l 2
 236 662 232 674 213 676 c 2
 155 683 l 1
 162 715 l 1
 389 742 l 1
 395 737 l 1
 244 115 l 2
 238 88 237 68 255 68 c 0
 277 68 316 118 342 166 c 1
 373 148 l 1
 332 65 271 -12 176 -12 c 0
 108 -12 84 32 104 115 c 2xb0
417 742 m 0x48
 417 764 432 811 491 811 c 0
 536 811 558 776 558 731 c 0
 558 651 496 571 454 532 c 1
 426 555 l 1
 447 590 455 641 455 654 c 0
 455 689 417 706 417 742 c 0x48
EndSplineSet
EndChar

StartChar: Lslash
Encoding: 321 321 244
Width: 592
GlyphClass: 2
Flags: MW
HStem: 0 38<46 55 55 55 55 574> 0 46<353 427 353 574> 654 38<185 507 497 497>
LayerCount: 2
Fore
SplineSet
46 0 m 1xa0
 55 38 l 1xa0
 100 42 l 2
 129 45 136 62 144 98 c 2
 177 246 l 1
 70 178 l 1
 85 244 l 1
 192 311 l 1
 255 594 l 2
 263 630 264 648 236 650 c 2
 185 654 l 1
 195 692 l 1
 507 692 l 1
 497 654 l 1
 453 650 l 2
 424 647 417 630 409 594 c 2
 372 425 l 1
 520 519 l 1
 505 453 l 1
 357 359 l 1
 299 101 l 2
 288 52 316 46 390 46 c 0x60
 464 46 512 70 564 153 c 2
 594 201 l 1
 632 201 l 1
 574 0 l 1
 46 0 l 1xa0
EndSplineSet
EndChar

StartChar: lslash
Encoding: 322 322 245
Width: 339
GlyphClass: 2
Flags: MW
HStem: -12 80<148 272> 722 20G<395 395>
VStem: 103 144
AnchorPoint: "Anchor-3" 285 742 basechar 0
LayerCount: 2
Fore
SplineSet
53 216 m 1
 67 276 l 1
 163 334 l 1
 235 633 l 2
 242 662 238 674 219 676 c 2
 161 683 l 1
 168 715 l 1
 395 742 l 1
 401 737 l 1
 326 425 l 1
 455 504 l 1
 440 444 l 1
 311 365 l 1
 250 115 l 2
 244 88 243 68 261 68 c 0
 283 68 322 118 348 166 c 1
 379 148 l 1
 338 65 277 -12 182 -12 c 0
 114 -12 90 32 110 115 c 2
 149 274 l 1
 53 216 l 1
EndSplineSet
EndChar

StartChar: Nacute
Encoding: 323 323 246
Width: 741
GlyphClass: 2
Flags: MW
HStem: 0 38<30 38 38 38 38 276> 654 38<172 404 865 865> 719 185
VStem: 450 290
AnchorPoint: "Anchor-3" 578 899 basechar 0
AnchorPoint: "Anchor-2" 371 0 basechar 0
LayerCount: 2
Fore
SplineSet
450 751 m 1
 622 874 l 2
 653 897 668 904 686 904 c 0
 718 904 740 860 740 840 c 0
 740 811 720 800 667 783 c 2
 464 719 l 1
 450 751 l 1
30 0 m 1
 38 38 l 1
 75 41 l 2
 99 43 114 57 125 91 c 0
 136 125 146 164 163 239 c 2
 241 594 l 2
 249 630 250 647 222 649 c 2
 172 654 l 1
 182 692 l 1
 404 692 l 1
 474 522 545 353 617 183 c 1
 620 183 l 1
 679 453 l 2
 695 527 704 566 707 601 c 0
 710 634 702 649 673 651 c 2
 619 654 l 1
 627 692 l 1
 873 692 l 1
 865 654 l 1
 828 651 l 2
 804 649 789 635 778 601 c 0
 767 567 757 528 740 453 c 2
 640 0 l 1
 536 0 l 1
 458 187 379 374 299 561 c 1
 295 561 l 1
 223 239 l 1
 208 165 200 126 196 91 c 0
 193 58 202 43 230 41 c 2
 284 38 l 1
 276 0 l 1
 30 0 l 1
EndSplineSet
EndChar

StartChar: nacute
Encoding: 324 324 247
Width: 635
GlyphClass: 2
Flags: MW
HStem: -12 80<442.5 571> 422 80 440 33<108 116> 511 229<383 593>
VStem: 362 272<541 692.5>
AnchorPoint: "Anchor-3" 476 720 basechar 0
AnchorPoint: "Anchor-2" 311 0 basechar 0
LayerCount: 2
Fore
SplineSet
362 541 m 1x18
 507 690 l 2
 544 728 561 740 581 740 c 0
 605 740 634 705 634 680 c 0
 634 654 602 634 566 614 c 2
 383 511 l 1
 362 541 l 1x18
80 -12 m 1xc0
 183 391 l 1
 191 418 187 432 168 434 c 2
 108 440 l 1
 116 473 l 1xa0
 349 502 l 1
 354 497 l 1
 286 280 l 1
 292 280 l 1
 354 396 445 502 548 502 c 0
 632 502 646 436 623 357 c 1
 548 115 l 2
 540 89 541 68 559 68 c 0
 583 68 621 121 645 166 c 1
 674 148 l 1
 633 64 573 -12 473 -12 c 0
 412 -12 383 30 405 107 c 2
 481 363 l 2
 490 393 492 422 461 422 c 0
 413 422 323 288 293 213 c 0
 270 155 250 102 221 0 c 1
 80 -12 l 1xc0
EndSplineSet
EndChar

StartChar: Ncommaaccent
Encoding: 325 325 248
Width: 741
GlyphClass: 2
Flags: MW
HStem: -297 255<276 379.5> 0 38<30 38 38 38 38 276> 654 38<172 404 865 865>
VStem: 310 112<-199.5 -95.5>
LayerCount: 2
Fore
SplineSet
30 0 m 1
 38 38 l 1
 75 41 l 2
 99 43 114 57 125 91 c 0
 136 125 146 164 163 239 c 2
 241 594 l 2
 249 630 250 647 222 649 c 2
 172 654 l 1
 182 692 l 1
 404 692 l 1
 474 522 545 353 617 183 c 1
 620 183 l 1
 679 453 l 2
 695 527 704 566 707 601 c 0
 710 634 702 649 673 651 c 2
 619 654 l 1
 627 692 l 1
 873 692 l 1
 865 654 l 1
 828 651 l 2
 804 649 789 635 778 601 c 0
 767 567 757 528 740 453 c 2
 640 0 l 1
 536 0 l 1
 458 187 379 374 299 561 c 1
 295 561 l 1
 223 239 l 1
 208 165 200 126 196 91 c 0
 193 58 202 43 230 41 c 2
 284 38 l 1
 276 0 l 1
 30 0 l 1
256 -274 m 1
 287 -244 310 -216 310 -183 c 0
 310 -151 290 -139 290 -107 c 0
 290 -68 317 -42 358 -42 c 0
 401 -42 422 -78 422 -113 c 0
 422 -191 347 -248 276 -297 c 1
 256 -274 l 1
EndSplineSet
EndChar

StartChar: ncommaaccent
Encoding: 326 326 249
Width: 635
GlyphClass: 2
Flags: MW
HStem: -297 255<216 319.5> -12 80<442.5 571> 422 80 440 33<108 116>
VStem: 250 112<-199.5 -95.5>
LayerCount: 2
Fore
SplineSet
80 -12 m 1x60
 183 391 l 1
 191 418 187 432 168 434 c 2
 108 440 l 1
 116 473 l 1x50
 349 502 l 1
 354 497 l 1
 286 280 l 1
 292 280 l 1
 354 396 445 502 548 502 c 0
 632 502 646 436 623 357 c 1
 548 115 l 2
 540 89 541 68 559 68 c 0
 583 68 621 121 645 166 c 1
 674 148 l 1
 633 64 573 -12 473 -12 c 0
 412 -12 383 30 405 107 c 2
 481 363 l 2
 490 393 492 422 461 422 c 0
 413 422 323 288 293 213 c 0
 270 155 250 102 221 0 c 1
 80 -12 l 1x60
196 -274 m 1x88
 227 -244 250 -216 250 -183 c 0
 250 -151 230 -139 230 -107 c 0
 230 -68 257 -42 298 -42 c 0
 341 -42 362 -78 362 -113 c 0
 362 -191 287 -248 216 -297 c 1
 196 -274 l 1x88
EndSplineSet
EndChar

StartChar: Ncaron
Encoding: 327 327 250
Width: 741
GlyphClass: 2
Flags: MW
HStem: 0 38<30 38 38 38 38 276> 654 38<172 404 865 865> 736 105<550 550.5>
AnchorPoint: "Anchor-3" 581 911 basechar 0
AnchorPoint: "Anchor-2" 371 0 basechar 0
LayerCount: 2
Fore
SplineSet
385 886 m 1
 409 916 l 1
 515 856 l 2
 534 845 544 841 556 841 c 0
 566 841 579 846 598 854 c 2
 749 916 l 1
 766 886 l 1
 594 762 l 2
 576 749 559 736 542 736 c 0
 524 736 511 749 497 764 c 2
 385 886 l 1
30 0 m 1
 38 38 l 1
 75 41 l 2
 99 43 114 57 125 91 c 0
 136 125 146 164 163 239 c 2
 241 594 l 2
 249 630 250 647 222 649 c 2
 172 654 l 1
 182 692 l 1
 404 692 l 1
 474 522 545 353 617 183 c 1
 620 183 l 1
 679 453 l 2
 695 527 704 566 707 601 c 0
 710 634 702 649 673 651 c 2
 619 654 l 1
 627 692 l 1
 873 692 l 1
 865 654 l 1
 828 651 l 2
 804 649 789 635 778 601 c 0
 767 567 757 528 740 453 c 2
 640 0 l 1
 536 0 l 1
 458 187 379 374 299 561 c 1
 295 561 l 1
 223 239 l 1
 208 165 200 126 196 91 c 0
 193 58 202 43 230 41 c 2
 284 38 l 1
 276 0 l 1
 30 0 l 1
EndSplineSet
EndChar

StartChar: ncaron
Encoding: 328 328 251
Width: 635
GlyphClass: 2
Flags: MW
HStem: -12 80<442.5 571> 422 80 440 33<108 116> 520 227<309 437.5>
VStem: 280 378<720 720>
AnchorPoint: "Anchor-3" 478 727 basechar 0
AnchorPoint: "Anchor-2" 311 0 basechar 0
LayerCount: 2
Fore
SplineSet
280 720 m 1x18
 309 747 l 1
 422 651 l 2
 432 642 442 634 452 634 c 0
 461 634 476 642 490 651 c 2
 635 747 l 1
 658 720 l 1
 478 547 l 2
 462 531 445 520 430 520 c 0
 413 520 404 533 394 548 c 2
 280 720 l 1x18
80 -12 m 1xc0
 183 391 l 1
 191 418 187 432 168 434 c 2
 108 440 l 1
 116 473 l 1xa0
 349 502 l 1
 354 497 l 1
 286 280 l 1
 292 280 l 1
 354 396 445 502 548 502 c 0
 632 502 646 436 623 357 c 1
 548 115 l 2
 540 89 541 68 559 68 c 0
 583 68 621 121 645 166 c 1
 674 148 l 1
 633 64 573 -12 473 -12 c 0
 412 -12 383 30 405 107 c 2
 481 363 l 2
 490 393 492 422 461 422 c 0
 413 422 323 288 293 213 c 0
 270 155 250 102 221 0 c 1
 80 -12 l 1xc0
EndSplineSet
EndChar

StartChar: Eng
Encoding: 330 330 252
Width: 765
GlyphClass: 2
Flags: MW
HStem: -242 46<379 438.5 379 449.5> 0 38<40 49 49 49 49 354> 625 82<563 735.5> 654 38<179 425>
LayerCount: 2
Fore
SplineSet
40 0 m 1xe0
 49 38 l 1
 94 42 l 2
 123 44 130 62 138 98 c 2
 249 594 l 2
 257 630 258 647 230 649 c 2
 179 654 l 1
 189 692 l 1
 425 692 l 1xd0
 401 581 l 1
 403 581 l 1
 485 654 579 707 676 707 c 0
 795 707 833 629 799 486 c 2
 690 27 l 2
 635 -206 511 -242 388 -242 c 0
 284 -242 236 -181 236 -140 c 0
 236 -98 278 -78 315 -78 c 0
 386 -78 350 -196 408 -196 c 0
 469 -196 510 -91 541 47 c 1
 648 506 l 2
 666 584 652 625 592 625 c 0
 534 625 469 572 438 543 c 0
 416 523 378 478 366 425 c 2
 292 98 l 2
 284 62 283 44 311 42 c 2
 363 38 l 1
 354 0 l 1
 40 0 l 1xe0
EndSplineSet
EndChar

